<?xml version="1.0" encoding="UTF-8" standalone="no"?>
<!-- Created with Inkscape (http://www.inkscape.org/) -->

<svg
   xmlns:dc="http://purl.org/dc/elements/1.1/"
   xmlns:cc="http://creativecommons.org/ns#"
   xmlns:rdf="http://www.w3.org/1999/02/22-rdf-syntax-ns#"
   xmlns:svg="http://www.w3.org/2000/svg"
   xmlns="http://www.w3.org/2000/svg"
   xmlns:sodipodi="http://sodipodi.sourceforge.net/DTD/sodipodi-0.dtd"
   xmlns:inkscape="http://www.inkscape.org/namespaces/inkscape"
   width="33"
   height="33"
   viewBox="0 0 8.7312498 8.7312502"
   version="1.1"
   id="svg8"
   inkscape:version="0.92.1 unknown"
   sodipodi:docname="avatar2.svg">
  <defs
     id="defs2" />
  <sodipodi:namedview
     id="base"
     pagecolor="#ffffff"
     bordercolor="#666666"
     borderopacity="1.0"
     inkscape:pageopacity="0.0"
     inkscape:pageshadow="2"
     inkscape:zoom="5.6"
     inkscape:cx="27.694626"
     inkscape:cy="2.1946248"
     inkscape:document-units="px"
     inkscape:current-layer="g4502"
     showgrid="false"
     units="px"
     inkscape:snap-global="false"
     showguides="true"
     inkscape:guide-bbox="true" />
  <metadata
     id="metadata5">
    <rdf:RDF>
      <cc:Work
         rdf:about="">
        <dc:format>image/svg+xml</dc:format>
        <dc:type
           rdf:resource="http://purl.org/dc/dcmitype/StillImage" />
        <dc:title />
      </cc:Work>
    </rdf:RDF>
  </metadata>
  <g
     inkscape:label="tomb-stone"
     inkscape:groupmode="layer"
     id="layer1"
     transform="translate(0,-288.26873)">
    <g
       id="g4511"
       transform="matrix(0.26458333,0,0,0.26458333,0.13229168,288.40102)">
      <g
         id="text4577"
         style="font-style:normal;font-weight:normal;font-size:15.34520054px;line-height:1.25;font-family:sans-serif;letter-spacing:0px;word-spacing:0px;fill:#000000;fill-opacity:1;stroke:#000000;stroke-width:0.99507672;stroke-miterlimit:4;stroke-dasharray:none;stroke-opacity:1"
         transform="scale(1.0830723,0.92329939)"
         aria-label="T" />
      <g
         inkscape:label="test"
         id="layer1-6">
        <g
           id="text822"
           style="font-style:normal;font-variant:normal;font-weight:bold;font-stretch:normal;font-size:22.55261993px;line-height:1.25;font-family:sans-serif;-inkscape-font-specification:'sans-serif Bold';letter-spacing:0px;word-spacing:0px;fill:#000000;fill-opacity:1;stroke:none;stroke-width:0.56381553"
           transform="matrix(1.2275249,0,0,0.81464742,0.18321795,0)"
           aria-label="?" />
      </g>
    </g>
    <g
       aria-label="RIP"
       style="font-style:normal;font-weight:normal;font-size:3.52777767px;font-family:sans-serif;letter-spacing:0px;word-spacing:0px;fill:#000000;fill-opacity:1;stroke:none;stroke-width:0.26458332"
       id="text4530"
       transform="translate(0.10022607)">
      <g
         id="g4591"
         transform="matrix(1.1471828,0,0,1.1471828,-0.77947047,-42.44655)" />
    </g>
    <g
       id="g4494"
       transform="translate(0,0.918453)">
      <g
         id="g4502"
         transform="matrix(1.019907,0,0,1.0948746,-0.08749555,-27.388022)">
        <path
           style="opacity:1;vector-effect:none;fill:#ff9000;fill-opacity:1;fill-rule:evenodd;stroke:none;stroke-width:0.50119406px;stroke-linecap:butt;stroke-linejoin:miter;stroke-miterlimit:4;stroke-dasharray:none;stroke-dashoffset:0;stroke-opacity:1"
           d="m 5.6579067,288.67812 a 1.5005353,1.3977915 0 0 0 -1.5005932,1.39785 1.5005353,1.3977915 0 0 0 1.5005932,1.39784 1.5005353,1.3977915 0 0 0 1.5005932,-1.39784 1.5005353,1.3977915 0 0 0 -1.5005932,-1.39785 z m -3.2289296,1.38011 a 1.1271991,1.0500182 0 0 0 -1.1269646,1.0498 1.1271991,1.0500182 0 0 0 1.1269646,1.05017 1.1271991,1.0500182 0 0 0 1.1273697,-1.05017 1.1271991,1.0500182 0 0 0 -1.1273697,-1.0498 z m 1.896915,1.12681 c -0.14836,0.0589 -0.2891833,0.13614 -0.4157732,0.2397 -0.2236557,0.16427 -0.4048836,0.37584 -0.5426126,0.61342 a 1.1282403,1.058259 0 0 1 -0.9385292,0.47337 1.1282403,1.058259 0 0 1 -1.0005306,-0.57038 c -0.1114478,0.0442 -0.2173436,0.10227 -0.3124378,0.18006 -0.42313564,0.31079 -0.65330779,0.84246 -0.63135949,1.36236 -0.007358,0.41883 -0.006097,0.32413 0.004053,0.7429 H 3.074925 c 5.2e-6,2.1e-4 -5.1e-6,1.6e-4 0,3.8e-4 h 5.1651527 c 0.011713,-0.67845 0.024606,-0.67419 -0.010131,-1.35179 -0.079889,-0.72726 -0.5626499,-1.40946 -1.240836,-1.69002 a 1.5019214,1.4087618 0 0 1 -1.3312042,0.75913 1.5019214,1.4087618 0 0 1 -1.3320144,-0.75913 z"
           id="rect4513"
           inkscape:connector-curvature="0" />
      </g>
    </g>
  </g>
</svg>
