<svg xmlns="http://www.w3.org/2000/svg" height="33" width="33" version="1.1" viewBox="0 0 8.7312498 8.7312502">
	<g transform="translate(.0000022322 -287.46)">
		<g transform="matrix(1.0199 0 0 1.0949 -.087496 -27.388)">
			<path style="fill:#ff9000;fill-rule:evenodd" transform="matrix(.25942 0 0 .24166 .085788 287.47)" d="m16.5 2.5527a7.2321 7.2321 0 0 0 -7.2324 7.2325 7.2321 7.2321 0 0 0 7.2324 7.2328 7.2321 7.2321 0 0 0 7.232 -7.2328 7.2321 7.2321 0 0 0 -7.232 -7.2325zm-6.42 12.97c-0.71505 0.30456-1.3938 0.70439-2.0039 1.2402-2.7149 2.1406-4.1916 5.8019-4.0508 9.3828-0.047232 2.8847-0.039701 2.2309 0.025391 5.1152h24.894c0.05645-3.5103 0.1186-3.4882-0.04883-6.9941-0.38504-3.7628-2.7118-7.2925-5.9805-8.7441a7.2388 7.2889 0 0 1 -6.416 3.928 7.2388 7.2889 0 0 1 -6.42 -3.928z"/>
		</g>
	</g>
</svg>
