<svg xmlns="http://www.w3.org/2000/svg" height="33" width="33" viewBox="0 0 8.7312498 8.7312502"><path d="M5.683 1.338a1.53 1.53 0 0 0-1.53 1.53 1.53 1.53 0 0 0 1.53 1.53 1.53 1.53 0 0 0 1.53-1.53 1.53 1.53 0 0 0-1.53-1.53zM2.39 2.848a1.15 1.15 0 0 0-1.15 1.15 1.15 1.15 0 0 0 1.15 1.15 1.15 1.15 0 0 0 1.15-1.15 1.15 1.15 0 0 0-1.15-1.15zm1.934 1.235c-.15.064-.294.149-.424.262a2.15 2.15 0 0 0-.553.672 1.15 1.159 0 0 1-.957.518 1.15 1.159 0 0 1-1.02-.625 1.176 1.176 0 0 0-.32.198c-.43.34-.666.922-.643 1.491-.008.459-.006.355.004.814h7.906c.012-.743.025-.738-.01-1.48-.082-.796-.575-1.543-1.266-1.85a1.532 1.542 0 0 1-1.358.83 1.532 1.542 0 0 1-1.358-.83z" fill="#ff9000" fill-rule="evenodd"/></svg>