<svg xmlns="http://www.w3.org/2000/svg" height="33" width="33" version="1.1" viewBox="0 0 8.7312498 8.7312502">
	<g transform="translate(1.963e-8 -287.35)">
		<g transform="matrix(1.0199 0 0 1.0949 -.087496 -27.388)">
			<path style="fill:#ff9000;fill-rule:evenodd" d="m5.6579 288.68a1.5005 1.3978 0 0 0 -1.5006 1.3978 1.5005 1.3978 0 0 0 1.5006 1.3978 1.5005 1.3978 0 0 0 1.5006 -1.3978 1.5005 1.3978 0 0 0 -1.5006 -1.3978zm-3.2289 1.3801a1.1272 1.05 0 0 0 -1.127 1.0498 1.1272 1.05 0 0 0 1.127 1.0502 1.1272 1.05 0 0 0 1.1274 -1.0502 1.1272 1.05 0 0 0 -1.1274 -1.0498zm1.8969 1.1268c-0.14836 0.0589-0.28918 0.13614-0.41577 0.2397-0.22366 0.16427-0.40488 0.37584-0.54261 0.61342a1.1282 1.0583 0 0 1 -0.93853 0.47337 1.1282 1.0583 0 0 1 -1.0005 -0.57038c-0.11145 0.0442-0.21734 0.10227-0.31244 0.18006-0.42314 0.31079-0.65331 0.84246-0.63136 1.3624-0.007358 0.41883-0.006097 0.32413 0.004053 0.7429h2.5862c0.0000052 0.00021-0.0000051 0.00016 0 0.00038h5.1652c0.011713-0.67845 0.024606-0.67419-0.010131-1.3518-0.079889-0.72726-0.56265-1.4095-1.2408-1.69a1.5019 1.4088 0 0 1 -1.3312 0.75913 1.5019 1.4088 0 0 1 -1.332 -0.75913z"/>
		</g>
	</g>
</svg>
