<?xml version="1.0" encoding="UTF-8" standalone="no"?>
<!-- Created with Inkscape (http://www.inkscape.org/) -->

<svg
   xmlns:dc="http://purl.org/dc/elements/1.1/"
   xmlns:cc="http://creativecommons.org/ns#"
   xmlns:rdf="http://www.w3.org/1999/02/22-rdf-syntax-ns#"
   xmlns:svg="http://www.w3.org/2000/svg"
   xmlns="http://www.w3.org/2000/svg"
   xmlns:sodipodi="http://sodipodi.sourceforge.net/DTD/sodipodi-0.dtd"
   xmlns:inkscape="http://www.inkscape.org/namespaces/inkscape"
   width="33"
   height="33"
   viewBox="0 0 8.7312498 8.7312502"
   version="1.1"
   id="svg8"
   inkscape:version="0.92.1 unknown"
   sodipodi:docname="bottle.svg">
  <defs
     id="defs2" />
  <sodipodi:namedview
     id="base"
     pagecolor="#cdcdcd"
     bordercolor="#666666"
     borderopacity="1.0"
     inkscape:pageopacity="0"
     inkscape:pageshadow="2"
     inkscape:zoom="5.6568543"
     inkscape:cx="-28.232482"
     inkscape:cy="-12.310271"
     inkscape:document-units="px"
     inkscape:current-layer="layer1"
     showgrid="false"
     units="px"
     inkscape:showpageshadow="false"
     showguides="false"
     inkscape:guide-bbox="true"
     inkscape:snap-global="false">
    <sodipodi:guide
       position="4.2763124,6.8487818"
       orientation="1,0"
       id="guide4494"
       inkscape:locked="false" />
  </sodipodi:namedview>
  <metadata
     id="metadata5">
    <rdf:RDF>
      <cc:Work
         rdf:about="">
        <dc:format>image/svg+xml</dc:format>
        <dc:type
           rdf:resource="http://purl.org/dc/dcmitype/StillImage" />
        <dc:title />
      </cc:Work>
    </rdf:RDF>
  </metadata>
  <g
     inkscape:label="beer"
     inkscape:groupmode="layer"
     id="layer1"
     transform="translate(0,-288.26874)">
    <path
       style="opacity:1;vector-effect:none;fill:#ff9000;fill-opacity:1;fill-rule:evenodd;stroke:none;stroke-width:1.83760941px;stroke-linecap:butt;stroke-linejoin:miter;stroke-miterlimit:4;stroke-dasharray:none;stroke-dashoffset:0;stroke-opacity:1"
       d="M 16.394531 0.59765625 A 1.4766927 0.44771326 0 0 0 15.023438 1.0429688 A 1.4766927 0.44771326 0 0 0 16.5 1.4902344 A 1.4766927 0.44771326 0 0 0 17.976562 1.0429688 A 1.4766927 0.44771326 0 0 0 16.5 0.59765625 A 1.4766927 0.44771326 0 0 0 16.394531 0.59765625 z M 14.949219 2.2421875 C 14.369524 2.7617214 13.692435 3.6890409 12.878906 4.9746094 A 4.0987585 3.3293661 0 0 0 16.498047 6.7539062 A 4.0987585 3.3293661 0 0 0 20.125 4.9726562 C 19.311426 3.6873524 18.630416 2.7619859 18.050781 2.2421875 A 1.6446301 1.2854125 0 0 1 16.5 3.1425781 A 1.6446301 1.2854125 0 0 1 14.949219 2.2421875 z M 12.189453 6.1484375 C 10.973332 8.3455147 10.053952 10.676608 9.3203125 13.048828 C 9.3418558 18.635688 9.2785138 24.223132 9.3554688 29.808594 C 9.5780979 31.487498 11.470883 32.629952 13.203125 32.365234 C 14.30143 32.353896 15.400444 32.363849 16.5 32.369141 C 17.599556 32.361582 18.698573 32.34621 19.796875 32.361328 C 21.529118 32.625895 23.421905 31.48359 23.644531 29.804688 C 23.721475 24.219302 23.658106 18.631782 23.679688 13.044922 C 22.946466 10.673986 22.027569 8.3444186 20.8125 6.1484375 A 5.4721745 4.4449738 0 0 1 16.498047 7.8671875 A 5.4721745 4.4449738 0 0 1 12.189453 6.1484375 z M 11.302734 13.837891 L 13.105469 13.837891 L 14.195312 15.416016 L 15.298828 13.837891 L 15.900391 13.837891 L 17.099609 13.837891 L 17.701172 13.837891 L 18.791016 15.416016 L 19.894531 13.837891 L 21.697266 13.837891 L 19.775391 16.427734 L 21.791016 19.162109 L 19.990234 19.162109 L 18.791016 17.480469 L 17.607422 19.162109 L 17.195312 19.162109 L 15.804688 19.162109 L 15.392578 19.162109 L 14.195312 17.480469 L 13.009766 19.162109 L 11.208984 19.162109 L 13.224609 16.4375 L 11.302734 13.837891 z M 16.498047 14.648438 L 15.179688 16.427734 L 16.501953 18.220703 L 17.820312 16.4375 L 16.498047 14.648438 z "
       transform="matrix(0.26458333,0,0,0.26458333,0,288.26874)"
       id="rect4485" />
    <g
       id="g4554"
       transform="translate(-0.0440886,-0.82403415)" />
  </g>
</svg>
