<svg xmlns="http://www.w3.org/2000/svg" height="33" width="33" version="1.1" viewBox="0 0 8.7312498 8.7312502">
	<path style="fill:#ff9000;fill-rule:evenodd" d="m4.3377 0.15804a0.39071 0.11846 0 0 0 -0.3627 0.11782 0.39071 0.11846 0 0 0 0.3906 0.11834 0.39071 0.11846 0 0 0 0.3907 -0.11834 0.39071 0.11846 0 0 0 -0.3907 -0.11782 0.39071 0.11846 0 0 0 -0.027905 0zm-0.3824 0.43511c-0.1534 0.13746-0.3325 0.38281-0.5478 0.72295a1.0845 0.88089 0 0 0 0.9576 0.4708 1.0845 0.88089 0 0 0 0.9596 -0.4713c-0.2152-0.34008-0.3954-0.58492-0.5488-0.72245a0.43514 0.3401 0 0 1 -0.4103 0.23823 0.43514 0.3401 0 0 1 -0.4103 -0.23823zm-0.7302 1.0336c-0.32177 0.58131-0.56502 1.1981-0.75913 1.8257 0.0057 1.4782-0.011059 2.9565 0.0093 4.4344 0.058904 0.44421 0.5597 0.74648 1.018 0.67644 0.29059-0.003 0.58137-0.0003704 0.8723 0.00103 0.29092-0.00201 0.58171-0.00607 0.8723-0.00206 0.45832 0.07 0.95912-0.23223 1.018-0.67644 0.020357-1.4778 0.00359-2.9562 0.0093-4.4344-0.1939-0.6272-0.4371-1.2436-0.7586-1.8246a1.4478 1.1761 0 0 1 -1.1415 0.4547 1.4478 1.1761 0 0 1 -1.14 -0.4547zm-0.2346 2.0345h0.477l0.2883 0.4175 0.292-0.4175h0.6356l0.2884 0.4175 0.292-0.4175h0.4769l-0.5085 0.6852 0.5333 0.7235h-0.4764l-0.3173-0.445-0.3132 0.445h-0.586l-0.3168-0.445-0.3136 0.445h-0.4765l0.5333-0.7209zm1.3746 0.2144-0.3488 0.4708 0.3498 0.4744 0.3489-0.4718z"/>
</svg>
