<svg xmlns="http://www.w3.org/2000/svg" height="33" width="33" viewBox="0 0 8.7312498 8.7312502"><path d="M4.34.439c-.19.004-.338.051-.34.11 0 .06.163.11.365.11.2 0 .364-.05.364-.11 0-.061-.164-.11-.364-.11H4.34zm-.357.406c-.143.128-.31.357-.512.674.175.27.519.44.894.44.376 0 .721-.17.896-.44-.201-.317-.37-.546-.512-.674-.053.13-.208.22-.383.222-.176-.002-.33-.091-.383-.222zm-.682.964a8.99 8.99 0 0 0-.708 1.704c.005 1.38-.01 2.76.008 4.139.055.415.523.697.95.631.272-.003.543 0 .815.001.271-.002.543-.006.814-.002.427.066.895-.216.95-.631.019-1.38.003-2.759.009-4.139A8.991 8.991 0 0 0 5.43 1.81c-.256.268-.65.424-1.066.425-.416-.001-.809-.158-1.064-.425zm1.552 1.873h.546v3.623h-.546z" fill="#ff9000" fill-rule="evenodd"/></svg>