<svg xmlns="http://www.w3.org/2000/svg" height="33" width="33" version="1.1" viewBox="0 0 8.7312498 8.7312502">
	<path style="fill:#ff9000;fill-rule:evenodd" d="m4.3396 0.43867c-0.19039 0.004-0.33804 0.0521-0.33857 0.10996 0.000201 0.061 0.16338 0.11044 0.36462 0.11045 0.20124-0.00001 0.36442-0.0494 0.36462-0.11045-0.00108-0.0608-0.164-0.10996-0.36462-0.10996-0.00868-0.0001-0.017365-0.0001-0.026044 0zm-0.3569 0.40609c-0.14315 0.1283-0.31035 0.35728-0.51124 0.67474 0.17465 0.26967 0.51858 0.43876 0.8937 0.43937 0.37594-0.00013 0.72082-0.1695 0.89563-0.43985-0.2009-0.31739-0.36907-0.5459-0.5122-0.67426-0.052638 0.13108-0.20719 0.22081-0.38294 0.22234-0.17576-0.002-0.33031-0.0913-0.38294-0.22234zm-0.6815 0.96464c-0.3003 0.54254-0.52733 1.1182-0.7085 1.704 0.00532 1.3796-0.010322 2.7593 0.00868 4.1386 0.054975 0.41459 0.52237 0.6967 0.95013 0.63133 0.27121-0.003 0.5426-0.000344 0.81412 0.0009789 0.27152-0.00201 0.54291-0.006 0.81412-0.00201 0.42775 0.0653 0.89515-0.21675 0.95013-0.63133 0.019-1.3792 0.00335-2.759 0.00868-4.1386-0.18106-0.58548-0.40797-1.1607-0.70801-1.703-0.25557 0.26734-0.6487 0.42395-1.0654 0.42442-0.41619-0.00083-0.80869-0.1574-1.064-0.42442zm1.5516 1.8723h0.54596v3.6235h-0.5461z"/>
</svg>
