<svg xmlns="http://www.w3.org/2000/svg" version="1.1" viewBox="0 0 33 33">
	<path style="fill:#ff9000;fill-rule:evenodd" d="m23.779 7.0967c-0.7224 0-1.3027 0.58229-1.3027 1.3047v0.5097h4.9082v-0.5097c0-0.7224-0.58034-1.3047-1.3027-1.3047zm3.6055 1.8145v1.3066c0 0.7224-0.58034 1.3047-1.3027 1.3047-1.8001 0.16614-2.9262 0.02117-3.6055-1.3047v-1.3069h-17.425c-1.6302 0-2.9414 1.3132-2.9414 2.9434v11.106c0 1.6302 1.3112 2.9434 2.9414 2.9434h22.898c1.6302 0 2.9414-1.3132 2.9414-2.9434v-11.106c0-1.6302-1.3112-2.9434-2.9414-2.9434zm-22.099 1.0978h8.0098c0.67889 0 1.2266 0.54572 1.2266 1.2246 0 0.67889-0.54767 1.2266-1.2266 1.2266h-8.0098c-0.67889 0-1.2246-0.54767-1.2246-1.2266 0-0.67889 0.54572-1.2246 1.2246-1.2246zm8.9902 3.3086h4.4492c1.2386 0 2.2344 0.99573 2.2344 2.2344v4.3242c0 1.2386-0.99573 2.2344-2.2344 2.2344h-4.4492c-1.2386 0-2.2344-0.99573-2.2344-2.2344v-4.3242c0-1.2386 0.99573-2.2344 2.2344-2.2344zm2.225 1.329a3.1264 3.1264 0 0 0 -3.127 3.127 3.1264 3.1264 0 0 0 3.127 3.127 3.1264 3.1264 0 0 0 3.127 -3.127 3.1264 3.1264 0 0 0 -3.127 -3.127zm0.08203 1.4199a1.7772 1.7339 0 0 1 1.7773 1.7344 1.7772 1.7339 0 0 1 -1.7773 1.7344 1.7772 1.7339 0 0 1 -1.7773 -1.7344 1.7772 1.7339 0 0 1 1.7773 -1.7344z"/>
</svg>
