<svg xmlns="http://www.w3.org/2000/svg" viewBox="0 0 33 33"><path d="M23.779 7.097A1.3 1.3 0 0 0 22.476 8.4v.51h4.908V8.4a1.3 1.3 0 0 0-1.302-1.304zm3.606 1.814v1.307a1.3 1.3 0 0 1-1.303 1.305c-1.8.166-2.926.02-3.606-1.305V8.91H5.051a2.936 2.936 0 0 0-2.941 2.943V22.96a2.936 2.936 0 0 0 2.941 2.944H27.95a2.936 2.936 0 0 0 2.942-2.944V11.854a2.936 2.936 0 0 0-2.942-2.943zm-22.1 1.098h8.01a1.225 1.225 0 1 1 0 2.451h-8.01a1.223 1.223 0 0 1-1.224-1.226c0-.68.546-1.225 1.224-1.225zm8.99 3.309h4.45c1.238 0 2.234.995 2.234 2.234v4.324a2.229 2.229 0 0 1-2.234 2.235h-4.45a2.229 2.229 0 0 1-2.234-2.235v-4.324c0-1.239.996-2.234 2.235-2.234zm2.226 1.329a3.126 3.126 0 0 0-3.127 3.127A3.126 3.126 0 0 0 16.5 20.9a3.126 3.126 0 0 0 3.127-3.127 3.126 3.126 0 0 0-3.127-3.127zm.082 1.42A1.777 1.734 0 0 1 18.36 17.8a1.777 1.734 0 0 1-1.777 1.734 1.777 1.734 0 0 1-1.778-1.734 1.777 1.734 0 0 1 1.778-1.734z" fill="#ff9000" fill-rule="evenodd"/></svg>