<svg xmlns="http://www.w3.org/2000/svg" viewBox="0 0 33 33"><path d="M16.5 2.31A14.19 14.19 0 0 0 2.31 16.5 14.19 14.19 0 0 0 16.5 30.69 14.19 14.19 0 0 0 30.689 16.5 14.19 14.19 0 0 0 16.5 2.31zm0 10.495a3.932 3.696 0 0 1 3.932 3.696 3.932 3.696 0 0 1-3.932 3.695 3.932 3.696 0 0 1-3.932-3.695 3.932 3.696 0 0 1 3.932-3.695zm-12.617.985l7.742 1.899v1.625l-7.742 1.898zm25.234 0v5.421l-7.742-1.899v-1.625zm-12.617.678a2.034 2.034 0 0 0-2.033 2.033 2.034 2.034 0 0 0 2.033 2.033 2.034 2.034 0 0 0 2.033-2.033 2.034 2.034 0 0 0-2.033-2.033z" fill="#ff9000" fill-rule="evenodd"/></svg>