<svg xmlns="http://www.w3.org/2000/svg" version="1.1" viewBox="0 0 33 33">
	<path style="fill:#ff9000;fill-rule:evenodd" d="m16.5 2.3105a14.19 14.19 0 0 0 -14.19 14.19 14.19 14.19 0 0 0 14.19 14.189 14.19 14.19 0 0 0 14.189 -14.189 14.19 14.19 0 0 0 -14.189 -14.19zm0 10.494a3.9322 3.6963 0 0 1 3.932 3.696 3.9322 3.6963 0 0 1 -3.932 3.695 3.9322 3.6963 0 0 1 -3.932 -3.695 3.9322 3.6963 0 0 1 3.932 -3.695zm-12.617 0.985 7.7422 1.899v1.625l-7.7422 1.8984zm25.234 0v5.4219l-7.742-1.899v-1.625zm-12.617 0.678a2.0339 2.0339 0 0 0 -2.033 2.033 2.0339 2.0339 0 0 0 2.033 2.033 2.0339 2.0339 0 0 0 2.033 -2.033 2.0339 2.0339 0 0 0 -2.033 -2.033z"/>
</svg>
