<svg xmlns="http://www.w3.org/2000/svg" version="1.1" viewBox="0 0 33 33">
	<path style="fill:#ff9000;fill-rule:evenodd" d="m7.5394 2.8851c-2.078 0-3.7493 1.6732-3.7493 3.7512v19.728c0 2.078 1.6713 3.7512 3.7493 3.7512h17.922c2.078 0 3.7493-1.6732 3.7493-3.7512v-19.728c0-2.078-1.6713-3.7512-3.7493-3.7512zm1.8917 2.8728h14.138c1.6395 0 2.9602 1.3208 2.9602 2.9602v15.564c0 1.6395-1.3208 2.9602-2.9602 2.9602h-14.138c-1.6395 0-2.9602-1.3208-2.9602-2.9602v-15.564c0-1.6395 1.3208-2.9602 2.9602-2.9602zm-0.4924 0.9811c-0.61783 0-1.1141 0.29987-1.1141 0.67494v1.8822c0 0.36597 7.7288 1.5824 8.6754 1.5742 0.94662 0.0082 8.6754-1.2083 8.6754-1.5742v-1.8822c0-0.37508-0.49631-0.67494-1.1141-0.67494h-7.562zm6.2475 0.29279h2.6275c0.31389 0 0.56657 0.25268 0.56657 0.56657v1.1769c0 0.31389-0.25268 0.56657-0.56657 0.56657h-2.6275c-0.31389 0-0.56657-0.25268-0.56657-0.56657v-1.177c0-0.31389 0.25268-0.56657 0.56657-0.56657zm-4.753 6.8542c-0.57 0-1.0286 0.45858-1.0286 1.0286v0.42588c0 0.57 0.45858 1.0286 1.0286 1.0286h12.134c0.57 0 1.0286-0.45858 1.0286-1.0286v-0.42588c0-0.57-0.45858-1.0286-1.0286-1.0286zm1.6921 3.7588c-0.31389 0-0.56657 0.25268-0.56657 0.56657v1.175c0 0.31389 0.25268 0.56657 0.56657 0.56657h8.7496c0.31389 0 0.56657-0.25268 0.56657-0.56657v-1.175c0-0.31389-0.25268-0.56657-0.56657-0.56657zm-1.6921 3.5839c-0.57 0-1.0286 0.45858-1.0286 1.0286v0.42588c0 0.57 0.45858 1.0286 1.0286 1.0286h12.134c0.57 0 1.0286-0.45858 1.0286-1.0286v-0.42588c0-0.57-0.45858-1.0286-1.0286-1.0286z"/>
</svg>
