<svg xmlns="http://www.w3.org/2000/svg" viewBox="0 0 33 33"><path d="M7.54 2.885a3.742 3.742 0 0 0-3.75 3.751v19.728a3.742 3.742 0 0 0 3.75 3.751h17.92a3.742 3.742 0 0 0 3.75-3.75V6.635a3.742 3.742 0 0 0-3.75-3.75zm1.89 2.873h14.14c1.64 0 2.96 1.32 2.96 2.96v15.564c0 1.64-1.32 2.96-2.96 2.96H9.431c-1.64 0-2.96-1.32-2.96-2.96V8.718c0-1.64 1.32-2.96 2.96-2.96zm-.492.981c-.618 0-1.114.3-1.114.675v1.882c0 .366 7.728 1.583 8.675 1.574.947.009 8.675-1.208 8.675-1.574V7.414c0-.375-.496-.675-1.114-.675H16.5zm6.247.293h2.628c.314 0 .566.252.566.566v1.177a.565.565 0 0 1-.566.567h-2.628a.565.565 0 0 1-.566-.567V7.598c0-.314.252-.566.566-.566zm-4.753 6.854c-.57 0-1.028.459-1.028 1.029v.425c0 .57.458 1.03 1.028 1.03h12.134c.57 0 1.029-.46 1.029-1.03v-.425c0-.57-.459-1.029-1.029-1.029zm1.692 3.759a.565.565 0 0 0-.566.566v1.175c0 .314.252.567.566.567h8.75a.565.565 0 0 0 .566-.567v-1.175a.565.565 0 0 0-.566-.566zm-1.692 3.584c-.57 0-1.028.458-1.028 1.028v.426c0 .57.458 1.029 1.028 1.029h12.134c.57 0 1.029-.459 1.029-1.029v-.426c0-.57-.459-1.028-1.029-1.028z" fill="#ff9000" fill-rule="evenodd"/></svg>