<svg xmlns="http://www.w3.org/2000/svg" version="1.1" viewBox="0 0 33 33">
	<path style="fill:#ff8000" d="m7.7112 4.9363c-1.4489 0-2.5709 1.1654-2.5156 2.6133l0.28711 7.5332c0.055281 1.4479 1.2679 2.6133 2.7168 2.6133h18.964c1.4489 0 2.5709-1.1654 2.5156-2.6133l-0.287-7.5334c-0.055-1.4479-1.266-2.6133-2.715-2.6133zm3.2402 2.125h12.648c0.96626 0 1.7737 0.77663 1.8105 1.7422l0.19141 5.0254c0.03686 0.96556-0.71147 1.7422-1.6777 1.7422h-12.645c-0.96626 0-1.7756-0.77663-1.8125-1.7422l-0.1918-5.0255c-0.0369-0.9656 0.7114-1.7422 1.6773-1.7422zm-1.8433 13.23c-1.5366 0-3.1558-0.79252-3.6309-0.0071l-3.0996 5.125c-0.47504 0.78538 0.37945 2.6547 1.916 2.6547h18.557c1.5366 0 3.1558-1.8693 3.6309-2.6547l4.2008-5.8376c0.47503-0.78538-1.4807 0.71965-3.0172 0.71965zm-0.1133-0.718h1.2422c0.43718 0 0.66255 0.178 0.50586 0.39844l-0.58984 0.83008c-0.1571 0.221-0.6336 0.397-1.0707 0.397h-1.2442c-0.43718 0-0.66255-0.17604-0.50586-0.39648l0.5899-0.831c0.1567-0.22 0.6351-0.398 1.0723-0.398zm4.3066 0h1.242c0.43718 0 0.66255 0.178 0.50586 0.39844l-0.58984 0.83008c-0.15669 0.22044-0.63509 0.39648-1.0723 0.39648h-1.2422c-0.43718 0-0.66255-0.17604-0.50586-0.39648l0.58984-0.83008c0.15669-0.22044 0.63509-0.39844 1.0723-0.39844zm4.3066 0h1.2422c0.43718 0 0.66255 0.178 0.50586 0.39844l-0.58789 0.83008c-0.15669 0.22044-0.63509 0.39648-1.0723 0.39648h-1.2422c-0.43718 0-0.66255-0.17604-0.50586-0.39648l0.58789-0.83008c0.15669-0.22044 0.63509-0.39844 1.0723-0.39844zm4.3086 0h1.2422c0.43718 0 0.66255 0.178 0.50586 0.39844l-0.58984 0.83008c-0.15669 0.22044-0.63509 0.39648-1.0723 0.39648h-1.2422c-0.43718 0-0.66255-0.17604-0.50586-0.39648l0.58984-0.83008c0.15669-0.22044 0.63509-0.39844 1.0723-0.39844zm-12.184 2.469h1.2422c0.43718 0 0.66255 0.178 0.50586 0.39844l-0.58984 0.82812c-0.15669 0.22044-0.63314 0.39844-1.0703 0.39844h-1.2443c-0.43718 0-0.66255-0.17799-0.50586-0.39844l0.58984-0.82812c0.15669-0.22044 0.63509-0.39844 1.0723-0.39844zm4.3066 0h1.2422c0.43718 0 0.66255 0.178 0.50586 0.39844l-0.58984 0.82812c-0.15669 0.22044-0.63509 0.39844-1.0723 0.39844h-1.2422c-0.43718 0-0.66255-0.17799-0.50586-0.39844l0.58984-0.82812c0.15669-0.22044 0.63509-0.39844 1.0723-0.39844zm4.3066 0h1.2422c0.43718 0 0.66255 0.178 0.50586 0.39844l-0.58789 0.82812c-0.15669 0.22044-0.63509 0.39844-1.0723 0.39844h-1.2422c-0.43718 0-0.66255-0.17799-0.50586-0.39844l0.58789-0.82812c0.15669-0.22044 0.63509-0.39844 1.0723-0.39844zm4.3086 0h1.2422c0.43718 0 0.66255 0.178 0.50586 0.39844l-0.58984 0.82812c-0.15669 0.22044-0.63509 0.39844-1.0723 0.39844h-1.2422c-0.43718 0-0.66255-0.17799-0.50586-0.39844l0.58984-0.82812c0.15669-0.22044 0.63509-0.39844 1.0723-0.39844zm-13 2.361h11.032c0.4381 0 0.66388 0.178 0.50391 0.39844l-0.60352 0.82812c-0.15997 0.22044-0.64003 0.39844-1.0781 0.39844h-11.033c-0.4381 0-0.66388-0.17799-0.50391-0.39844l0.60352-0.82812c0.15997-0.22044 0.64198-0.39844 1.0801-0.39844zm-3.9258 0.01172h1.2422c0.43718 0 0.66255 0.17604 0.50586 0.39648l-0.5899 0.83c-0.1566 0.221-0.635 0.399-1.0722 0.399h-1.2422c-0.43718 0-0.6606-0.178-0.50391-0.39844l0.5879-0.831c0.15669-0.22044 0.63509-0.39648 1.0723-0.39648zm17.676 0h1.2441c0.43718 0 0.66255 0.17604 0.50586 0.39648l-0.58984 0.83008c-0.15669 0.22044-0.63509 0.39844-1.0723 0.39844h-1.2402c-0.43717 0-0.6645-0.178-0.50781-0.39844l0.58984-0.83008c0.15669-0.22044 0.63314-0.39648 1.0703-0.39648z"/>
</svg>
