<svg xmlns="http://www.w3.org/2000/svg" viewBox="0 0 33 33"><path d="M7.711 4.936A2.492 2.492 0 0 0 5.196 7.55l.287 7.533A2.734 2.734 0 0 0 8.2 17.696h18.964a2.492 2.492 0 0 0 2.515-2.613l-.287-7.534a2.732 2.732 0 0 0-2.715-2.613zm3.24 2.125H23.6a1.82 1.82 0 0 1 1.81 1.743l.192 5.025a1.662 1.662 0 0 1-1.677 1.742H11.279a1.823 1.823 0 0 1-1.813-1.742l-.192-5.026a1.661 1.661 0 0 1 1.678-1.742zm-1.843 13.23c-1.537 0-3.156-.792-3.63-.007l-3.1 5.125c-.475.786.379 2.655 1.916 2.655H22.85c1.536 0 3.155-1.87 3.63-2.655l4.201-5.837c.475-.786-1.48.72-3.017.72zm-.113-.718h1.242c.437 0 .663.178.506.399l-.59.83c-.157.22-.634.397-1.07.397H7.837c-.437 0-.662-.176-.506-.397l.59-.83c.157-.22.635-.399 1.072-.399zm4.306 0h1.242c.438 0 .663.178.506.399l-.59.83c-.156.22-.635.396-1.072.396h-1.242c-.437 0-.663-.176-.506-.396l.59-.83c.157-.22.635-.399 1.072-.399zm4.307 0h1.242c.437 0 .663.178.506.399l-.588.83c-.157.22-.635.396-1.072.396h-1.242c-.438 0-.663-.176-.506-.396l.588-.83c.156-.22.635-.399 1.072-.399zm4.309 0h1.242c.437 0 .662.178.506.399l-.59.83c-.157.22-.635.396-1.072.396H20.76c-.437 0-.662-.176-.506-.396l.59-.83c.157-.22.635-.399 1.073-.399zm-12.184 2.47h1.242c.437 0 .662.177.506.398l-.59.828c-.157.22-.633.398-1.07.398H8.576c-.437 0-.662-.178-.506-.398l.59-.828c.157-.22.635-.399 1.073-.399zm4.306 0h1.242c.438 0 .663.177.506.398l-.59.828c-.156.22-.635.398-1.072.398h-1.242c-.437 0-.663-.178-.506-.398l.59-.828c.157-.22.635-.399 1.072-.399zm4.307 0h1.242c.437 0 .663.177.506.398l-.588.828c-.157.22-.635.398-1.072.398H17.19c-.437 0-.662-.178-.505-.398l.588-.828c.156-.22.635-.399 1.072-.399zm4.308 0h1.243c.437 0 .662.177.505.398l-.59.828c-.156.22-.634.398-1.072.398h-1.242c-.437 0-.662-.178-.506-.398l.59-.828c.157-.22.635-.399 1.072-.399zm-13 2.36h11.032c.439 0 .664.178.504.399l-.603.828c-.16.22-.64.398-1.078.398H8.476c-.438 0-.664-.178-.504-.398l.603-.828c.16-.22.642-.399 1.08-.399zm-3.925.012H6.97c.437 0 .662.176.506.397l-.59.83c-.157.22-.635.399-1.072.399H4.572c-.437 0-.66-.178-.504-.399l.588-.83c.157-.221.635-.397 1.073-.397zm17.676 0h1.244c.437 0 .662.176.506.397l-.59.83c-.157.22-.635.398-1.073.398h-1.24c-.437 0-.664-.178-.508-.398l.59-.83c.157-.22.633-.397 1.07-.397z" fill="#ff8000"/></svg>