<?xml version="1.0" encoding="UTF-8" standalone="no"?>
<!-- Created with Inkscape (http://www.inkscape.org/) -->

<svg
   xmlns:dc="http://purl.org/dc/elements/1.1/"
   xmlns:cc="http://creativecommons.org/ns#"
   xmlns:rdf="http://www.w3.org/1999/02/22-rdf-syntax-ns#"
   xmlns:svg="http://www.w3.org/2000/svg"
   xmlns="http://www.w3.org/2000/svg"
   xmlns:sodipodi="http://sodipodi.sourceforge.net/DTD/sodipodi-0.dtd"
   xmlns:inkscape="http://www.inkscape.org/namespaces/inkscape"
   version="1.1"
   id="svg2"
   width="32"
   height="32"
   viewBox="0 0 32 32"
   sodipodi:docname="computer.svg"
   inkscape:version="0.92.1 unknown"
   inkscape:export-filename="/home/kibo/Kibojoe-Linux/Manjaro/pngs/kbd.png"
   inkscape:export-xdpi="96"
   inkscape:export-ydpi="96">
  <metadata
     id="metadata8">
    <rdf:RDF>
      <cc:Work
         rdf:about="">
        <dc:format>image/svg+xml</dc:format>
        <dc:type
           rdf:resource="http://purl.org/dc/dcmitype/StillImage" />
        <dc:title></dc:title>
      </cc:Work>
    </rdf:RDF>
  </metadata>
  <defs
     id="defs6" />
  <sodipodi:namedview
     pagecolor="#ffffff"
     bordercolor="#666666"
     borderopacity="1"
     objecttolerance="10"
     gridtolerance="10"
     guidetolerance="10"
     inkscape:pageopacity="0"
     inkscape:pageshadow="2"
     inkscape:window-width="640"
     inkscape:window-height="480"
     id="namedview4"
     showgrid="false"
     inkscape:zoom="3.859375"
     inkscape:cx="0.054191279"
     inkscape:cy="22.350791"
     inkscape:current-layer="layer1"
     inkscape:snap-global="false" />
  <g
     inkscape:groupmode="layer"
     id="layer1"
     inkscape:label="icon">
    <path
       style="fill:#ff8000;fill-opacity:1;stroke:none;stroke-width:0.87144136;stroke-miterlimit:4;stroke-dasharray:none;stroke-opacity:1"
       d="m 7.7324219,5.0546875 c -1.4489438,0 -2.5709058,1.1653924 -2.515625,2.6132812 l 0.2871093,7.5332023 c 0.055281,1.447888 1.2678531,2.613282 2.7167969,2.613282 H 27.185547 c 1.448944,0 2.570906,-1.165394 2.515625,-2.613282 L 29.414063,7.6679687 C 29.358783,6.22008 28.148162,5.0546875 26.699219,5.0546875 Z m 3.2402341,2.125 h 12.648438 c 0.966259,0 1.773692,0.776631 1.810547,1.7421875 l 0.191406,5.025391 c 0.03686,0.965556 -0.711474,1.742188 -1.677734,1.742188 H 11.298828 c -0.96626,0 -1.7756399,-0.776632 -1.8124999,-1.742188 L 9.2949219,8.921875 C 9.2580567,7.9563183 10.006397,7.1796875 10.972656,7.1796875 Z M 9.1289062,20.409476 c -1.5365681,0 -3.1558235,-0.792517 -3.6308593,-0.0071 l -3.0996094,5.125 c -0.4750358,0.785384 0.3794474,2.65469 1.9160156,2.65469 H 22.871094 c 1.536569,0 3.155823,-1.869306 3.630859,-2.65469 l 4.200825,-5.837551 c 0.475034,-0.785384 -1.48066,0.719651 -3.017231,0.719651 z M 9.015625,19.691406 h 1.242187 c 0.437176,0 0.66255,0.177995 0.50586,0.398437 l -0.589844,0.830078 c -0.156691,0.220442 -0.6331365,0.396485 -1.0703124,0.396485 H 7.859375 c -0.4371757,0 -0.6625498,-0.176043 -0.5058594,-0.396485 l 0.5898438,-0.830078 c 0.15669,-0.220441 0.6350896,-0.398437 1.0722656,-0.398437 z m 4.306641,0 h 1.242187 c 0.437175,0 0.662551,0.177995 0.50586,0.398437 l -0.589844,0.830078 c -0.156691,0.220442 -0.635093,0.396485 -1.072266,0.396485 h -1.242187 c -0.437177,0 -0.662551,-0.176043 -0.50586,-0.396485 L 12.25,20.089843 c 0.156691,-0.220441 0.635091,-0.398437 1.072266,-0.398437 z m 4.30664,0 h 1.242188 c 0.437175,0 0.66255,0.177995 0.505859,0.398437 l -0.58789,0.830078 c -0.156691,0.220442 -0.63509,0.396485 -1.072266,0.396485 h -1.242188 c -0.437177,0 -0.66255,-0.176043 -0.505859,-0.396485 l 0.587891,-0.830078 c 0.15669,-0.220441 0.635089,-0.398437 1.072265,-0.398437 z m 4.308594,0 h 1.242187 c 0.437177,0 0.662551,0.177995 0.50586,0.398437 l -0.589844,0.830078 c -0.156691,0.220442 -0.63509,0.396485 -1.072266,0.396485 H 20.78125 c -0.437175,0 -0.662549,-0.176043 -0.505859,-0.396485 l 0.589843,-0.830078 c 0.15669,-0.220441 0.635091,-0.398437 1.072266,-0.398437 z m -12.1835938,2.46875 h 1.2421878 c 0.437176,0 0.662549,0.177995 0.505859,0.398437 l -0.589844,0.828125 c -0.156689,0.220443 -0.633135,0.398438 -1.0703121,0.398438 H 8.5976562 c -0.437176,0 -0.6625495,-0.177995 -0.5058593,-0.398438 l 0.5898437,-0.828125 c 0.156691,-0.220441 0.6350888,-0.398437 1.0722656,-0.398437 z m 4.3066408,0 h 1.242187 c 0.437176,0 0.662548,0.177995 0.50586,0.398437 l -0.589844,0.828125 c -0.156688,0.220443 -0.635091,0.398438 -1.072266,0.398438 h -1.242187 c -0.437177,0 -0.662549,-0.177995 -0.50586,-0.398438 l 0.589844,-0.828125 c 0.156686,-0.220441 0.63509,-0.398437 1.072266,-0.398437 z m 4.30664,0 h 1.242188 c 0.437176,0 0.662548,0.177995 0.505859,0.398437 l -0.58789,0.828125 c -0.15669,0.220443 -0.635091,0.398438 -1.072266,0.398438 h -1.242187 c -0.437175,0 -0.66255,-0.177995 -0.50586,-0.398438 l 0.587891,-0.828125 c 0.15669,-0.220441 0.63509,-0.398437 1.072265,-0.398437 z m 4.308594,0 h 1.242188 c 0.437175,0 0.662549,0.177995 0.505859,0.398437 l -0.589844,0.828125 c -0.15669,0.220443 -0.635088,0.398438 -1.072265,0.398438 h -1.242188 c -0.437176,0 -0.662548,-0.177995 -0.505859,-0.398438 l 0.589844,-0.828125 c 0.15669,-0.220441 0.635089,-0.398437 1.072265,-0.398437 z M 9.6757812,24.521484 H 20.707031 c 0.438097,0 0.66388,0.177995 0.503906,0.398437 l -0.603515,0.828125 c -0.159974,0.220443 -0.640027,0.398438 -1.078125,0.398438 H 8.4960938 c -0.438097,0 -0.6638791,-0.177995 -0.5039063,-0.398438 l 0.6035156,-0.828125 c 0.159973,-0.220442 0.6419813,-0.398437 1.0800781,-0.398437 z M 5.75,24.533203 h 1.2421875 c 0.4371758,0 0.6625501,0.176041 0.5058594,0.396484 L 6.9082031,25.759765 C 6.7515128,25.980208 6.2731133,26.158203 5.8359375,26.158203 H 4.59375 c -0.4371757,0 -0.6605969,-0.177995 -0.5039062,-0.398438 L 4.6777344,24.929687 C 4.8344254,24.709243 5.3128243,24.533203 5.75,24.533203 Z m 17.675781,0 h 1.244141 c 0.437176,0 0.662548,0.176041 0.505859,0.396484 l -0.589844,0.830078 c -0.15669,0.220442 -0.635089,0.398438 -1.072265,0.398438 h -1.240235 c -0.437174,0 -0.664503,-0.177996 -0.507812,-0.398438 l 0.589844,-0.830078 c 0.15669,-0.220443 0.633135,-0.396484 1.070312,-0.396484 z"
       id="rect4489"
       inkscape:connector-curvature="0"
       sodipodi:nodetypes="sccssccssssccssccssccssccssssccssccsssccssccsssccssccsssccssccsssccssccsssccssccsssccssccsssccssccsssccssccsssccssccsssccssccs" />
  </g>
</svg>
