<svg xmlns="http://www.w3.org/2000/svg" version="1.1" viewBox="0 0 33 33">
	<path style="fill:#ff9000" d="m16.256 2.3668a14.137 7.9689 88.486 0 0 -5.485 3.9804 14.137 7.9689 88.486 0 0 -1.0151 2.2637 7.5291 4.7863 4.2978 0 1 7.2711 -2.2051 7.5291 4.7863 4.2978 0 1 6.026 2.8399 5.521 9.7943 43.486 0 0 -4.002 -0.6192 7.9689 14.137 88.486 0 0 -1.526 -0.0859 7.9689 14.137 88.486 0 0 -3.994 0.2324 9.7943 5.521 43.486 0 0 -4.1189 0.9766 7.9689 14.137 88.486 0 0 -2.7441 1.2014 7.9689 14.137 88.486 0 0 -0.3203 11.277 7.9689 14.137 88.486 0 0 2.2636 1.016 4.7863 7.5291 4.2978 0 1 -2.2051 -7.272 4.7863 7.5291 4.2978 0 1 2.8418 -6.0271 9.7943 5.521 43.486 0 0 -0.61914 4.0137 14.137 7.9689 88.486 0 0 0.14648 5.498 5.521 9.7943 43.486 0 0 5.1895 4.9141 7.9689 14.137 88.486 0 0 5.4844 -0.14453 9.7943 5.521 43.486 0 0 4.0938 -0.92187 9.7943 5.521 43.486 0 0 0.83008 -4.2578 14.137 7.9689 88.486 0 0 -0.144 -5.505 5.521 9.7943 43.486 0 0 -0.979 -4.1313 14.137 7.9689 88.486 0 0 -1.201 -2.7421 14.137 7.9689 88.486 0 0 -5.793 -4.3008zm7.6621 7.2227a4.8479 7.6207 3.9095 0 1 2.6113 7.6367 4.8479 7.6207 3.9095 0 1 -2.6484 5.9316 7.9689 14.137 88.486 0 0 2.4512 -1.1094 7.9689 14.137 88.486 0 0 0.32031 -11.277 7.9689 14.137 88.486 0 0 -2.7344 -1.1816zm-7.8164 0.0918c2.1989 0 3.8758 0.30038 5.0293 0.89844 1.1535 0.59208 1.7305 1.4593 1.7305 2.6016 0 0.5861-0.17589 1.1116-0.52734 1.5781-0.35146 0.46051-0.95173 0.95796-1.7988 1.4902l-0.86523 0.50977c-0.6128 0.3708-1.0139 0.67117-1.2031 0.89844-0.18925 0.22128-0.2832 0.46525-0.2832 0.73438v0.4043h-4.8809v-0.43945c0-0.49041 0.14988-0.924 0.44727-1.3008 0.29739-0.38276 0.92367-0.86703 1.8789-1.4531l0.86523-0.52148c0.51367-0.31099 0.88679-0.6038 1.1211-0.87891 0.24332-0.27511 0.36523-0.54911 0.36523-0.82422 0-0.41864-0.21588-0.74527-0.64844-0.97852-0.43256-0.23922-1.0375-0.35938-1.8125-0.35938-0.72995 0-1.5181 0.1033-2.3652 0.30664-0.8471 0.19736-1.7292 0.492-2.6484 0.88672v-2.8164c1.0904-0.25118 2.0852-0.43703 2.9863-0.55664 0.90117-0.11961 1.7713-0.17969 2.6094-0.17969zm-2.7988 10.443h4.8809v3.1934h-4.8809zm-3.4612 3.756a14.137 7.9689 88.486 0 0 1.1094 2.4512 14.137 7.9689 88.486 0 0 11.277 0.32031 14.137 7.9689 88.486 0 0 1.1816 -2.7344 7.6207 4.8479 3.9095 0 1 -7.6367 2.6113 7.6207 4.8479 3.9095 0 1 -5.9316 -2.6484z"/>
</svg>
