<svg xmlns="http://www.w3.org/2000/svg" viewBox="0 0 33 33"><path d="M16.256 2.367a14.137 7.969 88.486 0 0-5.485 3.98 14.137 7.969 88.486 0 0-1.015 2.264 7.53 4.786 4.298 0 1 7.271-2.205 7.53 4.786 4.298 0 1 6.026 2.84 5.521 9.794 43.486 0 0-4.002-.62 7.969 14.137 88.486 0 0-1.526-.085 7.969 14.137 88.486 0 0-3.994.232 9.794 5.521 43.486 0 0-4.119.977 7.969 14.137 88.486 0 0-2.744 1.201 7.969 14.137 88.486 0 0-.32 11.277 7.969 14.137 88.486 0 0 2.263 1.016 4.786 7.53 4.298 0 1-2.205-7.272 4.786 7.53 4.298 0 1 2.842-6.027 9.794 5.521 43.486 0 0-.62 4.014 14.137 7.969 88.486 0 0 .147 5.498 5.521 9.794 43.486 0 0 5.19 4.914 7.969 14.137 88.486 0 0 5.484-.145 9.794 5.521 43.486 0 0 4.094-.922 9.794 5.521 43.486 0 0 .83-4.257 14.137 7.969 88.486 0 0-.144-5.505 5.521 9.794 43.486 0 0-.979-4.132 14.137 7.969 88.486 0 0-1.2-2.742 14.137 7.969 88.486 0 0-5.794-4.3zm7.662 7.223a4.848 7.62 3.91 0 1 2.611 7.636 4.848 7.62 3.91 0 1-2.648 5.932 7.969 14.137 88.486 0 0 2.451-1.11 7.969 14.137 88.486 0 0 .32-11.277 7.969 14.137 88.486 0 0-2.734-1.181zm-7.816.091c2.199 0 3.876.3 5.029.899 1.153.592 1.73 1.459 1.73 2.601a2.55 2.55 0 0 1-.527 1.578c-.351.46-.952.958-1.799 1.49l-.865.51c-.613.371-1.014.672-1.203.899-.19.221-.283.465-.283.734v.405h-4.881v-.44c0-.49.15-.924.447-1.3.298-.383.924-.868 1.88-1.454l.864-.521c.514-.311.887-.604 1.121-.88.244-.274.366-.548.366-.823 0-.42-.216-.746-.649-.979-.432-.24-1.037-.36-1.812-.36-.73 0-1.518.104-2.365.307a15.84 15.84 0 0 0-2.649.887v-2.816a32.427 32.427 0 0 1 2.986-.557c.902-.12 1.772-.18 2.61-.18zm-2.8 10.443h4.882v3.194h-4.881zm-3.46 3.756a14.137 7.969 88.486 0 0 1.11 2.451 14.137 7.969 88.486 0 0 11.276.32 14.137 7.969 88.486 0 0 1.182-2.734 7.62 4.848 3.91 0 1-7.637 2.612 7.62 4.848 3.91 0 1-5.932-2.649z" fill="#ff9000"/></svg>