<?xml version="1.0" encoding="UTF-8" standalone="no"?>
<!-- Created with Inkscape (http://www.inkscape.org/) -->

<svg
   xmlns:dc="http://purl.org/dc/elements/1.1/"
   xmlns:cc="http://creativecommons.org/ns#"
   xmlns:rdf="http://www.w3.org/1999/02/22-rdf-syntax-ns#"
   xmlns:svg="http://www.w3.org/2000/svg"
   xmlns="http://www.w3.org/2000/svg"
   xmlns:sodipodi="http://sodipodi.sourceforge.net/DTD/sodipodi-0.dtd"
   xmlns:inkscape="http://www.inkscape.org/namespaces/inkscape"
   version="1.1"
   id="svg2"
   width="32"
   height="32"
   viewBox="0 0 32 32"
   sodipodi:docname="driver.svg"
   inkscape:version="0.92.1 r"
   inkscape:export-filename="/home/kibo/Kibojoe-Linux/Manjaro/pngs/driver.png"
   inkscape:export-xdpi="96"
   inkscape:export-ydpi="96">
  <metadata
     id="metadata8">
    <rdf:RDF>
      <cc:Work
         rdf:about="">
        <dc:format>image/svg+xml</dc:format>
        <dc:type
           rdf:resource="http://purl.org/dc/dcmitype/StillImage" />
        <dc:title />
      </cc:Work>
    </rdf:RDF>
  </metadata>
  <defs
     id="defs6" />
  <sodipodi:namedview
     pagecolor="#ffffff"
     bordercolor="#666666"
     borderopacity="1"
     objecttolerance="10"
     gridtolerance="10"
     guidetolerance="10"
     inkscape:pageopacity="0"
     inkscape:pageshadow="2"
     inkscape:window-width="640"
     inkscape:window-height="480"
     id="namedview4"
     showgrid="false"
     inkscape:zoom="7.71875"
     inkscape:cx="3.665784"
     inkscape:cy="17.298799"
     inkscape:current-layer="layer1" />
  <g
     inkscape:groupmode="layer"
     id="layer1"
     inkscape:label="icon"
     style="display:inline">
    <path
       style="fill:#ff9100;fill-opacity:1;stroke:none"
       d="M 19.219726,2.6621092 A 4.4048581,10.105263 0 0 1 15.821289,6.347656 4.4048581,10.105263 0 0 1 12.448242,2.7441404 13.732794,13.732794 0 0 0 8.850586,4.2988279 10.105263,4.4048581 45 0 1 8.9951173,9.175781 10.105263,4.4048581 45 0 1 4.1806642,9.0624998 13.732794,13.732794 0 0 0 2.7041016,12.6875 10.105263,4.4048581 0 0 1 6.1689454,16 10.105263,4.4048581 0 0 1 2.7021485,19.316406 13.732794,13.732794 0 0 0 4.1826173,22.9375 4.4048581,10.105263 45 0 1 7.381836,22.181641 a 4.4048581,10.105263 45 0 1 1.6132813,0.642578 4.4048581,10.105263 45 0 1 -0.1367188,4.876953 13.732794,13.732794 0 0 0 3.5976555,1.546875 4.4048581,10.105263 0 0 1 3.365235,-3.595703 4.4048581,10.105263 0 0 1 3.398437,3.685547 13.732794,13.732794 0 0 0 3.650391,-1.458985 10.105263,4.4048581 45 0 1 -0.22461,-5.054687 10.105263,4.4048581 45 0 1 1.777344,-0.648438 10.105263,4.4048581 45 0 1 3.339844,0.90625 13.732794,13.732794 0 0 0 1.527344,-3.632812 A 10.105263,4.4048581 0 0 1 25.471679,16 10.105263,4.4048581 0 0 1 29.297851,12.554687 13.732794,13.732794 0 0 0 27.766601,8.9199217 4.4048581,10.105263 45 0 1 22.645507,9.175781 4.4048581,10.105263 45 0 1 22.874023,4.1171873 13.732794,13.732794 0 0 0 19.219726,2.6621092 Z M 16.014648,10.429687 A 5.5708504,5.5708504 0 0 1 21.584961,16 5.5708504,5.5708504 0 0 1 16.014648,21.570313 5.5708504,5.5708504 0 0 1 10.444336,16 5.5708504,5.5708504 0 0 1 16.014648,10.429687 Z"
       id="path4487"
       inkscape:connector-curvature="0" />
    <path
       inkscape:connector-curvature="0"
       id="path4549"
       d="m 17.180789,11.108518 a 1.6154193,3.7059621 0 0 1 -1.246329,1.351622 1.6154193,3.7059621 0 0 1 -1.237017,-1.321539 5.0363077,5.0363077 0 0 0 -1.319389,0.57016 3.7059621,1.6154193 45 0 1 0.053,1.788553 3.7059621,1.6154193 45 0 1 -1.765632,-0.04154 5.0363077,5.0363077 0 0 0 -0.541509,1.329418 A 3.7059621,1.6154193 0 0 1 12.3946,16 a 3.7059621,1.6154193 0 0 1 -1.271399,1.216245 5.0363077,5.0363077 0 0 0 0.542941,1.327985 1.6154193,3.7059621 45 0 1 1.173268,-0.277201 1.6154193,3.7059621 45 0 1 0.591648,0.235657 1.6154193,3.7059621 45 0 1 -0.05014,1.788553 5.0363077,5.0363077 0 0 0 1.319389,0.567295 1.6154193,3.7059621 0 0 1 1.234152,-1.318673 1.6154193,3.7059621 0 0 1 1.246329,1.351622 5.0363077,5.0363077 0 0 0 1.338729,-0.535062 3.7059621,1.6154193 45 0 1 -0.08237,-1.853735 3.7059621,1.6154193 45 0 1 0.651816,-0.237806 3.7059621,1.6154193 45 0 1 1.224841,0.332355 5.0363077,5.0363077 0 0 0 0.560131,-1.332283 A 3.7059621,1.6154193 0 0 1 19.473604,16 a 3.7059621,1.6154193 0 0 1 1.403194,-1.26352 5.0363077,5.0363077 0 0 0 -0.561564,-1.332998 1.6154193,3.7059621 45 0 1 -1.878089,0.09383 1.6154193,3.7059621 45 0 1 0.0838,-1.855167 5.0363077,5.0363077 0 0 0 -1.340161,-0.533629 z m -1.175417,2.848649 A 2.0430305,2.0430305 0 0 1 18.048205,16 2.0430305,2.0430305 0 0 1 16.005372,18.042833 2.0430305,2.0430305 0 0 1 13.962539,16 2.0430305,2.0430305 0 0 1 16.005372,13.957167 Z"
       style="fill:#ff9100;fill-opacity:1;stroke:none;stroke-width:0.36673585" />
  </g>
</svg>
