<svg xmlns="http://www.w3.org/2000/svg" version="1.1" viewBox="0 0 33 33">
	<g transform="translate(0,1)">
		<path style="fill:#ff9100" d="m19.719 2.1621a4.4049 10.105 0 0 1 -3.399 3.6856 4.4049 10.105 0 0 1 -3.373 -3.6036 13.733 13.733 0 0 0 -3.5954 1.5547 10.105 4.4049 45 0 1 0.1445 4.877 10.105 4.4049 45 0 1 -4.8145 -0.1133 13.733 13.733 0 0 0 -1.4765 3.6255 10.105 4.4049 0 0 1 3.4648 3.312 10.105 4.4049 0 0 1 -3.4668 3.316 13.733 13.733 0 0 0 1.4805 3.622 4.4049 10.105 45 0 1 3.1992 -0.75586 4.4049 10.105 45 0 1 1.6133 0.64258 4.4049 10.105 45 0 1 -0.13672 4.877 13.733 13.733 0 0 0 3.5957 1.5469 4.4049 10.105 0 0 1 3.3652 -3.5957 4.4049 10.105 0 0 1 3.3984 3.6855 13.733 13.733 0 0 0 3.6504 -1.459 10.105 4.4049 45 0 1 -0.22461 -5.0547 10.105 4.4049 45 0 1 1.7773 -0.64844 10.105 4.4049 45 0 1 3.3398 0.90625 13.733 13.733 0 0 0 1.5273 -3.6328 10.105 4.4049 0 0 1 -3.817 -3.45 10.105 4.4049 0 0 1 3.826 -3.445 13.733 13.733 0 0 0 -1.531 -3.6351 4.4049 10.105 45 0 1 -5.121 0.2559 4.4049 10.105 45 0 1 0.228 -5.0586 13.733 13.733 0 0 0 -3.654 -1.4551zm-3.205 7.7676a5.5709 5.5709 0 0 1 5.572 5.5703 5.5709 5.5709 0 0 1 -5.572 5.57 5.5709 5.5709 0 0 1 -5.569 -5.57 5.5709 5.5709 0 0 1 5.569 -5.5703zm1.168 0.67969a1.6154 3.706 0 0 1 -1.248 1.3516 1.6154 3.706 0 0 1 -1.2363 -1.3223 5.0363 5.0363 0 0 0 -1.3184 0.57031 3.706 1.6154 45 0 1 0.05274 1.7891 3.706 1.6154 45 0 1 -1.7656 -0.04297 5.0363 5.0363 0 0 0 -0.54297 1.3301 3.706 1.6154 0 0 1 1.2715 1.2148 3.706 1.6154 0 0 1 -1.2715 1.2168 5.0363 5.0363 0 0 0 0.54297 1.3281 1.6154 3.706 45 0 1 1.1738 -0.27734 1.6154 3.706 45 0 1 0.5918 0.23438 1.6154 3.706 45 0 1 -0.05078 1.7891 5.0363 5.0363 0 0 0 1.3203 0.56836 1.6154 3.706 0 0 1 1.2324 -1.3203 1.6154 3.706 0 0 1 1.248 1.3516 5.0363 5.0363 0 0 0 1.3379 -0.53516 3.706 1.6154 45 0 1 -0.08203 -1.8535 3.706 1.6154 45 0 1 0.65234 -0.23633 3.706 1.6154 45 0 1 1.2246 0.33203 5.0363 5.0363 0 0 0 0.558 -1.331 3.706 1.6154 0 0 1 -1.4 -1.266 3.706 1.6154 0 0 1 1.4043 -1.2637 5.0363 5.0363 0 0 0 -0.5625 -1.332 1.6154 3.706 45 0 1 -1.877 0.09375 1.6154 3.706 45 0 1 0.08398 -1.8555 5.0363 5.0363 0 0 0 -1.3398 -0.5332zm-1.1758 2.8477a2.043 2.043 0 0 1 2.043 2.043 2.043 2.043 0 0 1 -2.043 2.043 2.043 2.043 0 0 1 -2.043 -2.043 2.043 2.043 0 0 1 2.043 -2.043z"/>
	</g>
</svg>
