<svg xmlns="http://www.w3.org/2000/svg" viewBox="0 0 33 33"><path d="M19.719 3.162a4.405 10.105 0 0 1-3.399 3.686 4.405 10.105 0 0 1-3.373-3.604A13.733 13.733 0 0 0 9.352 4.8a10.105 4.405 45 0 1 .144 4.877 10.105 4.405 45 0 1-4.814-.114 13.733 13.733 0 0 0-1.477 3.626A10.105 4.405 0 0 1 6.67 16.5a10.105 4.405 0 0 1-3.467 3.316 13.733 13.733 0 0 0 1.48 3.622 4.405 10.105 45 0 1 3.2-.756 4.405 10.105 45 0 1 1.613.643 4.405 10.105 45 0 1-.137 4.877 13.733 13.733 0 0 0 3.596 1.547 4.405 10.105 0 0 1 3.365-3.596 4.405 10.105 0 0 1 3.399 3.685 13.733 13.733 0 0 0 3.65-1.459 10.105 4.405 45 0 1-.225-5.054 10.105 4.405 45 0 1 1.778-.649 10.105 4.405 45 0 1 3.34.907 13.733 13.733 0 0 0 1.527-3.633 10.105 4.405 0 0 1-3.817-3.45 10.105 4.405 0 0 1 3.826-3.445 13.733 13.733 0 0 0-1.531-3.635 4.405 10.105 45 0 1-5.121.256 4.405 10.105 45 0 1 .228-5.06 13.733 13.733 0 0 0-3.654-1.454zm-3.205 7.768a5.57 5.57 0 0 1 5.572 5.57 5.57 5.57 0 0 1-5.572 5.57 5.57 5.57 0 0 1-5.569-5.57 5.57 5.57 0 0 1 5.569-5.57zm1.168.68a1.615 3.706 0 0 1-1.248 1.351 1.615 3.706 0 0 1-1.236-1.322 5.036 5.036 0 0 0-1.319.57 3.706 1.615 45 0 1 .053 1.79 3.706 1.615 45 0 1-1.766-.044 5.036 5.036 0 0 0-.543 1.33 3.706 1.615 0 0 1 1.272 1.215 3.706 1.615 0 0 1-1.272 1.217 5.036 5.036 0 0 0 .543 1.328 1.615 3.706 45 0 1 1.174-.277 1.615 3.706 45 0 1 .592.234 1.615 3.706 45 0 1-.05 1.79 5.036 5.036 0 0 0 1.32.567 1.615 3.706 0 0 1 1.232-1.32 1.615 3.706 0 0 1 1.248 1.352 5.036 5.036 0 0 0 1.338-.535 3.706 1.615 45 0 1-.082-1.854 3.706 1.615 45 0 1 .652-.236 3.706 1.615 45 0 1 1.225.332 5.036 5.036 0 0 0 .558-1.331 3.706 1.615 0 0 1-1.4-1.266 3.706 1.615 0 0 1 1.404-1.264 5.036 5.036 0 0 0-.562-1.332 1.615 3.706 45 0 1-1.877.094 1.615 3.706 45 0 1 .084-1.856 5.036 5.036 0 0 0-1.34-.533zm-1.176 2.847A2.043 2.043 0 0 1 18.55 16.5a2.043 2.043 0 0 1-2.043 2.043 2.043 2.043 0 0 1-2.043-2.043 2.043 2.043 0 0 1 2.043-2.043z" fill="#ff9100"/></svg>