<?xml version="1.0" encoding="UTF-8" standalone="no"?>
<!-- Created with Inkscape (http://www.inkscape.org/) -->

<svg
   xmlns:dc="http://purl.org/dc/elements/1.1/"
   xmlns:cc="http://creativecommons.org/ns#"
   xmlns:rdf="http://www.w3.org/1999/02/22-rdf-syntax-ns#"
   xmlns:svg="http://www.w3.org/2000/svg"
   xmlns="http://www.w3.org/2000/svg"
   xmlns:sodipodi="http://sodipodi.sourceforge.net/DTD/sodipodi-0.dtd"
   xmlns:inkscape="http://www.inkscape.org/namespaces/inkscape"
   version="1.1"
   id="svg2"
   width="32"
   height="32"
   viewBox="0 0 32 32"
   sodipodi:docname="findnone.svg"
   inkscape:version="0.92.1 r"
   inkscape:export-filename="/home/kibo/Kibojoe-Linux/Manjaro/pngs/find.none.png"
   inkscape:export-xdpi="96"
   inkscape:export-ydpi="96">
  <metadata
     id="metadata8">
    <rdf:RDF>
      <cc:Work
         rdf:about="">
        <dc:format>image/svg+xml</dc:format>
        <dc:type
           rdf:resource="http://purl.org/dc/dcmitype/StillImage" />
        <dc:title />
      </cc:Work>
    </rdf:RDF>
  </metadata>
  <defs
     id="defs6" />
  <sodipodi:namedview
     pagecolor="#ffffff"
     bordercolor="#666666"
     borderopacity="1"
     objecttolerance="10"
     gridtolerance="10"
     guidetolerance="10"
     inkscape:pageopacity="0"
     inkscape:pageshadow="2"
     inkscape:window-width="640"
     inkscape:window-height="480"
     id="namedview4"
     showgrid="false"
     inkscape:zoom="10.915961"
     inkscape:cx="18.469761"
     inkscape:cy="11.24435"
     inkscape:current-layer="layer1"
     inkscape:snap-global="false" />
  <g
     aria-label="T"
     transform="scale(1.0830723,0.92329939)"
     style="font-style:normal;font-weight:normal;font-size:15.34520054px;line-height:1.25;font-family:sans-serif;letter-spacing:0px;word-spacing:0px;fill:#000000;fill-opacity:1;stroke:#000000;stroke-width:0.99507672;stroke-miterlimit:4;stroke-dasharray:none;stroke-opacity:1"
     id="text4577" />
  <g
     inkscape:groupmode="layer"
     id="layer1"
     inkscape:label="test">
    <path
       style="fill:#ff9000;fill-opacity:1;stroke:none;stroke-width:1.57066405;stroke-miterlimit:4;stroke-dasharray:none;stroke-opacity:1"
       d="M 15.939453 1.8671875 A 14.136813 7.9688652 88.486461 0 0 10.455078 5.8476562 A 14.136813 7.9688652 88.486461 0 0 9.4394531 8.1113281 A 7.5290677 4.7863377 4.2977656 0 1 16.710938 5.90625 A 7.5290677 4.7863377 4.2977656 0 1 22.736328 8.7460938 A 5.5210356 9.7943492 43.486461 0 0 18.734375 8.1269531 A 7.9688652 14.136813 88.486461 0 0 17.208984 8.0410156 A 7.9688652 14.136813 88.486461 0 0 13.214844 8.2734375 A 9.7943492 5.5210356 43.486461 0 0 9.0957031 9.25 A 7.9688652 14.136813 88.486461 0 0 6.3515625 10.451172 A 7.9688652 14.136813 88.486461 0 0 6.03125 21.728516 A 7.9688652 14.136813 88.486461 0 0 8.2949219 22.744141 A 4.7863377 7.5290677 4.2977656 0 1 6.0898438 15.472656 A 4.7863377 7.5290677 4.2977656 0 1 8.9316406 9.4453125 A 9.7943492 5.5210356 43.486461 0 0 8.3125 13.458984 A 14.136813 7.9688652 88.486461 0 0 8.4589844 18.957031 A 5.5210356 9.7943492 43.486461 0 0 13.648438 23.871094 A 7.9688652 14.136813 88.486461 0 0 19.132812 23.726562 A 9.7943492 5.5210356 43.486461 0 0 23.226562 22.804688 A 9.7943492 5.5210356 43.486461 0 0 24.056641 18.546875 A 14.136813 7.9688652 88.486461 0 0 23.912109 13.041016 A 5.5210356 9.7943492 43.486461 0 0 22.933594 8.9101562 A 14.136813 7.9688652 88.486461 0 0 21.732422 6.1679688 A 14.136813 7.9688652 88.486461 0 0 15.939453 1.8671875 z M 23.601562 9.0898438 A 4.8478592 7.620669 3.9095053 0 1 26.212891 16.726562 A 4.8478592 7.620669 3.9095053 0 1 23.564453 22.658203 A 7.9688652 14.136813 88.486461 0 0 26.015625 21.548828 A 7.9688652 14.136813 88.486461 0 0 26.335938 10.271484 A 7.9688652 14.136813 88.486461 0 0 23.601562 9.0898438 z M 15.785156 9.1816406 C 17.984008 9.1816406 19.660957 9.4820172 20.814453 10.080078 C 21.967949 10.672158 22.544922 11.539344 22.544922 12.681641 C 22.544922 13.26774 22.369034 13.793278 22.017578 14.259766 C 21.666122 14.720273 21.065849 15.217726 20.21875 15.75 L 19.353516 16.259766 C 18.74072 16.630563 18.339636 16.93094 18.150391 17.158203 C 17.961145 17.379486 17.867187 17.623451 17.867188 17.892578 L 17.867188 18.296875 L 12.986328 18.296875 L 12.986328 17.857422 C 12.986328 17.367012 13.136209 16.933419 13.433594 16.556641 C 13.73098 16.173882 14.357261 15.689615 15.3125 15.103516 L 16.177734 14.582031 C 16.6914 14.27104 17.064524 13.978233 17.298828 13.703125 C 17.542143 13.428017 17.664062 13.154014 17.664062 12.878906 C 17.664062 12.460263 17.448186 12.133635 17.015625 11.900391 C 16.583064 11.661166 15.97813 11.541016 15.203125 11.541016 C 14.473178 11.541016 13.684989 11.644315 12.837891 11.847656 C 11.990792 12.045017 11.108645 12.339655 10.189453 12.734375 L 10.189453 9.9179688 C 11.279867 9.6667831 12.274613 9.4809406 13.175781 9.3613281 C 14.07695 9.2417162 14.947069 9.1816406 15.785156 9.1816406 z M 12.986328 19.625 L 17.867188 19.625 L 17.867188 22.818359 L 12.986328 22.818359 L 12.986328 19.625 z M 9.5253906 23.380859 A 14.136813 7.9688652 88.486461 0 0 10.634766 25.832031 A 14.136813 7.9688652 88.486461 0 0 21.912109 26.152344 A 14.136813 7.9688652 88.486461 0 0 23.09375 23.417969 A 7.620669 4.8478592 3.9095053 0 1 15.457031 26.029297 A 7.620669 4.8478592 3.9095053 0 1 9.5253906 23.380859 z "
       id="path4564" />
    <g
       aria-label="?"
       transform="matrix(1.2275249,0,0,0.81464742,0.18321795,0)"
       style="font-style:normal;font-variant:normal;font-weight:bold;font-stretch:normal;font-size:22.55261993px;line-height:1.25;font-family:sans-serif;-inkscape-font-specification:'sans-serif Bold';letter-spacing:0px;word-spacing:0px;fill:#000000;fill-opacity:1;stroke:none;stroke-width:0.56381553"
       id="text822" />
  </g>
</svg>
