<svg xmlns="http://www.w3.org/2000/svg" viewBox="0 0 33 33" version="1.1">
	<path style="fill:#ff9000" d="m16.511 3.7117c-10.796 0-10.958 8.6218-10.958 8.6218v1.2325l-2.8703 2.5869c-0.59209 0.53376-0.69731 1.5245-0.23501 2.2209l0.43952 0.66197c0.4623 0.69641 1.3113 0.82797 1.9034 0.29421l0.76243-0.68888v10.647h1.5518l2.4685-4.4652 2.4703 4.4652h1.8729l2.4703-4.4652 2.4703 4.4652h1.8729l2.4703-4.4652 2.4703 4.4652h1.7043v-10.71l0.83419 0.75167c0.59209 0.53376 1.4393 0.4022 1.9016-0.29421l0.44132-0.66197c0.4623-0.69641 0.35708-1.6872-0.23501-2.2209l-2.9421-2.6515v-0.91313s-0.06813-8.8765-10.864-8.8765zm-3.6382 6.3829c1.4511-0.000192 2.6277 1.1403 2.6282 2.5474 0.000601 1.4079-1.1763 2.5494-2.6282 2.5492-1.4519 0.000192-2.6288-1.1414-2.6282-2.5492 0.000422-1.4072 1.177-2.5476 2.6282-2.5474zm7.2458 0c1.4511-0.000192 2.6277 1.1403 2.6282 2.5474 0.0006 1.4079-1.1763 2.5494-2.6282 2.5492-1.4519 0.000192-2.6288-1.1414-2.6282-2.5492 0.00042-1.4072 1.177-2.5476 2.6282-2.5474zm-3.619 7.484a1.6722 2.0306 0 0 1 1.672 2.031 1.6722 2.0306 0 0 1 -1.672 2.031 1.6722 2.0306 0 0 1 -1.672 -2.031 1.6722 2.0306 0 0 1 1.672 -2.031z"/>
</svg>
