<svg xmlns="http://www.w3.org/2000/svg" viewBox="0 0 33 33"><path d="M16.511 3.712c-10.796 0-10.958 8.622-10.958 8.622v1.232l-2.87 2.587c-.592.534-.698 1.524-.235 2.22l.44.663c.462.696 1.31.828 1.903.294l.762-.689v10.647h1.552l2.468-4.465 2.47 4.465h1.874l2.47-4.465 2.47 4.465h1.873l2.47-4.465 2.47 4.465h1.705v-10.71l.834.752c.592.534 1.44.402 1.902-.294l.441-.662c.462-.697.357-1.688-.235-2.221L27.375 13.5v-.913s-.068-8.876-10.864-8.876zm-3.638 6.383c1.45 0 2.628 1.14 2.628 2.547 0 1.408-1.176 2.55-2.628 2.55-1.452 0-2.629-1.142-2.628-2.55 0-1.407 1.177-2.548 2.628-2.547zm7.246 0c1.45 0 2.627 1.14 2.628 2.547 0 1.408-1.176 2.55-2.628 2.55-1.452 0-2.63-1.142-2.629-2.55 0-1.407 1.177-2.548 2.629-2.547zm-3.62 7.484a1.672 2.03 0 0 1 1.673 2.03 1.672 2.03 0 0 1-1.672 2.032 1.672 2.03 0 0 1-1.672-2.031 1.672 2.03 0 0 1 1.672-2.031z" fill="#ff9000"/></svg>