<svg xmlns="http://www.w3.org/2000/svg" viewBox="0 0 33 33"><path d="M13.078 2.206a9.588 9.588 0 0 1 9.588 9.588A9.588 9.588 0 0 1 20.385 18a8.21 3.118 48.77 0 1 5.638 4.306 8.21 3.118 48.77 0 1 2.971 8.178 8.21 3.118 48.77 0 1-7.793-4.219 8.21 3.118 48.77 0 1-3.414-6.133 9.588 9.588 0 0 1-4.71 1.248 9.588 9.588 0 0 1-9.587-9.587 9.588 9.588 0 0 1 9.588-9.588zm0 3.355a6.232 6.232 0 0 0-6.23 6.233 6.232 6.232 0 0 0 6.23 6.23 6.232 6.232 0 0 0 6.232-6.23 6.232 6.232 0 0 0-6.232-6.233z" fill="#ff9000" fill-rule="evenodd"/></svg>