<svg xmlns="http://www.w3.org/2000/svg" viewBox="0 0 33 33" version="1.1">
	<path style="fill:#ff9000;fill-rule:evenodd" d="m19.922 2.2059a9.5879 9.5879 0 0 0 -9.5879 9.5879 9.5879 9.5879 0 0 0 2.2812 6.207 3.1177 8.2092 41.23 0 0 -5.6387 4.3066 3.1177 8.2092 41.23 0 0 -2.9707 8.1777 3.1177 8.2092 41.23 0 0 7.793 -4.2188 3.1177 8.2092 41.23 0 0 3.4141 -6.1328 9.5879 9.5879 0 0 0 4.709 1.248 9.5879 9.5879 0 0 0 9.5879 -9.5879 9.5879 9.5879 0 0 0 -9.5879 -9.5879zm0 3.3555a6.2321 6.2321 0 0 1 4.2598 1.6953c-0.01948-0.010064-0.03679-0.028447-0.05664-0.037109-0.93144-0.41047-2.285-0.61719-4.0605-0.61719-0.67674 0-1.3797 0.040955-2.1074 0.12305-0.62454 0.070458-1.3334 0.19105-2.0703 0.32812a6.2321 6.2321 0 0 1 4.0352 -1.4922zm-4.373 1.7949 0.05469 3.0703c0.74223-0.27091 1.4547-0.47392 2.1387-0.60937 0.68402-0.13956 1.3207-0.21094 1.9102-0.21094 0.6258 0 1.1117 0.081908 1.4609 0.24609 0.34929 0.16008 0.52539 0.38455 0.52539 0.67188 0 0.18881-0.09847 0.37759-0.29492 0.56641-0.1892 0.18881-0.49147 0.39007-0.90625 0.60352l-0.69922 0.35547c-0.77134 0.40226-1.2774 0.73535-1.5176 0.99805-0.24013 0.2586-0.35938 0.55795-0.35938 0.89453v0.30078h3.9414v-0.27734c0-0.18471 0.0757-0.35204 0.22852-0.50391 0.15281-0.15598 0.47588-0.3627 0.9707-0.61719l0.69922-0.34961c0.68402-0.36532 1.1693-0.70738 1.4531-1.0234 0.2838-0.32016 0.42578-0.68173 0.42578-1.084 0-0.49828-0.21429-1.4754-0.60742-2.2285a6.2321 6.2321 0 0 1 1.1797 3.6348 6.2321 6.2321 0 0 1 -6.2305 6.2305 6.2321 6.2321 0 0 1 -6.2324 -6.2305 6.2321 6.2321 0 0 1 1.8594 -4.4375zm3.4062 7.416c-0.51474 0-0.92773 0.36217-0.92773 0.8125v0.83984c0 0.45033 0.413 0.8125 0.92773 0.8125h1.7832c0.51474 0 0.92969-0.36217 0.92969-0.8125v-0.83984c0-0.45033-0.41495-0.8125-0.92969-0.8125z"/>
</svg>
