<svg xmlns="http://www.w3.org/2000/svg" version="1.1" viewBox="0 0 33 33">
	<path style="fill:#ff9000;fill-rule:evenodd" d="m13.078 2.2059a9.5879 9.5879 0 0 1 9.5879 9.5879 9.5879 9.5879 0 0 1 -2.2813 6.207 8.2092 3.1177 48.77 0 1 5.6387 4.3066 8.2092 3.1177 48.77 0 1 2.9707 8.1777 8.2092 3.1177 48.77 0 1 -7.793 -4.2188 8.2092 3.1177 48.77 0 1 -3.4141 -6.1328 9.5879 9.5879 0 0 1 -4.709 1.248 9.5879 9.5879 0 0 1 -9.5879 -9.5879 9.5879 9.5879 0 0 1 9.5879 -9.5879zm0 3.3555a6.2321 6.2321 0 0 0 -6.2305 6.2324 6.2321 6.2321 0 0 0 6.2305 6.2305 6.2321 6.2321 0 0 0 6.2324 -6.2305 6.2321 6.2321 0 0 0 -6.2324 -6.2324z"/>
</svg>
