<svg xmlns="http://www.w3.org/2000/svg" viewBox="0 0 33 33"><path d="M19.922 2.206a9.588 9.588 0 0 0-9.588 9.588A9.588 9.588 0 0 0 12.615 18a3.118 8.21 41.23 0 0-5.638 4.306 3.118 8.21 41.23 0 0-2.971 8.178 3.118 8.21 41.23 0 0 7.793-4.219 3.118 8.21 41.23 0 0 3.414-6.133 9.588 9.588 0 0 0 4.709 1.248 9.588 9.588 0 0 0 9.588-9.587 9.588 9.588 0 0 0-9.588-9.588zm0 3.355a6.232 6.232 0 0 1 4.26 1.696c-.02-.01-.037-.029-.057-.037-.931-.41-2.285-.618-4.06-.618-.677 0-1.38.041-2.108.123-.624.07-1.333.192-2.07.329a6.232 6.232 0 0 1 4.035-1.493zm-4.373 1.795l.055 3.07c.742-.27 1.454-.473 2.138-.609a9.6 9.6 0 0 1 1.91-.21c.626 0 1.112.081 1.461.245.35.16.526.385.526.672 0 .19-.099.378-.295.567-.19.188-.492.39-.906.603l-.7.356c-.77.402-1.277.735-1.517.998-.24.258-.36.558-.36.894v.301h3.942v-.277c0-.185.076-.352.228-.504.153-.156.476-.363.971-.617l.7-.35c.683-.365 1.169-.707 1.452-1.023.284-.32.426-.682.426-1.084 0-.499-.214-1.476-.607-2.229a6.232 6.232 0 0 1 1.18 3.635 6.232 6.232 0 0 1-6.231 6.23 6.232 6.232 0 0 1-6.232-6.23 6.232 6.232 0 0 1 1.859-4.438zm3.406 7.416c-.515 0-.928.362-.928.813v.84c0 .45.413.812.928.812h1.783c.515 0 .93-.362.93-.812v-.84c0-.45-.415-.813-.93-.813z" fill="#ff9000" fill-rule="evenodd"/></svg>