<?xml version="1.0" encoding="UTF-8" standalone="no"?>
<!-- Created with Inkscape (http://www.inkscape.org/) -->

<svg
   xmlns:dc="http://purl.org/dc/elements/1.1/"
   xmlns:cc="http://creativecommons.org/ns#"
   xmlns:rdf="http://www.w3.org/1999/02/22-rdf-syntax-ns#"
   xmlns:svg="http://www.w3.org/2000/svg"
   xmlns="http://www.w3.org/2000/svg"
   xmlns:sodipodi="http://sodipodi.sourceforge.net/DTD/sodipodi-0.dtd"
   xmlns:inkscape="http://www.inkscape.org/namespaces/inkscape"
   version="1.1"
   id="svg2"
   width="32"
   height="32"
   viewBox="0 0 32 32"
   sodipodi:docname="gears.svg"
   inkscape:version="0.92.1 unknown"
   inkscape:export-filename="/home/beerto/Pictures/Ink/Linux/Manjaro/pngs/gears.png"
   inkscape:export-xdpi="96"
   inkscape:export-ydpi="96">
  <metadata
     id="metadata8">
    <rdf:RDF>
      <cc:Work
         rdf:about="">
        <dc:format>image/svg+xml</dc:format>
        <dc:type
           rdf:resource="http://purl.org/dc/dcmitype/StillImage" />
        <dc:title />
      </cc:Work>
    </rdf:RDF>
  </metadata>
  <defs
     id="defs6" />
  <sodipodi:namedview
     pagecolor="#ffffff"
     bordercolor="#666666"
     borderopacity="1"
     objecttolerance="10"
     gridtolerance="10"
     guidetolerance="10"
     inkscape:pageopacity="0"
     inkscape:pageshadow="2"
     inkscape:window-width="640"
     inkscape:window-height="480"
     id="namedview4"
     showgrid="false"
     inkscape:zoom="7.71875"
     inkscape:cx="25.933768"
     inkscape:cy="-5.5581208"
     inkscape:current-layer="layer1"
     inkscape:snap-global="false" />
  <g
     inkscape:groupmode="layer"
     id="layer1"
     inkscape:label="icon"
     style="display:inline">
    <path
       style="fill:#ff9100;fill-opacity:1;stroke:none;stroke-width:0.78262782"
       d="M 17.737921,2.7893757 A 3.4473646,7.9086602 21.269159 0 1 14.213218,4.5108594 3.4473646,7.9086602 21.269159 0 1 12.775521,0.92476196 10.747668,10.747668 0 0 0 9.7095575,1.0370283 7.9086602,3.4473646 66.269159 0 1 8.4325429,4.6352875 7.9086602,3.4473646 66.269159 0 1 4.9516494,3.1859872 10.747668,10.747668 0 0 0 2.8458231,5.4136788 a 7.9086602,3.4473646 21.269159 0 1 1.587933,3.3993613 7.9086602,3.4473646 21.269159 0 1 -3.47151697,1.4340919 10.747668,10.747668 0 0 0 0.0512873,3.06109 3.4473646,7.9086602 66.269159 0 1 2.5462109,0.356095 3.4473646,7.9086602 66.269159 0 1 0.9973357,0.926868 3.4473646,7.9086602 66.269159 0 1 -1.4852138,3.519312 10.747668,10.747668 0 0 0 2.1860127,2.148286 3.4473646,7.9086602 21.269159 0 1 3.474425,-1.667699 3.4473646,7.9086602 21.269159 0 1 1.4325161,3.653245 10.747668,10.747668 0 0 0 3.077263,-0.02822 7.9086602,3.4473646 66.269159 0 1 1.270896,-3.74945 7.9086602,3.4473646 66.269159 0 1 1.480112,0.03123 7.9086602,3.4473646 66.269159 0 1 2.178099,1.608659 10.747668,10.747668 0 0 0 2.145465,-2.216453 A 7.9086602,3.4473646 21.269159 0 1 18.51034,14.292544 7.9086602,3.4473646 21.269159 0 1 22.278973,12.865121 10.747668,10.747668 0 0 0 22.195534,9.7789409 3.4473646,7.9086602 66.269159 0 1 18.388441,8.5107576 3.4473646,7.9086602 66.269159 0 1 19.99019,4.885906 10.747668,10.747668 0 0 0 17.737921,2.7893757 Z M 14.668333,7.196791 a 5.3710142,5.3710142 0 0 1 1.125427,1.0500854 1.7227779,3.9522551 66.269159 0 0 -0.801431,1.8111616 1.7227779,3.9522551 66.269159 0 0 1.901727,0.633383 5.3710142,5.3710142 0 0 1 0.04298,1.542534 3.9522551,1.7227779 21.269159 0 0 -1.883051,0.713156 3.9522551,1.7227779 21.269159 0 0 0.900979,1.798973 5.3710142,5.3710142 0 0 1 -1.070204,1.107115 3.9522551,1.7227779 66.269159 0 0 -1.088695,-0.80524 3.9522551,1.7227779 66.269159 0 0 -0.740056,-0.01561 3.9522551,1.7227779 66.269159 0 0 -0.635094,1.873815 5.3710142,5.3710142 0 0 1 -1.538076,0.01538 1.7227779,3.9522551 21.269159 0 0 -0.714084,-1.826824 1.7227779,3.9522551 21.269159 0 0 -1.7368574,0.83294 A 5.3710142,5.3710142 0 0 1 7.3403598,14.855129 1.7227779,3.9522551 66.269159 0 0 8.0817025,13.096028 1.7227779,3.9522551 66.269159 0 0 7.5826805,12.633504 1.7227779,3.9522551 66.269159 0 0 6.3108394,12.454901 5.3710142,5.3710142 0 0 1 6.2846397,10.923092 3.9522551,1.7227779 21.269159 0 0 8.0193355,10.208776 3.9522551,1.7227779 21.269159 0 0 7.2248132,8.5078313 5.3710142,5.3710142 0 0 1 8.2779279,7.3961595 3.9522551,1.7227779 66.269159 0 0 10.01802,8.1217197 3.9522551,1.7227779 66.269159 0 0 10.654909,6.324056 5.3710142,5.3710142 0 0 1 12.188246,6.267013 1.7227779,3.9522551 21.269159 0 0 12.907802,8.0582413 1.7227779,3.9522551 21.269159 0 0 14.668333,7.196791 Z M 12.566649,9.1284796 A 2.6558704,2.6558704 0 0 0 9.1277709,10.64025 2.6558704,2.6558704 0 0 0 10.64025,14.077307 2.6558704,2.6558704 0 0 0 14.076598,12.566649 2.6558704,2.6558704 0 0 0 12.566649,9.1284796 Z"
       id="path4487"
       inkscape:connector-curvature="0" />
    <path
       id="path4491"
       d="m 25.294388,17.154493 a 2.1118118,4.8447448 1.3200865 0 1 -1.66983,1.727963 2.1118118,4.8447448 1.3200865 0 1 -1.577382,-1.764496 6.5838849,6.5838849 0 0 0 -1.742009,0.705451 4.8447448,2.1118118 46.320087 0 1 0.01672,2.338886 4.8447448,2.1118118 46.320087 0 1 -2.307312,-0.107033 6.5838849,6.5838849 0 0 0 -0.747,1.7229 4.8447448,2.1118118 1.3200865 0 1 1.624866,1.625567 4.8447448,2.1118118 1.3200865 0 1 -1.699269,1.551359 6.5838849,6.5838849 0 0 0 0.669316,1.751947 2.1118118,4.8447448 46.320087 0 1 1.54061,-0.327122 2.1118118,4.8447448 46.320087 0 1 0.768016,0.32527 2.1118118,4.8447448 46.320087 0 1 -0.11967,2.336942 6.5838849,6.5838849 0 0 0 1.707775,0.78016 2.1118118,4.8447448 1.3200865 0 1 1.652119,-1.686486 2.1118118,4.8447448 1.3200865 0 1 1.588435,1.804244 6.5838849,6.5838849 0 0 0 1.766079,-0.659417 4.8447448,2.1118118 46.320087 0 1 -0.05184,-2.424669 4.8447448,2.1118118 46.320087 0 1 0.858819,-0.29137 4.8447448,2.1118118 46.320087 0 1 1.590432,0.471079 6.5838849,6.5838849 0 0 0 0.772172,-1.724714 4.8447448,2.1118118 1.3200865 0 1 -1.792032,-1.694044 4.8447448,2.1118118 1.3200865 0 1 1.871752,-1.609617 6.5838849,6.5838849 0 0 0 -0.693073,-1.759675 2.1118118,4.8447448 46.320087 0 1 -2.457297,0.06544 2.1118118,4.8447448 46.320087 0 1 0.164722,-2.422072 6.5838849,6.5838849 0 0 0 -1.735109,-0.736507 z m -0.846386,3.179481 a 3.2902151,3.2902151 0 0 1 0.867529,0.36945 1.0553518,2.4211013 46.320087 0 0 -0.08294,1.210423 1.0553518,2.4211013 46.320087 0 0 1.22745,-0.03274 3.2902151,3.2902151 0 0 1 0.347147,0.879254 2.4211013,1.0553518 1.3200865 0 0 -0.935262,0.804224 2.4211013,1.0553518 1.3200865 0 0 0.894807,0.847593 3.2902151,3.2902151 0 0 1 -0.384864,0.861188 2.4211013,1.0553518 46.320087 0 0 -0.795202,-0.236139 2.4211013,1.0553518 46.320087 0 0 -0.429409,0.145687 2.4211013,1.0553518 46.320087 0 0 0.02593,1.211735 3.2902151,3.2902151 0 0 1 -0.882457,0.330321 1.0553518,2.4211013 1.3200865 0 0 -0.793007,-0.902693 1.0553518,2.4211013 1.3200865 0 0 -0.826044,0.842646 3.2902151,3.2902151 0 0 1 -0.852707,-0.389455 1.0553518,2.4211013 46.320087 0 0 0.05922,-1.167887 1.0553518,2.4211013 46.320087 0 0 -0.384022,-0.162036 1.0553518,2.4211013 46.320087 0 0 -0.769694,0.162975 3.2902151,3.2902151 0 0 1 -0.335242,-0.876583 2.4211013,1.0553518 1.3200865 0 0 0.849594,-0.773886 2.4211013,1.0553518 1.3200865 0 0 -0.813017,-0.813396 3.2902151,3.2902151 0 0 1 0.37407,-0.860241 2.4211013,1.0553518 46.320087 0 0 1.153644,0.05411 2.4211013,1.0553518 46.320087 0 0 -0.009,-1.168261 3.2902151,3.2902151 0 0 1 0.871019,-0.353323 1.0553518,2.4211013 1.3200865 0 0 0.788718,0.881051 1.0553518,2.4211013 1.3200865 0 0 0.833718,-0.86401 z m -0.80648,1.551588 a 1.6269525,1.6269525 0 0 0 -1.664239,1.589266 1.6269525,1.6269525 0 0 0 1.589293,1.663043 1.6269525,1.6269525 0 0 0 1.663017,-1.588097 1.6269525,1.6269525 0 0 0 -1.588071,-1.664212 z"
       style="fill:#ff9100;fill-opacity:1;stroke:none;stroke-width:0.47942784"
       inkscape:connector-curvature="0" />
  </g>
</svg>
