<svg xmlns="http://www.w3.org/2000/svg" viewBox="0 0 33 33"><path d="M12.757 1.962a10.748 10.748 0 0 0-1.994.174 7.909 3.447 66.269 0 1-1.278 3.598 7.909 3.447 66.269 0 1-3.48-1.45 10.748 10.748 0 0 0-2.106 2.229A7.909 3.447 21.269 0 1 5.487 9.91a7.909 3.447 21.269 0 1-3.47 1.436 10.748 10.748 0 0 0 .05 3.06 3.447 7.909 66.269 0 1 2.547.356 3.447 7.909 66.269 0 1 .996.927 3.447 7.909 66.269 0 1-1.484 3.52 10.748 10.748 0 0 0 2.185 2.146 3.447 7.909 21.269 0 1 3.475-1.666 3.447 7.909 21.269 0 1 1.431 3.653 10.748 10.748 0 0 0 3.079-.028 7.909 3.447 66.269 0 1 1.271-3.75 7.909 3.447 66.269 0 1 1.479.032 7.909 3.447 66.269 0 1 2.18 1.609 10.748 10.748 0 0 0 2.144-2.217 7.909 3.447 21.269 0 1-1.807-3.597 7.909 3.447 21.269 0 1 3.77-1.428 10.748 10.748 0 0 0-.084-3.086 3.447 7.909 66.269 0 1-3.807-1.268 3.447 7.909 66.269 0 1 1.602-3.625 10.748 10.748 0 0 0-2.252-2.097 3.447 7.909 21.269 0 1-3.526 1.722 3.447 7.909 21.269 0 1-1.437-3.588 10.748 10.748 0 0 0-1.073-.06zm.021 5.375a5.371 5.371 0 0 1 .463.03 1.723 3.952 21.269 0 0 .721 1.79 1.723 3.952 21.269 0 0 1.76-.861 5.371 5.371 0 0 1 1.125 1.049 1.723 3.952 66.269 0 0-.8 1.812 1.723 3.952 66.269 0 0 1.901.633 5.371 5.371 0 0 1 .043 1.543 3.952 1.723 21.269 0 0-1.882.713 3.952 1.723 21.269 0 0 .9 1.799 5.371 5.371 0 0 1-1.07 1.107 3.952 1.723 66.269 0 0-1.088-.805 3.952 1.723 66.269 0 0-.74-.015 3.952 1.723 66.269 0 0-.635 1.873 5.371 5.371 0 0 1-1.54.015 1.723 3.952 21.269 0 0-.714-1.828 1.723 3.952 21.269 0 0-1.736.834 5.371 5.371 0 0 1-1.092-1.072 1.723 3.952 66.269 0 0 .742-1.76 1.723 3.952 66.269 0 0-.5-.463 1.723 3.952 66.269 0 0-1.272-.177 5.371 5.371 0 0 1-.025-1.532 3.952 1.723 21.269 0 0 1.734-.714 3.952 1.723 21.269 0 0-.795-1.702 5.371 5.371 0 0 1 1.053-1.11 3.952 1.723 66.269 0 0 1.74.724 3.952 1.723 66.269 0 0 .637-1.797 5.371 5.371 0 0 1 1.07-.086zm-.197 2.71a2.656 2.656 0 0 0-2.4 1.692 2.656 2.656 0 0 0 1.514 3.438 2.656 2.656 0 0 0 3.435-1.512 2.656 2.656 0 0 0-1.51-3.437 2.656 2.656 0 0 0-1.039-.18zm10.52 8.169a6.584 6.584 0 0 0-1.742.707 4.845 2.112 46.32 0 1 .018 2.338 4.845 2.112 46.32 0 1-2.309-.108 6.584 6.584 0 0 0-.746 1.723 4.845 2.112 1.32 0 1 1.625 1.627 4.845 2.112 1.32 0 1-1.7 1.55 6.584 6.584 0 0 0 .67 1.753 2.112 4.845 46.32 0 1 1.54-.326 2.112 4.845 46.32 0 1 .77.324 2.112 4.845 46.32 0 1-.122 2.338 6.584 6.584 0 0 0 1.71.78 2.112 4.845 1.32 0 1 1.651-1.686 2.112 4.845 1.32 0 1 1.588 1.802 6.584 6.584 0 0 0 1.766-.658 4.845 2.112 46.32 0 1-.05-2.426 4.845 2.112 46.32 0 1 .857-.29 4.845 2.112 46.32 0 1 1.591.47 6.584 6.584 0 0 0 .772-1.725 4.845 2.112 1.32 0 1-1.793-1.693 4.845 2.112 1.32 0 1 1.873-1.61 6.584 6.584 0 0 0-.693-1.76 2.112 4.845 46.32 0 1-2.457.065 2.112 4.845 46.32 0 1 .164-2.422 6.584 6.584 0 0 0-1.735-.736 2.112 4.845 1.32 0 1-1.67 1.729 2.112 4.845 1.32 0 1-1.578-1.766zm.78 3.2a1.055 2.421 1.32 0 0 .789.88 1.055 2.421 1.32 0 0 .832-.863 3.29 3.29 0 0 1 .869.369 1.055 2.421 46.32 0 0-.084 1.21 1.055 2.421 46.32 0 0 1.228-.032 3.29 3.29 0 0 1 .346.878 2.421 1.055 1.32 0 0-.936.805 2.421 1.055 1.32 0 0 .897.848 3.29 3.29 0 0 1-.385.861 2.421 1.055 46.32 0 0-.797-.236 2.421 1.055 46.32 0 0-.427.146 2.421 1.055 46.32 0 0 .025 1.211 3.29 3.29 0 0 1-.883.33 1.055 2.421 1.32 0 0-.793-.902 1.055 2.421 1.32 0 0-.826.842 3.29 3.29 0 0 1-.854-.389 1.055 2.421 46.32 0 0 .061-1.168 1.055 2.421 46.32 0 0-.385-.162 1.055 2.421 46.32 0 0-.77.164 3.29 3.29 0 0 1-.335-.877 2.421 1.055 1.32 0 0 .85-.773 2.421 1.055 1.32 0 0-.813-.815 3.29 3.29 0 0 1 .375-.86 2.421 1.055 46.32 0 0 1.152.053 2.421 1.055 46.32 0 0-.008-1.168 3.29 3.29 0 0 1 .871-.353zm.814 1.567a1.627 1.627 0 0 0-1.664 1.59 1.627 1.627 0 0 0 1.59 1.664 1.627 1.627 0 0 0 1.664-1.59 1.627 1.627 0 0 0-1.59-1.663z" fill="#ff9100"/></svg>