<svg xmlns="http://www.w3.org/2000/svg" viewBox="0 0 33 33" version="1.1">
	<path style="fill:#ff9100" d="m12.757 1.962a10.748 10.748 0 0 0 -1.994 0.1738 7.9087 3.4474 66.269 0 1 -1.2778 3.5977 7.9087 3.4474 66.269 0 1 -3.4805 -1.4492 10.748 10.748 0 0 0 -2.1055 2.2285 7.9087 3.4474 21.269 0 1 1.5879 3.3984 7.9087 3.4474 21.269 0 1 -3.4707 1.4355 10.748 10.748 0 0 0 0.050781 3.0605 3.4474 7.9087 66.269 0 1 2.5469 0.35547 3.4474 7.9087 66.269 0 1 0.99609 0.92774 3.4474 7.9087 66.269 0 1 -1.4844 3.5195 10.748 10.748 0 0 0 2.1855 2.1465 3.4474 7.9087 21.269 0 1 3.4746 -1.666 3.4474 7.9087 21.269 0 1 1.4316 3.6523 10.748 10.748 0 0 0 3.0781 -0.02734 7.9087 3.4474 66.269 0 1 1.2715 -3.75 7.9087 3.4474 66.269 0 1 1.4785 0.03125 7.9087 3.4474 66.269 0 1 2.1797 1.6094 10.748 10.748 0 0 0 2.1445 -2.2168 7.9087 3.4474 21.269 0 1 -1.8066 -3.5977 7.9087 3.4474 21.269 0 1 3.7695 -1.4277 10.748 10.748 0 0 0 -0.08398 -3.0859 3.4474 7.9087 66.269 0 1 -3.8066 -1.2676 3.4474 7.9087 66.269 0 1 1.6016 -3.625 10.748 10.748 0 0 0 -2.252 -2.0977 3.4474 7.9087 21.269 0 1 -3.5254 1.7227 3.4474 7.9087 21.269 0 1 -1.4375 -3.5879 10.748 10.748 0 0 0 -1.0723 -0.060547zm0.02148 5.375a5.371 5.371 0 0 1 0.46289 0.029297 1.7228 3.9523 21.269 0 0 0.7207 1.791 1.7228 3.9523 21.269 0 0 1.7598 -0.86133 5.371 5.371 0 0 1 1.125 1.0488 1.7228 3.9523 66.269 0 0 -0.80078 1.8125 1.7228 3.9523 66.269 0 0 1.9023 0.63281 5.371 5.371 0 0 1 0.04297 1.543 3.9523 1.7228 21.269 0 0 -1.8828 0.71289 3.9523 1.7228 21.269 0 0 0.90039 1.7988 5.371 5.371 0 0 1 -1.0703 1.1074 3.9523 1.7228 66.269 0 0 -1.0879 -0.80469 3.9523 1.7228 66.269 0 0 -0.74023 -0.01563 3.9523 1.7228 66.269 0 0 -0.63477 1.873 5.371 5.371 0 0 1 -1.5391 0.01563 1.7228 3.9523 21.269 0 0 -0.71484 -1.8281 1.7228 3.9523 21.269 0 0 -1.7363 0.83398 5.371 5.371 0 0 1 -1.0918 -1.0723 1.7228 3.9523 66.269 0 0 0.74219 -1.7598 1.7228 3.9523 66.269 0 0 -0.5 -0.46289 1.7228 3.9523 66.269 0 0 -1.2715 -0.17773 5.371 5.371 0 0 1 -0.025391 -1.5312 3.9523 1.7228 21.269 0 0 1.7344 -0.71484 3.9523 1.7228 21.269 0 0 -0.79492 -1.7012 5.371 5.371 0 0 1 1.0527 -1.1113 3.9523 1.7228 66.269 0 0 1.7402 0.72461 3.9523 1.7228 66.269 0 0 0.63672 -1.7969 5.371 5.371 0 0 1 1.0703 -0.085938zm-0.19726 2.7109a2.6559 2.6559 0 0 0 -2.4004 1.6914 2.6559 2.6559 0 0 0 1.5137 3.4375 2.6559 2.6559 0 0 0 3.4355 -1.5117 2.6559 2.6559 0 0 0 -1.5098 -3.4375 2.6559 2.6559 0 0 0 -1.0391 -0.17969zm10.52 8.168a6.5839 6.5839 0 0 0 -1.7422 0.70703 4.8447 2.1118 46.32 0 1 0.01758 2.3379 4.8447 2.1118 46.32 0 1 -2.3086 -0.10742 6.5839 6.5839 0 0 0 -0.74609 1.7227 4.8447 2.1118 1.3201 0 1 1.625 1.627 4.8447 2.1118 1.3201 0 1 -1.6992 1.5508 6.5839 6.5839 0 0 0 0.66992 1.752 2.1118 4.8447 46.32 0 1 1.5391 -0.32617 2.1118 4.8447 46.32 0 1 0.76953 0.32422 2.1118 4.8447 46.32 0 1 -0.12109 2.3379 6.5839 6.5839 0 0 0 1.709 0.7793 2.1118 4.8447 1.3201 0 1 1.6523 -1.6855 2.1118 4.8447 1.3201 0 1 1.5879 1.8027 6.5839 6.5839 0 0 0 1.7656 -0.6582 4.8447 2.1118 46.32 0 1 -0.05078 -2.4258 4.8447 2.1118 46.32 0 1 0.85742 -0.29102 4.8447 2.1118 46.32 0 1 1.5918 0.4707 6.5839 6.5839 0 0 0 0.77148 -1.7246 4.8447 2.1118 1.3201 0 1 -1.793 -1.6934 4.8447 2.1118 1.3201 0 1 1.873 -1.6094 6.5839 6.5839 0 0 0 -0.69336 -1.7598 2.1118 4.8447 46.32 0 1 -2.457 0.06445 2.1118 4.8447 46.32 0 1 0.16406 -2.4219 6.5839 6.5839 0 0 0 -1.7344 -0.73633 2.1118 4.8447 1.3201 0 1 -1.6699 1.7285 2.1118 4.8447 1.3201 0 1 -1.5781 -1.7656zm0.7793 3.1992a1.0554 2.4211 1.3201 0 0 0.78906 0.88086 1.0554 2.4211 1.3201 0 0 0.83203 -0.86328 3.2902 3.2902 0 0 1 0.86914 0.36914 1.0554 2.4211 46.32 0 0 -0.08398 1.2109 1.0554 2.4211 46.32 0 0 1.2285 -0.0332 3.2902 3.2902 0 0 1 0.3457 0.87891 2.4211 1.0554 1.3201 0 0 -0.93555 0.80469 2.4211 1.0554 1.3201 0 0 0.89648 0.84766 3.2902 3.2902 0 0 1 -0.38477 0.86133 2.4211 1.0554 46.32 0 0 -0.79687 -0.23633 2.4211 1.0554 46.32 0 0 -0.42774 0.14648 2.4211 1.0554 46.32 0 0 0.02539 1.2109 3.2902 3.2902 0 0 1 -0.88281 0.33008 1.0554 2.4211 1.3201 0 0 -0.79297 -0.90234 1.0554 2.4211 1.3201 0 0 -0.82617 0.8418 3.2902 3.2902 0 0 1 -0.85352 -0.38867 1.0554 2.4211 46.32 0 0 0.06055 -1.168 1.0554 2.4211 46.32 0 0 -0.38477 -0.16211 1.0554 2.4211 46.32 0 0 -0.76953 0.16406 3.2902 3.2902 0 0 1 -0.33594 -0.87695 2.4211 1.0554 1.3201 0 0 0.84961 -0.77344 2.4211 1.0554 1.3201 0 0 -0.8125 -0.81445 3.2902 3.2902 0 0 1 0.375 -0.85938 2.4211 1.0554 46.32 0 0 1.1523 0.05273 2.4211 1.0554 46.32 0 0 -0.0078 -1.168 3.2902 3.2902 0 0 1 0.87109 -0.35352zm0.81445 1.5684a1.627 1.627 0 0 0 -1.6641 1.5898 1.627 1.627 0 0 0 1.5898 1.6641 1.627 1.627 0 0 0 1.6641 -1.5898 1.627 1.627 0 0 0 -1.5898 -1.6641z"/>
</svg>
