<svg xmlns="http://www.w3.org/2000/svg" viewBox="0 0 33 33"><path d="M4.807 3.668c-1.16 0-2.092.935-2.092 2.094v21.476c0 1.159.932 2.094 2.092 2.094h23.386a2.088 2.088 0 0 0 2.091-2.094V5.762c0-1.16-.932-2.094-2.091-2.094zm2.529 2.775h18.328c.908 0 1.64.732 1.64 1.641v16.832c0 .909-.732 1.639-1.64 1.639H7.336c-.909 0-1.64-.73-1.64-1.639V8.084c0-.909.731-1.64 1.64-1.64zm.256 2.778a.335.335 0 0 0-.336.336V13c0 .186.15.336.336.336h18.683c.186 0 .336-.15.336-.336V9.557a.335.335 0 0 0-.336-.336zm14.92.883h2.199a.37.37 0 0 1 .371.371v1.647a.371.371 0 0 1-.371.373h-2.2a.371.371 0 0 1-.37-.373v-1.647a.37.37 0 0 1 .37-.371zm-14.92 4.902a.335.335 0 0 0-.336.336v3.443c0 .186.15.336.336.336h18.683c.186 0 .336-.15.336-.336v-3.443a.335.335 0 0 0-.336-.336zm14.92.906h2.199a.37.37 0 0 1 .371.371v1.647a.371.371 0 0 1-.371.373h-2.2a.371.371 0 0 1-.37-.373v-1.647a.37.37 0 0 1 .37-.37zm-14.92 4.88a.335.335 0 0 0-.336.335v3.444c0 .185.15.336.336.336h18.683c.186 0 .336-.15.336-.336v-3.444a.335.335 0 0 0-.336-.336zm14.92.929h2.199a.37.37 0 0 1 .371.371v1.647a.371.371 0 0 1-.371.373h-2.2a.371.371 0 0 1-.37-.373v-1.647a.37.37 0 0 1 .37-.371z" fill="#ff9000" fill-rule="evenodd"/></svg>