<svg xmlns="http://www.w3.org/2000/svg" viewBox="0 0 33 33" version="1.1">
	<path style="fill:#ff9000;fill-rule:evenodd" d="m4.8066 3.668c-1.1592 0-2.0918 0.93457-2.0918 2.0938v21.476c0 1.1592 0.93261 2.0938 2.0918 2.0938h23.386c1.1592 0 2.0918-0.93457 2.0918-2.0938v-21.476c0-1.1592-0.93261-2.0938-2.0918-2.0938zm2.5293 2.7754h18.328c0.90855 0 1.6406 0.73208 1.6406 1.6406v16.832c0 0.90855-0.73208 1.6387-1.6406 1.6387h-18.328c-0.90855 0-1.6406-0.73012-1.6406-1.6387v-16.832c0-0.90855 0.73208-1.6406 1.6406-1.6406zm0.25586 2.7773c-0.18591 0-0.33594 0.15003-0.33594 0.33594v3.4434c0 0.18591 0.15003 0.33594 0.33594 0.33594h18.683c0.18591 0 0.33594-0.15003 0.33594-0.33594v-3.4434c0-0.18591-0.15003-0.33594-0.33594-0.33594zm14.92 0.8833h2.1992c0.20598 0 0.37109 0.16512 0.37109 0.37109v1.6465c0 0.20598-0.16512 0.37305-0.37109 0.37305h-2.1992c-0.20598 0-0.37109-0.16707-0.37109-0.37305v-1.647c0-0.20598 0.16512-0.37109 0.37109-0.37109zm-14.92 4.902c-0.18591 0-0.33594 0.15003-0.33594 0.33594v3.4434c0 0.18591 0.15003 0.33594 0.33594 0.33594h18.683c0.18591 0 0.33594-0.15003 0.33594-0.33594v-3.4434c0-0.18591-0.15003-0.33594-0.33594-0.33594zm14.92 0.90625h2.1992c0.20598 0 0.37109 0.16512 0.37109 0.37109v1.6465c0 0.20598-0.16512 0.37305-0.37109 0.37305h-2.1992c-0.20598 0-0.37109-0.16707-0.37109-0.37305v-1.6465c0-0.20598 0.16512-0.37109 0.37109-0.37109zm-14.92 4.879c-0.18591 0-0.33594 0.15003-0.33594 0.33594v3.4434c0 0.18591 0.15003 0.33594 0.33594 0.33594h18.683c0.18591 0 0.33594-0.15003 0.33594-0.33594v-3.4434c0-0.18591-0.15003-0.33594-0.33594-0.33594zm14.92 0.92969h2.1992c0.20598 0 0.37109 0.16512 0.37109 0.37109v1.6465c0 0.20598-0.16512 0.37305-0.37109 0.37305h-2.1992c-0.20598 0-0.37109-0.16707-0.37109-0.37305v-1.6465c0-0.20598 0.16512-0.37109 0.37109-0.37109z"/>
</svg>
