<?xml version="1.0" encoding="UTF-8" standalone="no"?>
<!-- Created with Inkscape (http://www.inkscape.org/) -->

<svg
   xmlns:dc="http://purl.org/dc/elements/1.1/"
   xmlns:cc="http://creativecommons.org/ns#"
   xmlns:rdf="http://www.w3.org/1999/02/22-rdf-syntax-ns#"
   xmlns:svg="http://www.w3.org/2000/svg"
   xmlns="http://www.w3.org/2000/svg"
   xmlns:sodipodi="http://sodipodi.sourceforge.net/DTD/sodipodi-0.dtd"
   xmlns:inkscape="http://www.inkscape.org/namespaces/inkscape"
   version="1.1"
   id="svg2"
   width="32"
   height="32"
   viewBox="0 0 32 32"
   sodipodi:docname="help2.svg"
   inkscape:export-filename="/home/beerto/Pictures/Ink/Linux/Manjaro/pngs/help2.png"
   inkscape:export-xdpi="96"
   inkscape:export-ydpi="96"
   inkscape:version="0.92.1 unknown">
  <metadata
     id="metadata8">
    <rdf:RDF>
      <cc:Work
         rdf:about="">
        <dc:format>image/svg+xml</dc:format>
        <dc:type
           rdf:resource="http://purl.org/dc/dcmitype/StillImage" />
        <dc:title />
      </cc:Work>
    </rdf:RDF>
  </metadata>
  <defs
     id="defs6" />
  <sodipodi:namedview
     pagecolor="#ffffff"
     bordercolor="#666666"
     borderopacity="1"
     objecttolerance="10"
     gridtolerance="10"
     guidetolerance="10"
     inkscape:pageopacity="0"
     inkscape:pageshadow="2"
     inkscape:window-width="640"
     inkscape:window-height="480"
     id="namedview4"
     showgrid="false"
     showguides="true"
     inkscape:zoom="5.2149126"
     inkscape:cx="3.8108119"
     inkscape:cy="2.167324"
     inkscape:current-layer="svg2"
     inkscape:snap-global="false" />
  <g
     aria-label="?"
     transform="matrix(1.3912553,0,0,0.94289113,-2.5613723,-1.657245)"
     style="font-style:normal;font-variant:normal;font-weight:bold;font-stretch:normal;font-size:32.65782547px;line-height:1.25;font-family:sans-serif;-inkscape-font-specification:'sans-serif Bold';letter-spacing:0px;word-spacing:0px;fill:#000000;fill-opacity:1;stroke:none;stroke-width:0.81644559"
     id="text4493" />
  <g
     inkscape:groupmode="layer"
     id="layer2"
     inkscape:label="icon" />
  <path
     style="fill:#ff9000;fill-opacity:1;stroke:none;stroke-width:1.03606141;stroke-miterlimit:4;stroke-dasharray:none;stroke-opacity:1"
     d="M 15.998878,1.897597 C 7.8297767,1.8984005 1.207456,8.211488 1.206446,15.998877 1.2061206,23.787168 7.8288323,30.1016 15.998878,30.102403 24.169799,30.102779 30.793879,23.788002 30.793554,15.998877 30.792544,8.2106537 24.168855,1.8972208 15.998878,1.897597 Z m 0,2.849877 c 6.51885,-1.264e-4 11.803163,5.0371538 11.803428,11.251403 -2.66e-4,6.21425 -5.284579,11.251531 -11.803428,11.251405 C 9.4809046,27.249228 4.1979607,22.212292 4.1976949,15.998877 4.1979595,9.7854619 9.4809034,4.7485274 15.998878,4.747474 Z m -0.42636,1.1489267 C 9.6308912,6.0879599 4.9855796,10.76438 5.1962738,16.34221 5.4072861,21.920174 10.395964,26.286775 16.337721,26.094623 22.279349,25.903064 26.924661,21.226645 26.713966,15.648814 26.502953,10.070851 21.514276,5.7042488 15.572518,5.8964007 Z m 2.237266,2.2305337 c 1.875005,0.06361 3.380563,0.3276288 4.512679,0.7876435 1.50924,0.6067389 2.285985,1.5419341 2.333757,2.8049961 0.02451,0.648062 -0.17982,1.23786 -0.612611,1.76827 -0.433042,0.523798 -1.182828,1.097394 -2.250729,1.721146 l -1.090583,0.601392 c -0.773122,0.435465 -1.278414,0.782059 -1.512455,1.041215 -0.234291,0.25254 -0.345611,0.525966 -0.334356,0.823547 l 0.01796,0.446556 -6.280949,0.204203 -0.01795,-0.484703 c -0.0205,-0.542258 0.153649,-1.029627 0.520607,-1.458598 0.366708,-0.435585 1.151379,-0.999725 2.356198,-1.687486 l 1.090582,-0.608124 c 0.648049,-0.365215 1.11696,-0.704845 1.406987,-1.018775 0.301628,-0.314303 0.449084,-0.624823 0.437579,-0.929015 -0.01752,-0.462902 -0.308723,-0.814751 -0.875159,-1.054678 -0.566683,-0.246539 -1.349837,-0.3531 -2.347221,-0.320892 -0.939396,0.03035 -1.949979,0.175294 -3.031641,0.435335 -1.081908,0.25343 -2.2085366,0.61818 -3.3749716,1.092827 L 8.6408102,9.1771247 C 10.033599,8.8540685 11.30759,8.6063145 12.462337,8.436606 c 1.154746,-0.1697085 2.271724,-0.2725986 3.350289,-0.3074276 0.707446,-0.022844 1.372157,-0.023445 1.997158,-0.00224 z M 15.769991,19.043983 a 3.0198899,3.0198899 0 0 1 3.02042,3.02042 3.0198899,3.0198899 0 0 1 -3.02042,3.018177 3.0198899,3.0198899 0 0 1 -3.020422,-3.018177 3.0198899,3.0198899 0 0 1 3.020422,-3.02042 z"
     id="path4487"
     inkscape:connector-curvature="0" />
</svg>
