<svg xmlns="http://www.w3.org/2000/svg" viewBox="0 0 33 33" version="1.1">
	<path style="fill:#ff9000" d="m16.499 2.3976c-8.1692 0.0008-14.792 6.3139-14.793 14.101 0.0001 7.788 6.6228 14.103 14.793 14.103 8.171 0.001 14.795-6.314 14.795-14.103-0.001-7.7883-6.625-14.102-14.795-14.101zm0 2.8499c6.5188-0.0001264 11.803 5.0372 11.803 11.251-0.000266 6.2142-5.2846 11.252-11.803 11.251-6.5181-0.001-11.801-5.038-11.801-11.251 0-6.214 5.2829-11.25 11.801-11.252zm-0.42636 1.1489c-5.942 0.1916-10.587 4.8676-10.377 10.446 0.2113 5.578 5.2 9.945 11.142 9.753 5.941-0.192 10.587-4.868 10.376-10.446s-5.2-9.9448-11.141-9.7526zm2.2373 2.2305c1.875 0.06361 3.3806 0.32763 4.5127 0.78764 1.5092 0.60674 2.286 1.5419 2.3338 2.805 0.02451 0.64806-0.17982 1.2379-0.61261 1.7683-0.43304 0.5238-1.1828 1.0974-2.2507 1.7211l-1.0906 0.60139c-0.77312 0.43546-1.2784 0.78206-1.5125 1.0412-0.23429 0.25254-0.34561 0.52597-0.33436 0.82355l0.01796 0.44656-6.2809 0.2042-0.01795-0.4847c-0.0205-0.54226 0.15365-1.0296 0.52061-1.4586 0.36671-0.43558 1.1514-0.99972 2.3562-1.6875l1.0906-0.60812c0.64805-0.36522 1.117-0.70484 1.407-1.0188 0.30163-0.3143 0.44908-0.62482 0.43758-0.92902-0.01752-0.4629-0.30872-0.81475-0.87516-1.0547-0.56668-0.24654-1.3498-0.3531-2.3472-0.32089-0.9394 0.03035-1.95 0.17529-3.0316 0.43534-1.0819 0.25343-2.2085 0.61818-3.375 1.0928l-0.1168-3.1149c1.3932-0.323 2.6672-0.5708 3.8212-0.7405 1.1547-0.16971 2.2717-0.2726 3.3503-0.30743 0.70745-0.022844 1.3722-0.023445 1.9972-0.00224zm-2.04 10.917a3.0199 3.0199 0 0 1 3.0204 3.0204 3.0199 3.0199 0 0 1 -3.0204 3.0182 3.0199 3.0199 0 0 1 -3.0204 -3.0182 3.0199 3.0199 0 0 1 3.0204 -3.0204z"/>
</svg>
