<svg xmlns="http://www.w3.org/2000/svg" viewBox="0 0 33 33" version="1.1">
	<g aria-label="?" style="fill:#ff9000" transform="matrix(1.3685 0 0 .69608 -36.023 -4.7432)">
		<path style="stroke-width:.71319;fill:#ff9000" d="m53.885 7.8164a14.452 14.045 0 0 0 -14.453 14.043 14.452 14.045 0 0 0 14.453 14.047 14.452 14.045 0 0 0 14.451 -14.047 14.452 14.045 0 0 0 -14.451 -14.043zm0 4.0684a10.263 9.9739 0 0 1 10.262 9.9746 10.263 9.9739 0 0 1 -10.262 9.9746 10.263 9.9739 0 0 1 -10.264 -9.9746 10.263 9.9739 0 0 1 10.264 -9.9746zm2.4355 2.623c-1.14-0.04135-2.4485 0.01073-3.9238 0.1582-1.1246 0.11242-2.2855 0.29126-3.4824 0.53516-2.4142 0.78347-1.5062 2.6792-0.19726 2.6016 1.1158-0.32275 2.1631-0.53294 3.1426-0.63086 1.04-0.10396 1.8637-0.063 2.4688 0.125 0.60442 0.18186 0.92766 0.48742 0.9707 0.91797 0.02828 0.28293-0.10608 0.58287-0.4043 0.89844-0.28612 0.31436-0.75872 0.66595-1.416 1.0547l-1.1074 0.65039c-1.221 0.731-2.011 1.315-2.371 1.748-0.36032 0.42739-0.51526 0.89212-0.46484 1.3965l0.04492 0.45312 6.5469-0.6543-0.04102-0.41602c-0.02767-0.27678 0.07349-0.54196 0.30469-0.79492 0.23058-0.25911 0.73927-0.62044 1.5234-1.084l1.1074-0.64062c1.082-0.66104 1.8355-1.2527 2.2598-1.7734 0.42365-0.5269 0.60517-1.0925 0.54492-1.6953-0.11744-1.1748-0.98113-1.9892-2.5898-2.4434-0.80466-0.23017-1.776-0.3649-2.916-0.40625zm-3.1074 10.205a3.2083 2.8764 0 0 0 -3.209 2.877 3.2083 2.8764 0 0 0 3.209 2.877 3.2083 2.8764 0 0 0 3.209 -2.877 3.2083 2.8764 0 0 0 -3.209 -2.877z" transform="matrix(.71319 0 0 1.4022 -.049775 -.13444)"/>
	</g>
</svg>
