<svg xmlns="http://www.w3.org/2000/svg" viewBox="0 0 33 33"><path d="M16.5 2.792A14.105 13.709 0 0 0 2.396 16.5 14.105 13.709 0 0 0 16.5 30.209 14.105 13.709 0 0 0 30.605 16.5 14.105 13.709 0 0 0 16.5 2.792zm0 3.971A10.017 9.735 0 0 1 26.517 16.5a10.017 9.735 0 0 1-10.015 9.736A10.017 9.735 0 0 1 6.484 16.5a10.017 9.735 0 0 1 10.018-9.736zm2.378 2.56c-1.113-.04-2.39.01-3.83.155-1.098.11-2.23.284-3.399.522-2.356.765-1.47 2.615-.192 2.54a17.27 17.27 0 0 1 3.067-.616c1.015-.102 1.819-.062 2.41.122.59.177.905.475.947.896.027.276-.104.569-.395.877-.279.306-.74.65-1.382 1.03l-1.08.634c-1.192.713-1.963 1.283-2.315 1.706-.351.417-.503.87-.453 1.363l.043.442 6.39-.638-.04-.406c-.027-.27.072-.53.298-.776.225-.253.721-.606 1.486-1.058l1.081-.626c1.056-.645 1.792-1.222 2.206-1.73.413-.515.59-1.067.532-1.655-.115-1.147-.958-1.942-2.528-2.385-.785-.225-1.733-.356-2.846-.397zm-3.033 9.961a3.131 2.807 0 0 0-3.132 2.808 3.131 2.807 0 0 0 3.132 2.808 3.131 2.807 0 0 0 3.132-2.808 3.131 2.807 0 0 0-3.132-2.808z" fill="#ff9000"/></svg>