<svg xmlns="http://www.w3.org/2000/svg" viewBox="0 0 33 33"><path d="M16.499 2.398c-8.17 0-14.792 6.314-14.793 14.1 0 7.789 6.623 14.104 14.793 14.104 8.171 0 14.795-6.314 14.795-14.103-.001-7.789-6.625-14.102-14.795-14.101zm0 2.85c6.519 0 11.803 5.037 11.803 11.25 0 6.215-5.285 11.252-11.803 11.251-6.518 0-11.801-5.038-11.801-11.25 0-6.214 5.283-11.25 11.801-11.252zm-.426 1.148c-5.942.192-10.587 4.868-10.377 10.446.21 5.578 5.2 9.945 11.142 9.753 5.94-.192 10.587-4.868 10.376-10.446s-5.2-9.944-11.141-9.752zm2.237 2.23c1.875.065 3.38.329 4.513.789 1.509.606 2.286 1.541 2.333 2.805.025.648-.18 1.237-.612 1.768-.433.524-1.183 1.097-2.25 1.72l-1.091.602c-.774.436-1.279.782-1.513 1.042-.234.252-.346.526-.334.823l.018.447-6.281.204-.018-.485a2.06 2.06 0 0 1 .52-1.458c.367-.436 1.152-1 2.357-1.688l1.09-.608c.648-.365 1.117-.705 1.407-1.019.302-.314.45-.625.438-.929-.018-.463-.309-.815-.875-1.055-.567-.246-1.35-.353-2.348-.32-.939.03-1.95.175-3.031.435a22.765 22.765 0 0 0-3.375 1.093L9.14 9.677a47.994 47.994 0 0 1 3.821-.74 29.637 29.637 0 0 1 5.348-.31zm-2.04 10.918a3.02 3.02 0 0 1 3.02 3.02 3.02 3.02 0 0 1-3.02 3.018 3.02 3.02 0 0 1-3.02-3.018 3.02 3.02 0 0 1 3.02-3.02z" fill="#ff9000"/></svg>