<svg xmlns="http://www.w3.org/2000/svg" viewBox="0 0 33 33"><path d="M8.014 7.932c-1.736 0-3.45 1.362-3.844 3.052L1.6 22.015c-.394 1.691.688 3.053 2.423 3.053h20.963c1.736 0 3.45-1.362 3.844-3.053l2.57-11.03c.395-1.691-.687-3.053-2.422-3.053zm0 1.523h1.404c.494 0 .78.383.643.857l-.514 1.784c-.137.474-.645.857-1.139.857H7.004c-.494 0-.782-.383-.645-.857l.516-1.783c.136-.474.644-.857 1.138-.857zm4.865 0h1.404c.494 0 .782.383.645.857l-.516 1.784c-.137.474-.645.857-1.139.857H11.87c-.494 0-.781-.383-.644-.857l.516-1.783c.136-.475.644-.858 1.138-.858zm4.865 0h1.404c.494 0 .782.383.645.857l-.514 1.784c-.137.474-.645.857-1.138.857h-1.405c-.494 0-.781-.383-.644-.857l.514-1.783c.137-.475.645-.858 1.138-.858zm4.867 0h1.405c.493 0 .781.383.644.857l-.515 1.784c-.137.474-.645.857-1.14.857h-1.403c-.494 0-.782-.383-.645-.857l.517-1.783c.137-.474.644-.857 1.138-.857zM9.297 14.768h1.405c.493 0 .78.383.642.857l-.513 1.784c-.137.474-.645.857-1.14.857H8.289c-.494 0-.782-.383-.645-.857l.516-1.783c.137-.475.644-.858 1.138-.858zm4.865 0h1.405c.494 0 .781.383.644.857l-.515 1.784c-.137.474-.645.857-1.139.857h-1.404c-.494 0-.782-.383-.645-.857l.516-1.783c.137-.475.645-.858 1.139-.858zm4.866 0h1.404c.494 0 .781.383.645.857l-.514 1.783c-.137.475-.645.858-1.14.858H18.02c-.494 0-.782-.383-.645-.858l.515-1.783c.137-.474.645-.857 1.139-.857zm4.867 0h1.404c.494 0 .782.383.645.857l-.516 1.784c-.137.474-.645.857-1.139.857h-1.404c-.494 0-.781-.383-.644-.857l.517-1.783c.136-.475.644-.858 1.138-.858zM9.64 19.852h12.463c.495 0 .781.38.64.855l-.529 1.786c-.14.474-.651.857-1.146.857H8.602c-.495 0-.781-.383-.64-.857l.528-1.786c.141-.474.654-.855 1.149-.855zm-4.434.023h1.405c.493 0 .781.381.644.856l-.515 1.785c-.137.475-.645.858-1.14.858H4.198c-.494 0-.78-.383-.643-.858l.514-1.785c.137-.474.644-.855 1.138-.855zm19.971 0h1.405c.493 0 .781.381.644.856l-.515 1.785c-.137.475-.645.858-1.14.858H24.17c-.494 0-.782-.383-.645-.858l.514-1.785c.137-.475.644-.856 1.138-.856z" fill="#ff8000"/></svg>