<?xml version="1.0" encoding="UTF-8" standalone="no"?>
<!-- Created with Inkscape (http://www.inkscape.org/) -->

<svg
   xmlns:dc="http://purl.org/dc/elements/1.1/"
   xmlns:cc="http://creativecommons.org/ns#"
   xmlns:rdf="http://www.w3.org/1999/02/22-rdf-syntax-ns#"
   xmlns:svg="http://www.w3.org/2000/svg"
   xmlns="http://www.w3.org/2000/svg"
   xmlns:sodipodi="http://sodipodi.sourceforge.net/DTD/sodipodi-0.dtd"
   xmlns:inkscape="http://www.inkscape.org/namespaces/inkscape"
   version="1.1"
   id="svg2"
   width="32"
   height="32"
   viewBox="0 0 32 32"
   sodipodi:docname="kbd.svg"
   inkscape:version="0.92.1 r"
   inkscape:export-filename="/home/kibo/Kibojoe-Linux/Manjaro/pngs/kbd.png"
   inkscape:export-xdpi="96"
   inkscape:export-ydpi="96">
  <metadata
     id="metadata8">
    <rdf:RDF>
      <cc:Work
         rdf:about="">
        <dc:format>image/svg+xml</dc:format>
        <dc:type
           rdf:resource="http://purl.org/dc/dcmitype/StillImage" />
        <dc:title></dc:title>
      </cc:Work>
    </rdf:RDF>
  </metadata>
  <defs
     id="defs6" />
  <sodipodi:namedview
     pagecolor="#ffffff"
     bordercolor="#666666"
     borderopacity="1"
     objecttolerance="10"
     gridtolerance="10"
     guidetolerance="10"
     inkscape:pageopacity="0"
     inkscape:pageshadow="2"
     inkscape:window-width="640"
     inkscape:window-height="480"
     id="namedview4"
     showgrid="false"
     inkscape:zoom="2.7289902"
     inkscape:cx="46.637739"
     inkscape:cy="-5.6304535"
     inkscape:current-layer="layer1" />
  <g
     inkscape:groupmode="layer"
     id="layer1"
     inkscape:label="icon">
    <path
       inkscape:connector-curvature="0"
       style="fill:#ff8000;fill-opacity:1;stroke:none;stroke-width:1.35897255;stroke-miterlimit:4;stroke-dasharray:none;stroke-opacity:1"
       d="m 7.5136717,7.431641 c -1.7358954,0 -3.4500354,1.3620773 -3.84375,3.052734 l -2.5703125,11.03125 c -0.39371476,1.690657 0.6879327,3.052734 2.4238281,3.052734 H 24.486328 c 1.735896,0 3.450035,-1.362077 3.84375,-3.052734 l 2.570313,-11.03125 C 31.294105,8.7937183 30.21246,7.431641 28.476562,7.431641 Z m 0,1.5234375 h 1.4042969 c 0.4938871,0 0.7794731,0.3828863 0.6425781,0.8574219 L 9.0468748,11.595703 c -0.136895,0.474536 -0.6447846,0.857422 -1.1386719,0.857422 H 6.503906 c -0.4938872,0 -0.7814262,-0.382886 -0.6445312,-0.857422 L 6.3749998,9.8125004 C 6.5118948,9.3379648 7.0197844,8.9550785 7.5136717,8.9550785 Z m 4.8652343,0 h 1.404297 c 0.493887,0 0.781426,0.3828863 0.644531,0.8574219 l -0.515625,1.7832026 c -0.136895,0.474536 -0.644788,0.857422 -1.138671,0.857422 h -1.404297 c -0.493888,0 -0.781427,-0.382886 -0.644532,-0.857422 l 0.515625,-1.7832026 c 0.136895,-0.4745356 0.644785,-0.8574219 1.138672,-0.8574219 z m 4.865235,0 h 1.404297 c 0.493887,0 0.781426,0.3828863 0.644531,0.8574219 l -0.513672,1.7832026 c -0.136895,0.474536 -0.644785,0.857422 -1.138672,0.857422 h -1.404297 c -0.493887,0 -0.781426,-0.382886 -0.644531,-0.857422 l 0.513672,-1.7832026 c 0.136895,-0.4745356 0.644784,-0.8574219 1.138672,-0.8574219 z m 4.867187,0 h 1.404297 c 0.493887,0 0.781426,0.3828863 0.644531,0.8574219 l -0.515625,1.7832026 c -0.136895,0.474536 -0.644784,0.857422 -1.138672,0.857422 h -1.404297 c -0.493887,0 -0.781426,-0.382886 -0.644531,-0.857422 L 20.972656,9.8125004 C 21.109551,9.3379648 21.617441,8.9550785 22.111328,8.9550785 Z M 8.7968748,14.267578 h 1.4042972 c 0.493888,0 0.779473,0.382886 0.642578,0.857422 l -0.513672,1.783203 c -0.136895,0.474536 -0.6447843,0.857422 -1.138672,0.857422 H 7.7871092 c -0.4938872,0 -0.7814263,-0.382886 -0.6445313,-0.857422 L 7.6582029,15.125 c 0.136895,-0.474536 0.6447846,-0.857422 1.1386719,-0.857422 z m 4.8652342,0 h 1.404297 c 0.493887,0 0.781424,0.382886 0.644532,0.857422 l -0.515626,1.783203 c -0.136892,0.474536 -0.644784,0.857422 -1.138671,0.857422 h -1.404297 c -0.493888,0 -0.781427,-0.382886 -0.644532,-0.857422 L 12.523438,15.125 c 0.136891,-0.474536 0.644784,-0.857422 1.138671,-0.857422 z m 4.865235,0 h 1.404297 c 0.493887,0 0.781426,0.382886 0.644531,0.857422 L 20.0625,16.908203 c -0.136895,0.474536 -0.644785,0.857422 -1.138672,0.857422 h -1.404297 c -0.493887,0 -0.781426,-0.382886 -0.644531,-0.857422 L 17.388672,15.125 c 0.136895,-0.474536 0.644784,-0.857422 1.138672,-0.857422 z m 4.867187,0 h 1.404297 c 0.493887,0 0.781426,0.382886 0.644531,0.857422 l -0.515625,1.783203 c -0.136895,0.474536 -0.644784,0.857422 -1.138672,0.857422 h -1.404296 c -0.493887,0 -0.781427,-0.382886 -0.644532,-0.857422 L 22.255859,15.125 c 0.136895,-0.474536 0.644785,-0.857422 1.138672,-0.857422 z M 9.1386717,19.351562 H 21.601562 c 0.494928,0 0.781229,0.380933 0.640626,0.855469 l -0.529297,1.785157 c -0.140604,0.474535 -0.651557,0.857421 -1.146485,0.857421 H 8.1015623 c -0.4949279,0 -0.7812282,-0.382886 -0.640625,-0.857421 l 0.5292969,-1.785157 c 0.1406032,-0.474536 0.6535096,-0.855469 1.1484375,-0.855469 z m -4.4335938,0.02344 h 1.4042969 c 0.4938872,0 0.7814264,0.380933 0.6445312,0.855469 l -0.515625,1.785156 c -0.1368949,0.474534 -0.6447846,0.85742 -1.1386718,0.85742 H 3.6953123 c -0.4938872,0 -0.7794732,-0.382886 -0.6425781,-0.857422 L 3.566406,20.230469 C 3.7033013,19.755933 4.2111907,19.375 4.7050779,19.375 Z m 19.9707031,0 h 1.404297 c 0.493887,0 0.781426,0.380933 0.644531,0.855469 l -0.515625,1.785156 c -0.136895,0.474536 -0.644784,0.857422 -1.138672,0.857422 h -1.402343 c -0.493887,0 -0.781427,-0.382886 -0.644531,-0.857422 l 0.513671,-1.785156 c 0.136895,-0.474536 0.644785,-0.855469 1.138672,-0.855469 z"
       id="rect4489" />
  </g>
</svg>
