<svg xmlns="http://www.w3.org/2000/svg" viewBox="0 0 33 33" version="1.1">
	<path style="fill:#ff8000" d="m8.0137 7.9316c-1.7359 0-3.45 1.3621-3.8438 3.0527l-2.5703 11.031c-0.39371 1.6907 0.68793 3.0527 2.4238 3.0527h20.963c1.7359 0 3.45-1.3621 3.8438-3.0527l2.5703-11.031c0.394-1.6903-0.688-3.0524-2.423-3.0524zm0 1.5234h1.4043c0.49389 0 0.77947 0.38289 0.64258 0.85742l-0.51367 1.7832c-0.1369 0.47454-0.64478 0.85742-1.1387 0.85742h-1.4047c-0.49389 0-0.78143-0.38289-0.64453-0.85742l0.5156-1.783c0.1369-0.474 0.6448-0.8569 1.1387-0.8569zm4.8652 0h1.4043c0.49389 0 0.78143 0.38289 0.64453 0.85742l-0.51562 1.7832c-0.1369 0.47454-0.64479 0.85742-1.1387 0.85742h-1.4043c-0.49389 0-0.78143-0.38289-0.64453-0.85742l0.516-1.783c0.1369-0.47454 0.64478-0.85742 1.1387-0.85742zm4.8652 0h1.4043c0.49389 0 0.78143 0.38289 0.64453 0.85742l-0.51367 1.7832c-0.1369 0.47454-0.64478 0.85742-1.1387 0.85742h-1.4043c-0.49389 0-0.78143-0.38289-0.64453-0.85742l0.514-1.783c0.1369-0.47454 0.64478-0.85742 1.1387-0.85742zm4.8672 0h1.4043c0.49389 0 0.78143 0.38289 0.64453 0.85742l-0.51562 1.7832c-0.1369 0.47454-0.64478 0.85742-1.1387 0.85742h-1.4043c-0.49389 0-0.78143-0.38289-0.64453-0.85742l0.517-1.783c0.137-0.474 0.644-0.8569 1.138-0.8569zm-13.314 5.313h1.4043c0.49389 0 0.77947 0.38289 0.64258 0.85742l-0.51367 1.7832c-0.1369 0.47454-0.64478 0.85742-1.1387 0.85742h-1.4042c-0.49389 0-0.78143-0.38289-0.64453-0.85742l0.5156-1.783c0.1369-0.47454 0.64478-0.85742 1.1387-0.85742zm4.8652 0h1.4043c0.49389 0 0.78142 0.38289 0.64453 0.85742l-0.51563 1.7832c-0.13689 0.47454-0.64478 0.85742-1.1387 0.85742h-1.4043c-0.49389 0-0.78143-0.38289-0.64453-0.85742l0.516-1.783c0.13689-0.47454 0.64478-0.85742 1.1387-0.85742zm4.8652 0h1.4043c0.49389 0 0.78143 0.38289 0.64453 0.85742l-0.514 1.783c-0.1369 0.47454-0.64478 0.85742-1.1387 0.85742h-1.4043c-0.49389 0-0.78143-0.38289-0.64453-0.85742l0.515-1.783c0.1369-0.47454 0.64478-0.85742 1.1387-0.85742zm4.8672 0h1.4043c0.49389 0 0.78143 0.38289 0.64453 0.85742l-0.51562 1.7832c-0.1369 0.47454-0.64478 0.85742-1.1387 0.85742h-1.4043c-0.49389 0-0.78143-0.38289-0.64453-0.85742l0.517-1.783c0.1369-0.47454 0.64478-0.85742 1.1387-0.85742zm-14.255 5.084h12.463c0.49493 0 0.78123 0.38093 0.64063 0.85547l-0.5293 1.7852c-0.1406 0.47454-0.65156 0.85742-1.1465 0.85742h-12.466c-0.49493 0-0.78123-0.38289-0.64062-0.85742l0.5293-1.7852c0.1406-0.47454 0.65351-0.85547 1.1484-0.85547zm-4.4336 0.02344h1.4043c0.49389 0 0.78143 0.38093 0.64453 0.85547l-0.51562 1.7852c-0.13689 0.47453-0.64478 0.85742-1.1387 0.85742h-1.4043c-0.49389 0-0.77947-0.38289-0.64258-0.85742l0.5137-1.785c0.1369-0.474 0.6448-0.855 1.1387-0.855zm19.971 0h1.4043c0.49389 0 0.78143 0.38093 0.64453 0.85547l-0.51562 1.7852c-0.1369 0.47454-0.64478 0.85742-1.1387 0.85742h-1.4023c-0.49389 0-0.78143-0.38289-0.64453-0.85742l0.51367-1.7852c0.1369-0.47454 0.64478-0.85547 1.1387-0.85547z"/>
</svg>
