<svg xmlns="http://www.w3.org/2000/svg" viewBox="0 0 33 33"><path d="M16.5 2.941a13.558 13.558 0 0 0-1.047.045 23.876 23.876 0 0 0-3.795 6.041c2.35-.623 4.6-.768 6.695-.574a19.98 19.98 0 0 1 3.45.639 23.878 23.878 0 0 0-3.785-6.057 13.558 13.558 0 0 0-1.518-.094zm-3.227.405A13.558 13.558 0 0 0 3.34 13.28c2.2-1.7 4.37-2.893 6.475-3.672.961-2.533 2.264-4.653 3.458-6.263zm6.984.138c1.18 1.612 2.454 3.707 3.391 6.203 2.339.875 4.323 2.05 5.893 3.165a13.558 13.558 0 0 0-9.282-9.368zm-3.875 6.35c-1.714.014-3.523.3-5.404.936-1.147 3.34-1.572 7.316-.078 11.686 4.357 1.486 8.321 1.06 11.656-.08 1.448-4.297 1.041-8.21-.074-11.51a19.223 19.223 0 0 0-4.264-.949c-.598-.06-1.21-.089-1.834-.084zm-7.19 1.637c-2 .903-4.074 2.222-6.2 4.07a13.558 13.558 0 0 0-.051.959 13.558 13.558 0 0 0 .064 1.225c2.101 1.823 4.154 3.144 6.133 4.04-1.017-3.76-.787-7.263.055-10.294zm15.067.088c.816 2.99 1.035 6.434.05 10.129a24.183 24.183 0 0 0 5.614-3.418 13.558 13.558 0 0 0 .135-1.77 13.558 13.558 0 0 0-.086-1.463 24.183 24.183 0 0 0-5.713-3.478zM3.442 20.072a13.558 13.558 0 0 0 9.607 9.521c-1.507-2.025-2.57-4.02-3.3-5.96-2.051-.768-4.165-1.922-6.307-3.562zm25.998.418c-1.54 1.082-3.47 2.214-5.73 3.066-.714 1.917-1.753 3.887-3.221 5.887a13.558 13.558 0 0 0 8.95-8.953zm-7.584 3.671c-3.021.837-6.512 1.065-10.256.059.848 1.869 2.052 3.8 3.72 5.777a13.558 13.558 0 0 0 1.18.061 13.558 13.558 0 0 0 1.659-.12c1.66-1.978 2.856-3.908 3.697-5.777z" fill="#ff8000"/></svg>