<svg xmlns="http://www.w3.org/2000/svg" viewBox="0 0 33 33" version="1.1">
	<path style="fill:#ff8000" d="m16.5 2.9414a13.558 13.558 0 0 0 -1.0469 0.04492c-1.0875 1.2554-2.5928 3.286-3.7949 6.041 2.3492-0.62378 4.6-0.76816 6.6953-0.57422 1.2059 0.11162 2.3553 0.33867 3.4492 0.63867-1.192-2.7535-2.692-4.7873-3.785-6.0566a13.558 13.558 0 0 0 -1.518 -0.0938zm-3.227 0.4043a13.558 13.558 0 0 0 -9.9332 9.9353c2.2009-1.7 4.3705-2.893 6.4747-3.6716 0.9615-2.5332 2.2645-4.6531 3.4585-6.2637zm6.9844 0.13867c1.1795 1.6112 2.4541 3.7062 3.3906 6.2031 2.3388 0.87454 4.323 2.0492 5.8926 3.1641a13.558 13.558 0 0 0 -9.282 -9.3676zm-3.875 6.3496c-1.7143 0.01414-3.5234 0.3-5.4043 0.93555-1.147 3.3412-1.5723 7.316-0.07813 11.686 4.3575 1.4865 8.3213 1.061 11.656-0.08008 1.4477-4.2967 1.0415-8.209-0.07422-11.51-1.328-0.451-2.752-0.796-4.264-0.948-0.598-0.0601-1.21-0.0892-1.834-0.084zm-7.1895 1.6367c-2.0017 0.90327-4.0753 2.2224-6.2012 4.0703a13.558 13.558 0 0 0 -0.05078 0.95898 13.558 13.558 0 0 0 0.06445 1.2246c2.1011 1.8233 4.1532 3.144 6.1328 4.041-1.0176-3.7607-0.78702-7.2637 0.05469-10.295zm15.066 0.08789c0.8158 2.99 1.0354 6.4341 0.05078 10.129 2.4469-1.0676 4.3421-2.3754 5.6133-3.418a13.558 13.558 0 0 0 0.13477 -1.7695 13.558 13.558 0 0 0 -0.08594 -1.4629c-1.2798-1.0559-3.2095-2.3928-5.7129-3.4785zm-20.817 8.513a13.558 13.558 0 0 0 9.6074 9.5215c-1.507-2.025-2.571-4.02-3.301-5.961-2.0503-0.767-4.1645-1.921-6.3066-3.561zm25.998 0.41797c-1.5393 1.0827-3.4707 2.2141-5.7305 3.0664-0.71336 1.9173-1.7524 3.887-3.2207 5.8867a13.558 13.558 0 0 0 8.9512 -8.9531zm-7.584 3.6719c-3.0213 0.8368-6.5117 1.0648-10.256 0.05859 0.84854 1.869 2.0522 3.7991 3.7207 5.7773a13.558 13.558 0 0 0 1.18 0.061 13.558 13.558 0 0 0 1.658 -0.12c1.6605-1.9787 2.8559-3.9082 3.6973-5.7773z"/>
</svg>
