<?xml version="1.0" encoding="UTF-8" standalone="no"?>
<!-- Created with Inkscape (http://www.inkscape.org/) -->

<svg
   xmlns:dc="http://purl.org/dc/elements/1.1/"
   xmlns:cc="http://creativecommons.org/ns#"
   xmlns:rdf="http://www.w3.org/1999/02/22-rdf-syntax-ns#"
   xmlns:svg="http://www.w3.org/2000/svg"
   xmlns="http://www.w3.org/2000/svg"
   xmlns:sodipodi="http://sodipodi.sourceforge.net/DTD/sodipodi-0.dtd"
   xmlns:inkscape="http://www.inkscape.org/namespaces/inkscape"
   version="1.1"
   id="svg2"
   width="32"
   height="32"
   viewBox="0 0 32 32"
   sodipodi:docname="lang.svg"
   inkscape:version="0.92.1 r"
   inkscape:export-filename="/home/kibo/Kibojoe-Linux/Manjaro/pngs/lang.png"
   inkscape:export-xdpi="96"
   inkscape:export-ydpi="96">
  <metadata
     id="metadata8">
    <rdf:RDF>
      <cc:Work
         rdf:about="">
        <dc:format>image/svg+xml</dc:format>
        <dc:type
           rdf:resource="http://purl.org/dc/dcmitype/StillImage" />
        <dc:title></dc:title>
      </cc:Work>
    </rdf:RDF>
  </metadata>
  <defs
     id="defs6" />
  <sodipodi:namedview
     pagecolor="#ffffff"
     bordercolor="#666666"
     borderopacity="1"
     objecttolerance="10"
     gridtolerance="10"
     guidetolerance="10"
     inkscape:pageopacity="0"
     inkscape:pageshadow="2"
     inkscape:window-width="640"
     inkscape:window-height="480"
     id="namedview4"
     showgrid="false"
     inkscape:zoom="3.859375"
     inkscape:cx="-0.3742879"
     inkscape:cy="-4.3108894"
     inkscape:current-layer="svg2" />
  <path
     style="fill:#ff8000;fill-opacity:1;stroke:none;stroke-width:0.77486914"
     d="m 15.999999,2.441408 a 13.558129,13.558129 0 0 0 -1.046875,0.04492 c -1.087509,1.255351 -2.592804,3.285994 -3.794922,6.041016 2.349166,-0.623785 4.599957,-0.768159 6.695313,-0.574219 1.205929,0.111617 2.355256,0.33867 3.449218,0.638672 C 20.111129,5.838309 18.610774,3.804511 17.517577,2.535156 A 13.558129,13.558129 0 0 0 15.999999,2.441406 Z M 12.773437,2.845705 A 13.558129,13.558129 0 0 0 2.839843,12.781252 C 5.04066,11.081193 7.210322,9.887917 9.314452,9.109377 10.275541,6.576246 11.579434,4.45633 12.773437,2.845705 Z m 6.984374,0.138672 c 1.179543,1.611237 2.454074,3.706245 3.390626,6.203125 2.338804,0.874539 4.323011,2.049236 5.892578,3.164062 A 13.558129,13.558129 0 0 0 19.757811,2.984377 Z m -3.875,6.349609 c -1.714293,0.01414 -3.523398,0.299999 -5.404296,0.935547 -1.147038,3.341229 -1.572251,7.315985 -0.07813,11.685547 4.357482,1.486456 8.321298,1.06105 11.65625,-0.08008 1.447694,-4.296745 1.041463,-8.20903 -0.07422,-11.509766 C 20.653168,9.915153 19.2293,9.569782 17.71679,9.417969 17.118524,9.357919 16.506637,9.328839 15.882805,9.333989 Z m -7.189453,1.636719 c -2.001667,0.903269 -4.075272,2.222442 -6.201171,4.070313 a 13.558129,13.558129 0 0 0 -0.05078,0.958984 13.558129,13.558129 0 0 0 0.06445,1.224609 c 2.101109,1.8233 4.153156,3.143972 6.132813,4.041016 C 7.621048,17.504961 7.851646,14.001954 8.69336,10.970705 Z m 15.066407,0.08789 c 0.815796,2.98996 1.035397,6.434095 0.05078,10.128906 2.446875,-1.067642 4.342107,-2.375424 5.613281,-3.417969 a 13.558129,13.558129 0 0 0 0.134766,-1.769531 13.558129,13.558129 0 0 0 -0.08594,-1.462891 c -1.279824,-1.055914 -3.209489,-2.392752 -5.71289,-3.478515 z m -20.81836,8.513672 a 13.558129,13.558129 0 0 0 9.607422,9.521484 C 11.041926,27.069161 9.978489,25.074202 9.248046,23.132813 7.19768,22.366128 5.083533,21.212187 2.941405,19.572267 Z m 25.998047,0.417968 c -1.539288,1.082695 -3.470728,2.214104 -5.730469,3.066407 -0.713361,1.917347 -1.752371,3.887038 -3.220703,5.886718 a 13.558129,13.558129 0 0 0 8.951172,-8.953125 z m -7.583984,3.671875 c -3.021302,0.836803 -6.511707,1.06478 -10.25586,0.05859 0.848535,1.869037 2.052199,3.799058 3.720703,5.777344 a 13.558129,13.558129 0 0 0 1.179688,0.06055 13.558129,13.558129 0 0 0 1.658203,-0.119141 c 1.660453,-1.978717 2.855869,-3.908244 3.697266,-5.777343 z"
     id="path4487"
     inkscape:connector-curvature="0" />
  <g
     inkscape:groupmode="layer"
     id="layer1"
     inkscape:label="icon"
     style="display:inline" />
</svg>
