<svg xmlns="http://www.w3.org/2000/svg" viewBox="0 0 33 33"><path d="M19.706 3.221a4.385 10.06 0 0 1-3.383 3.668 4.385 10.06 0 0 1-3.359-3.587A13.672 13.672 0 0 0 9.381 4.85a10.06 4.385 45 0 1 .145 4.854 10.06 4.385 45 0 1-4.793-.112 13.672 13.672 0 0 0-1.47 3.611 10.06 4.385 0 0 1 3.45 3.297 10.06 4.385 0 0 1-3.451 3.302 13.672 13.672 0 0 0 1.473 3.606 4.385 10.06 45 0 1 3.183-.752 4.385 10.06 45 0 1 1.608.638 4.385 10.06 45 0 1-.135 4.856 13.672 13.672 0 0 0 3.582 1.537 4.385 10.06 0 0 1 3.35-3.578 4.385 10.06 0 0 1 3.383 3.67 13.672 13.672 0 0 0 3.634-1.454 10.06 4.385 45 0 1-.223-5.031 10.06 4.385 45 0 1 1.768-.645 10.06 4.385 45 0 1 3.325.9 13.672 13.672 0 0 0 1.521-3.616 10.06 4.385 0 0 1-3.8-3.433 10.06 4.385 0 0 1 3.808-3.43 13.672 13.672 0 0 0-1.523-3.619 4.385 10.06 45 0 1-5.098.254 4.385 10.06 45 0 1 .226-5.036 13.672 13.672 0 0 0-3.637-1.448zM18.1 9.863a6.832 6.832 0 0 1 1.818.725 2.192 5.027 45 0 0-.114 2.517 2.192 5.027 45 0 0 2.548-.128 6.832 6.832 0 0 1 .763 1.81A5.027 2.192 0 0 0 21.21 16.5a5.027 2.192 0 0 0 1.9 1.717 6.832 6.832 0 0 1-.76 1.806 5.027 2.192 45 0 0-1.66-.45 5.027 2.192 45 0 0-.886.322 5.027 2.192 45 0 0 .112 2.514 6.832 6.832 0 0 1-1.816.728 2.192 5.027 0 0 0-1.69-1.836 2.192 5.027 0 0 0-1.674 1.79 6.832 6.832 0 0 1-1.79-.77 2.192 5.027 45 0 0 .068-2.426 2.192 5.027 45 0 0-.804-.319 2.192 5.027 45 0 0-1.59.376 6.832 6.832 0 0 1-.737-1.803 5.027 2.192 0 0 0 1.725-1.649 5.027 2.192 0 0 0-1.725-1.648 6.832 6.832 0 0 1 .735-1.804 5.027 2.192 45 0 0 2.396.056 5.027 2.192 45 0 0-.072-2.425 6.832 6.832 0 0 1 1.789-.775 2.192 5.027 0 0 0 1.68 1.793A2.192 5.027 0 0 0 18.1 9.863z" fill="#ff9100"/></svg>