<svg xmlns="http://www.w3.org/2000/svg" viewBox="0 0 33 33" version="1.1">
	<path style="fill:#ff9100" d="m19.706 3.2211a4.3852 10.06 0 0 1 -3.383 3.6678 4.3852 10.06 0 0 1 -3.359 -3.5867 13.672 13.672 0 0 0 -3.583 1.5475 10.06 4.3852 45 0 1 0.1449 4.8547 10.06 4.3852 45 0 1 -4.7926 -0.1121 13.672 13.672 0 0 0 -1.4699 3.6107 10.06 4.3852 0 0 1 3.4504 3.297 10.06 4.3852 0 0 1 -3.4521 3.302 13.672 13.672 0 0 0 1.4733 3.6057 4.3852 10.06 45 0 1 3.183 -0.75219 4.3852 10.06 45 0 1 1.6079 0.63832 4.3852 10.06 45 0 1 -0.13457 4.8564 13.672 13.672 0 0 0 3.5815 1.5372 4.3852 10.06 0 0 1 3.3503 -3.5781 4.3852 10.06 0 0 1 3.3831 3.6695 13.672 13.672 0 0 0 3.6333 -1.4543 10.06 4.3852 45 0 1 -0.22255 -5.0307 10.06 4.3852 45 0 1 1.7683 -0.64522 10.06 4.3852 45 0 1 3.3245 0.90055 13.672 13.672 0 0 0 1.5216 -3.616 10.06 4.3852 0 0 1 -3.801 -3.433 10.06 4.3852 0 0 1 3.809 -3.43 13.672 13.672 0 0 0 -1.523 -3.6192 4.3852 10.06 45 0 1 -5.098 0.2536 4.3852 10.06 45 0 1 0.226 -5.0358 13.672 13.672 0 0 0 -3.637 -1.4475zm-1.6062 6.642a6.8322 6.8322 0 0 1 1.8184 0.72458 2.1915 5.0274 45 0 0 -0.11386 2.5171 2.1915 5.0274 45 0 0 2.5481 -0.12766 6.8322 6.8322 0 0 1 0.76254 1.8097 5.0274 2.1915 0 0 0 -1.9046 1.7131 5.0274 2.1915 0 0 0 1.8994 1.7166 6.8322 6.8322 0 0 1 -0.75909 1.8063 5.0274 2.1915 45 0 0 -1.6614 -0.45028 5.0274 2.1915 45 0 0 -0.88503 0.32261 5.0274 2.1915 45 0 0 0.11214 2.5136 6.8322 6.8322 0 0 1 -1.8166 0.72804 2.1915 5.0274 0 0 0 -1.689 -1.8356 2.1915 5.0274 0 0 0 -1.6752 1.789 6.8322 6.8322 0 0 1 -1.789 -0.76944 2.1915 5.0274 45 0 0 0.06728 -2.4256 2.1915 5.0274 45 0 0 -0.804 -0.319 2.1915 5.0274 45 0 0 -1.59 0.376 6.8322 6.8322 0 0 1 -0.737 -1.803 5.0274 2.1915 0 0 0 1.725 -1.649 5.0274 2.1915 0 0 0 -1.725 -1.648 6.8322 6.8322 0 0 1 0.73494 -1.8046 5.0274 2.1915 45 0 0 2.3963 0.05693 5.0274 2.1915 45 0 0 -0.07246 -2.4256 6.8322 6.8322 0 0 1 1.789 -0.77462 2.1915 5.0274 0 0 0 1.6803 1.7925 2.1915 5.0274 0 0 0 1.689 -1.8339z"/>
</svg>
