<svg xmlns="http://www.w3.org/2000/svg" viewBox="0 0 33 33" version="1.1">
	<path style="fill:#ff9000" d="m16.256 2.3672c-2.074-0.0051-4.041 1.4227-5.485 3.9805-0.383 0.6874-0.723 1.446-1.0151 2.2636 1.4111-1.6329 4.2721-2.5005 7.2711-2.2051 2.567 0.2564 4.841 1.3281 6.026 2.8399-0.951-0.775-2.359-0.9928-4.002-0.6191-0.505-0.0444-1.014-0.073-1.526-0.086-1.338-0.0296-2.683 0.0487-3.994 0.2324-1.761-0.3044-3.219 0.0414-4.1189 0.9766-0.994 0.338-1.9155 0.741-2.7441 1.201-5.608 3.164-5.7514 8.213-0.3203 11.278 0.6874 0.383 1.446 0.723 2.2636 1.015-1.6329-1.411-2.5005-4.272-2.2051-7.271 0.2564-2.568 1.329-4.843 2.8418-6.0277-0.7781 0.9527-0.996 2.3647-0.6191 4.0137-0.1545 1.82-0.1048 3.689 0.1465 5.498-0.6393 3.67 1.5576 5.75 5.1896 4.914 1.816 0.154 3.679 0.105 5.484-0.144 1.739 0.306 3.186-0.02 4.094-0.922 0.948-0.946 1.243-2.459 0.83-4.258 0.156-1.823 0.107-3.694-0.144-5.506 0.307-1.767-0.04-3.23-0.979-4.1308-0.338-0.9934-0.741-1.9142-1.201-2.7422-1.549-2.7445-3.638-4.2959-5.793-4.3008zm7.662 7.2226c1.869 1.2932 2.921 4.3702 2.611 7.6372-0.237 2.474-1.226 4.688-2.648 5.931 0.884-0.319 1.706-0.691 2.451-1.109 5.608-3.164 5.751-8.213 0.32-11.278-0.817-0.457-1.736-0.8543-2.734-1.1812zm-11.148 2.3182h7.46c0.7 0 1.262 0.564 1.262 1.264v1.275c0 0.7-0.562 1.264-1.262 1.264h-1.83v5.035c0 0.7-0.562 1.262-1.261 1.262h-1.278c-0.699 0-1.261-0.562-1.261-1.262v-5.035h-1.83c-0.7 0-1.262-0.564-1.262-1.264v-1.275c0-0.7 0.562-1.264 1.262-1.264zm-2.9282 11.973c0.3192 0.884 0.6912 1.706 1.1092 2.451 3.164 5.608 8.213 5.751 11.278 0.32 0.457-0.817 0.854-1.736 1.181-2.734-1.293 1.869-4.37 2.921-7.637 2.611-2.474-0.237-4.688-1.226-5.9312-2.648z"/>
</svg>
