<svg xmlns="http://www.w3.org/2000/svg" viewBox="0 0 33 33"><path d="M16.256 2.367c-2.074-.005-4.041 1.423-5.485 3.98a15.076 15.076 0 0 0-1.015 2.264c1.411-1.633 4.272-2.5 7.271-2.205 2.567.257 4.841 1.328 6.026 2.84-.951-.775-2.359-.993-4.002-.619a24.536 24.536 0 0 0-1.526-.086 24.913 24.913 0 0 0-3.994.232c-1.761-.304-3.219.042-4.119.977-.994.338-1.915.741-2.744 1.201-5.608 3.164-5.751 8.213-.32 11.278.687.383 1.446.723 2.263 1.015-1.633-1.411-2.5-4.272-2.205-7.271.257-2.568 1.33-4.843 2.842-6.028-.778.953-.996 2.365-.62 4.014a24.915 24.915 0 0 0 .147 5.498c-.639 3.67 1.558 5.75 5.19 4.914 1.816.154 3.679.105 5.484-.144 1.739.306 3.186-.02 4.094-.922.948-.946 1.243-2.459.83-4.258a24.913 24.913 0 0 0-.144-5.506c.307-1.767-.04-3.23-.979-4.13a16.795 16.795 0 0 0-1.201-2.743c-1.549-2.744-3.638-4.296-5.793-4.3zm7.662 7.223c1.869 1.293 2.921 4.37 2.611 7.637-.237 2.474-1.226 4.688-2.648 5.931a16.374 16.374 0 0 0 2.451-1.109c5.608-3.164 5.751-8.213.32-11.278a15.485 15.485 0 0 0-2.734-1.181zM12.77 11.908h7.46c.7 0 1.262.564 1.262 1.264v1.275c0 .7-.562 1.264-1.262 1.264H18.4v5.035c0 .7-.562 1.262-1.261 1.262h-1.278a1.258 1.258 0 0 1-1.261-1.262v-5.035h-1.83a1.26 1.26 0 0 1-1.262-1.264v-1.275c0-.7.562-1.264 1.262-1.264zM9.842 23.881c.319.884.691 1.706 1.109 2.451 3.164 5.608 8.213 5.751 11.278.32.457-.817.854-1.736 1.181-2.734-1.293 1.869-4.37 2.921-7.637 2.611-2.474-.237-4.688-1.226-5.931-2.648z" fill="#ff9000"/></svg>