<?xml version="1.0" encoding="UTF-8" standalone="no"?>
<!-- Created with Inkscape (http://www.inkscape.org/) -->

<svg
   xmlns:dc="http://purl.org/dc/elements/1.1/"
   xmlns:cc="http://creativecommons.org/ns#"
   xmlns:rdf="http://www.w3.org/1999/02/22-rdf-syntax-ns#"
   xmlns:svg="http://www.w3.org/2000/svg"
   xmlns="http://www.w3.org/2000/svg"
   xmlns:sodipodi="http://sodipodi.sourceforge.net/DTD/sodipodi-0.dtd"
   xmlns:inkscape="http://www.inkscape.org/namespaces/inkscape"
   version="1.1"
   id="svg2"
   width="32"
   height="32"
   viewBox="0 0 32 32"
   sodipodi:docname="memtest2.svg"
   inkscape:version="0.92.1 r">
  <metadata
     id="metadata8">
    <rdf:RDF>
      <cc:Work
         rdf:about="">
        <dc:format>image/svg+xml</dc:format>
        <dc:type
           rdf:resource="http://purl.org/dc/dcmitype/StillImage" />
        <dc:title></dc:title>
      </cc:Work>
    </rdf:RDF>
  </metadata>
  <defs
     id="defs6" />
  <sodipodi:namedview
     pagecolor="#ffffff"
     bordercolor="#666666"
     borderopacity="1"
     objecttolerance="10"
     gridtolerance="10"
     guidetolerance="10"
     inkscape:pageopacity="0"
     inkscape:pageshadow="2"
     inkscape:window-width="640"
     inkscape:window-height="480"
     id="namedview4"
     showgrid="false"
     inkscape:zoom="3.859375"
     inkscape:cx="35.044324"
     inkscape:cy="11.050818"
     inkscape:current-layer="svg2"
     inkscape:snap-global="false" />
  <path
     style="fill:#ff9000;fill-opacity:1;stroke:none;stroke-width:1.57066405;stroke-miterlimit:4;stroke-dasharray:none;stroke-opacity:1"
     d="M 15.755859 1.8671875 A 14.136813 7.9688652 88.486461 0 0 10.271484 5.8476562 A 14.136813 7.9688652 88.486461 0 0 9.2558594 8.1113281 A 7.5290677 4.7863377 4.2977656 0 1 16.527344 5.90625 A 7.5290677 4.7863377 4.2977656 0 1 22.552734 8.7460938 A 5.5210356 9.7943492 43.486461 0 0 18.550781 8.1269531 A 7.9688652 14.136813 88.486461 0 0 17.025391 8.0410156 A 7.9688652 14.136813 88.486461 0 0 13.03125 8.2734375 A 9.7943492 5.5210356 43.486461 0 0 8.9121094 9.25 A 7.9688652 14.136813 88.486461 0 0 6.1679688 10.451172 A 7.9688652 14.136813 88.486461 0 0 5.8476562 21.728516 A 7.9688652 14.136813 88.486461 0 0 8.1113281 22.744141 A 4.7863377 7.5290677 4.2977656 0 1 5.90625 15.472656 A 4.7863377 7.5290677 4.2977656 0 1 8.7480469 9.4453125 A 9.7943492 5.5210356 43.486461 0 0 8.1289062 13.458984 A 14.136813 7.9688652 88.486461 0 0 8.2753906 18.957031 A 5.5210356 9.7943492 43.486461 0 0 13.464844 23.871094 A 7.9688652 14.136813 88.486461 0 0 18.949219 23.726562 A 9.7943492 5.5210356 43.486461 0 0 23.042969 22.804688 A 9.7943492 5.5210356 43.486461 0 0 23.873047 18.546875 A 14.136813 7.9688652 88.486461 0 0 23.728516 13.041016 A 5.5210356 9.7943492 43.486461 0 0 22.75 8.9101562 A 14.136813 7.9688652 88.486461 0 0 21.548828 6.1679688 A 14.136813 7.9688652 88.486461 0 0 15.755859 1.8671875 z M 23.417969 9.0898438 A 4.8478592 7.620669 3.9095053 0 1 26.029297 16.726562 A 4.8478592 7.620669 3.9095053 0 1 23.380859 22.658203 A 7.9688652 14.136813 88.486461 0 0 25.832031 21.548828 A 7.9688652 14.136813 88.486461 0 0 26.152344 10.271484 A 7.9688652 14.136813 88.486461 0 0 23.417969 9.0898438 z M 10.875 10.835938 L 21.125 10.835938 L 21.125 12.011719 L 16.824219 12.011719 L 16.824219 21.164062 L 15.175781 21.164062 L 15.175781 12.011719 L 10.875 12.011719 L 10.875 10.835938 z M 9.3417969 23.380859 A 14.136813 7.9688652 88.486461 0 0 10.451172 25.832031 A 14.136813 7.9688652 88.486461 0 0 21.728516 26.152344 A 14.136813 7.9688652 88.486461 0 0 22.910156 23.417969 A 7.620669 4.8478592 3.9095053 0 1 15.273438 26.029297 A 7.620669 4.8478592 3.9095053 0 1 9.3417969 23.380859 z "
     id="path4564" />
  <g
     aria-label="T"
     transform="scale(1.0830723,0.92329939)"
     style="font-style:normal;font-weight:normal;font-size:15.34520054px;line-height:1.25;font-family:sans-serif;letter-spacing:0px;word-spacing:0px;fill:#000000;fill-opacity:1;stroke:#000000;stroke-width:0.99507672;stroke-miterlimit:4;stroke-dasharray:none;stroke-opacity:1"
     id="text4577" />
</svg>
