<svg xmlns="http://www.w3.org/2000/svg" viewBox="0 0 33 33"><path d="M7.54 2.885a3.741 3.741 0 0 0-3.75 3.752v19.726a3.741 3.741 0 0 0 3.748 3.752H25.46a3.741 3.741 0 0 0 3.748-3.752V6.637a3.741 3.741 0 0 0-3.748-3.752zm14.495.605h1.068c.384 0 .692.231.692.52v1.77a2.945 2.945 0 0 1 2.734 2.938V24.28c0 1.64-1.321 2.96-2.96 2.96H9.432a2.955 2.955 0 0 1-2.96-2.96V8.719A2.95 2.95 0 0 1 9.33 5.768v-1.7c0-.288.308-.521.691-.521h1.069c.383 0 .691.233.691.521v1.69h3.557V4.039c0-.288.308-.52.691-.52h1.069c.383 0 .691.232.691.52v1.719h3.557V4.01c0-.288.307-.52.691-.52zM8.87 6.486a.691.691 0 0 0-.691.694v2.69a.69.69 0 0 0 .691.69h15.262a.69.69 0 0 0 .692-.69V7.18a.691.691 0 0 0-.692-.694h-.336v2.086c0 .288-.308.521-.691.521h-1.069c-.383 0-.691-.233-.691-.521V6.486h-3.557V8.6c0 .288-.308.52-.691.52h-1.068c-.384 0-.692-.232-.692-.52V6.486H11.78V8.63c0 .289-.308.52-.692.52H10.02c-.384 0-.692-.231-.692-.52V6.486zm1.565 7.4c-.57 0-1.03.458-1.03 1.028v.426c0 .57.46 1.029 1.03 1.029h12.133c.57 0 1.029-.46 1.029-1.03v-.425c0-.57-.46-1.027-1.03-1.027zm1.69 3.759a.565.565 0 0 0-.566.566v1.176c0 .314.253.566.567.566h8.75a.565.565 0 0 0 .566-.566V18.21a.565.565 0 0 0-.566-.566zm-1.69 3.584c-.57 0-1.03.459-1.03 1.029v.426c0 .57.46 1.027 1.03 1.027h12.132c.57 0 1.03-.457 1.03-1.027v-.426c0-.57-.46-1.03-1.03-1.03z" fill="#ff9000" fill-rule="evenodd"/></svg>