<svg xmlns="http://www.w3.org/2000/svg" version="1.1" viewBox="0 0 33 33">
	<path style="fill:#ff9000;fill-rule:evenodd" d="m7.5391 2.8848c-2.078 0-3.748 1.674-3.748 3.752v19.726c0 2.078 1.6701 3.752 3.748 3.752h17.922c2.078 0 3.748-1.674 3.748-3.752v-19.726c0-2.078-1.6701-3.752-3.748-3.752zm14.496 0.60547h1.0684c0.38351 0 0.69141 0.23115 0.69141 0.51953v1.7715c1.5309 0.11718 2.7344 1.3757 2.7344 2.9375v15.562c0 1.6395-1.3214 2.9609-2.9609 2.9609h-14.135c-1.6395 0-2.9609-1.3214-2.9609-2.9609v-15.562c0-1.604 1.2674-2.8957 2.8574-2.9512v-1.6992c0-0.28838 0.3079-0.52148 0.69141-0.52148h1.0684c0.38351 0 0.69141 0.23311 0.69141 0.52148v1.6895h3.5566v-1.7188c0-0.28838 0.30789-0.51953 0.69141-0.51953h1.0684c0.38351 0 0.69141 0.23115 0.69141 0.51953v1.7188h3.5566v-1.748c0-0.28838 0.30789-0.51953 0.69141-0.51953zm-13.166 2.996c-0.38351 0-0.69141 0.30985-0.69141 0.69336v2.6895c0 0.38351 0.30789 0.69141 0.69141 0.69141h15.262c0.38351 0 0.69141-0.30789 0.69141-0.69141v-2.6899c0-0.38351-0.3079-0.69336-0.69141-0.69336h-0.33594v2.0859c0 0.28838-0.30789 0.52148-0.69141 0.52148h-1.0684c-0.38351 0-0.69141-0.23311-0.69141-0.52148v-2.0859h-3.5566v2.1152c0 0.28838-0.30789 0.51953-0.69141 0.51953h-1.0684c-0.38351 0-0.69141-0.23115-0.69141-0.51953v-2.1152h-3.5566v2.1445c0 0.28838-0.30789 0.51953-0.69141 0.51953h-1.0684c-0.38351 0-0.69141-0.23115-0.69141-0.51953v-2.1445zm1.5645 7.4004c-0.57 0-1.0293 0.45735-1.0293 1.0273v0.42578c0 0.57 0.4593 1.0293 1.0293 1.0293h12.133c0.57 0 1.0293-0.4593 1.0293-1.0293v-0.42578c0-0.56999-0.4593-1.0273-1.0293-1.0273zm1.691 3.758c-0.31389 0-0.56641 0.25252-0.56641 0.56641v1.1758c0 0.31389 0.25252 0.56641 0.56641 0.56641h8.75c0.31389 0 0.56641-0.25252 0.56641-0.56641v-1.1758c0-0.31389-0.25252-0.56641-0.56641-0.56641zm-1.6914 3.584c-0.57 0-1.0293 0.4593-1.0293 1.0293v0.42578c0 0.57 0.4593 1.0273 1.0293 1.0273h12.133c0.57 0 1.0293-0.45735 1.0293-1.0273v-0.42578c0-0.57-0.4593-1.0293-1.0293-1.0293z"/>
</svg>
