<svg xmlns="http://www.w3.org/2000/svg" height="10.799in" width="554.218" viewBox="0 0 554.22197 1036.6948"><title>Icons</title><path d="M0 0h554.22v1036.7H0z" fill="#273234"/><path d="M131.11 189.489c-10.112 0-10.264 8.076-10.264 8.076v1.155l-2.689 2.423c-.555.5-.653 1.428-.22 2.08l.412.62c.433.653 1.228.776 1.783.276l.714-.645v9.974h1.453l2.313-4.183 2.314 4.183h1.754l2.314-4.183 2.315 4.183h1.754l2.314-4.183 2.314 4.183h1.597v-10.034l.781.704c.555.5 1.348.377 1.781-.276l.414-.62c.433-.652.334-1.58-.22-2.08l-2.756-2.484v-.855s-.064-8.316-10.177-8.316zm-3.407 5.98c1.36 0 2.461 1.067 2.462 2.386 0 1.318-1.102 2.388-2.462 2.388s-2.463-1.07-2.462-2.388c0-1.319 1.102-2.387 2.462-2.387zm6.787 0c1.36 0 2.462 1.067 2.462 2.386 0 1.318-1.102 2.388-2.462 2.388s-2.462-1.07-2.462-2.388c0-1.319 1.103-2.387 2.462-2.387zm-3.39 7.01a1.567 1.902 0 0 1 1.566 1.902 1.567 1.902 0 0 1-1.566 1.903 1.567 1.902 0 0 1-1.566-1.903 1.567 1.902 0 0 1 1.566-1.902zM27.637 266.138l-12.706 11.81 12.706 11.808v-5.433c.68-.028 15.702-.522 5.292 12.142 19.51-4.065 12.364-25.856-5.292-24.894z" fill="#ff9000"/><g fill="#ff9100"><path d="M129.319 79.2a3.447 7.909 21.269 0 1-3.525 1.721 3.447 7.909 21.269 0 1-1.437-3.586 10.748 10.748 0 0 0-3.067.112 7.909 3.447 66.269 0 1-1.277 3.599 7.909 3.447 66.269 0 1-3.48-1.45 10.748 10.748 0 0 0-2.106 2.228 7.909 3.447 21.269 0 1 1.587 3.4 7.909 3.447 21.269 0 1-3.471 1.434 10.748 10.748 0 0 0 .051 3.06 3.447 7.909 66.269 0 1 2.546.357 3.447 7.909 66.269 0 1 .998.927 3.447 7.909 66.269 0 1-1.485 3.519 10.748 10.748 0 0 0 2.186 2.148 3.447 7.909 21.269 0 1 3.474-1.667 3.447 7.909 21.269 0 1 1.432 3.653 10.748 10.748 0 0 0 3.078-.028 7.909 3.447 66.269 0 1 1.27-3.75 7.909 3.447 66.269 0 1 1.48.031 7.909 3.447 66.269 0 1 2.179 1.61 10.748 10.748 0 0 0 2.145-2.217 7.909 3.447 21.269 0 1-1.806-3.597 7.909 3.447 21.269 0 1 3.77-1.428 10.748 10.748 0 0 0-.084-3.086 3.447 7.909 66.269 0 1-3.808-1.269 3.447 7.909 66.269 0 1 1.602-3.624 10.748 10.748 0 0 0-2.252-2.097zm-3.07 4.407a5.371 5.371 0 0 1 1.125 1.05 1.723 3.952 66.269 0 0-.801 1.812 1.723 3.952 66.269 0 0 1.901.633 5.371 5.371 0 0 1 .043 1.542 3.952 1.723 21.269 0 0-1.883.714 3.952 1.723 21.269 0 0 .901 1.799 5.371 5.371 0 0 1-1.07 1.107 3.952 1.723 66.269 0 0-1.089-.806 3.952 1.723 66.269 0 0-.74-.015 3.952 1.723 66.269 0 0-.635 1.874 5.371 5.371 0 0 1-1.538.015 1.723 3.952 21.269 0 0-.713-1.827 1.723 3.952 21.269 0 0-1.737.833 5.371 5.371 0 0 1-1.091-1.073 1.723 3.952 66.269 0 0 .74-1.759 1.723 3.952 66.269 0 0-.498-.462 1.723 3.952 66.269 0 0-1.272-.179 5.371 5.371 0 0 1-.026-1.532 3.952 1.723 21.269 0 0 1.734-.714 3.952 1.723 21.269 0 0-.794-1.701 5.371 5.371 0 0 1 1.053-1.112 3.952 1.723 66.269 0 0 1.74.726 3.952 1.723 66.269 0 0 .637-1.798 5.371 5.371 0 0 1 1.533-.057 1.723 3.952 21.269 0 0 .72 1.791 1.723 3.952 21.269 0 0 1.76-.861zm-2.101 1.932a2.656 2.656 0 0 0-3.44 1.511 2.656 2.656 0 0 0 1.513 3.437 2.656 2.656 0 0 0 3.437-1.51 2.656 2.656 0 0 0-1.51-3.438z"/><path d="M136.875 93.564a2.112 4.845 1.32 0 1-1.67 1.728 2.112 4.845 1.32 0 1-1.577-1.764 6.584 6.584 0 0 0-1.742.705 4.845 2.112 46.32 0 1 .016 2.34 4.845 2.112 46.32 0 1-2.307-.108 6.584 6.584 0 0 0-.747 1.723 4.845 2.112 1.32 0 1 1.625 1.626 4.845 2.112 1.32 0 1-1.7 1.551 6.584 6.584 0 0 0 .67 1.752 2.112 4.845 46.32 0 1 1.54-.327 2.112 4.845 46.32 0 1 .769.325 2.112 4.845 46.32 0 1-.12 2.337 6.584 6.584 0 0 0 1.708.78 2.112 4.845 1.32 0 1 1.652-1.686 2.112 4.845 1.32 0 1 1.588 1.804 6.584 6.584 0 0 0 1.766-.66 4.845 2.112 46.32 0 1-.052-2.424 4.845 2.112 46.32 0 1 .86-.291 4.845 2.112 46.32 0 1 1.59.47 6.584 6.584 0 0 0 .772-1.724 4.845 2.112 1.32 0 1-1.792-1.694 4.845 2.112 1.32 0 1 1.872-1.61 6.584 6.584 0 0 0-.693-1.76 2.112 4.845 46.32 0 1-2.458.066 2.112 4.845 46.32 0 1 .165-2.422 6.584 6.584 0 0 0-1.735-.737zm-.847 3.18a3.29 3.29 0 0 1 .868.37 1.055 2.421 46.32 0 0-.083 1.21 1.055 2.421 46.32 0 0 1.227-.033 3.29 3.29 0 0 1 .348.88 2.421 1.055 1.32 0 0-.936.804 2.421 1.055 1.32 0 0 .895.847 3.29 3.29 0 0 1-.385.861 2.421 1.055 46.32 0 0-.795-.236 2.421 1.055 46.32 0 0-.43.146 2.421 1.055 46.32 0 0 .027 1.212 3.29 3.29 0 0 1-.883.33 1.055 2.421 1.32 0 0-.793-.903 1.055 2.421 1.32 0 0-.826.843 3.29 3.29 0 0 1-.853-.39 1.055 2.421 46.32 0 0 .06-1.168 1.055 2.421 46.32 0 0-.384-.162 1.055 2.421 46.32 0 0-.77.163 3.29 3.29 0 0 1-.335-.876 2.421 1.055 1.32 0 0 .85-.774 2.421 1.055 1.32 0 0-.814-.813 3.29 3.29 0 0 1 .374-.86 2.421 1.055 46.32 0 0 1.154.053 2.421 1.055 46.32 0 0-.01-1.168 3.29 3.29 0 0 1 .872-.353 1.055 2.421 1.32 0 0 .789.88 1.055 2.421 1.32 0 0 .833-.863zm-.806 1.552a1.627 1.627 0 0 0-1.664 1.589 1.627 1.627 0 0 0 1.589 1.663 1.627 1.627 0 0 0 1.663-1.588 1.627 1.627 0 0 0-1.588-1.664z"/></g><path d="M34.124 504.608l-11.786 6.177v1.763c-1.324 1.009-2.692 1.964-3.988 3.007-.77.863.094 1.789.667 2.455.55.961 1.826.869 2.512.128.358-.212 1-.99.809-.109v12.811h23.475v-13.057c.692.502 1.487 1.334 2.406.785a6.205 6.205 0 0 0 1.504-1.85c.315-1.176-.988-1.652-1.702-2.275l-2.208-1.646v-1.712zm-4.197 17.354h7.966v7.718h-7.966z" fill="#ff9100"/><path d="M76.629 76.705a7.969 14.137-1.514 0 0-5.485 3.98 7.969 14.137-1.514 0 0-1.015 2.264 7.53 4.786 4.298 0 1 7.27-2.205 7.53 4.786 4.298 0 1 6.027 2.84 5.521 9.794 43.486 0 0-4.002-.62 7.969 14.137 88.486 0 0-1.526-.086 7.969 14.137 88.486 0 0-3.994.233 9.794 5.521 43.486 0 0-4.12.976 7.969 14.137 88.486 0 0-2.743 1.201 7.969 14.137 88.486 0 0-.32 11.278 7.969 14.137 88.486 0 0 2.263 1.015 4.786 7.53 4.298 0 1-2.205-7.27 4.786 7.53 4.298 0 1 2.842-6.028 9.794 5.521 43.486 0 0-.62 4.013 7.969 14.137-1.514 0 0 .147 5.498 5.521 9.794 43.486 0 0 5.19 4.915 7.969 14.137 88.486 0 0 5.484-.145 9.794 5.521 43.486 0 0 4.094-.922 9.794 5.521 43.486 0 0 .83-4.258 7.969 14.137-1.514 0 0-.144-5.505 5.521 9.794 43.486 0 0-.98-4.13 7.969 14.137-1.514 0 0-1.2-2.743 7.969 14.137-1.514 0 0-5.793-4.3zm7.662 7.222a4.848 7.62 3.91 0 1 2.611 7.637 4.848 7.62 3.91 0 1-2.648 5.932 7.969 14.137 88.486 0 0 2.451-1.11 7.969 14.137 88.486 0 0 .32-11.277 7.969 14.137 88.486 0 0-2.734-1.181zm-12.543 1.746h10.25v1.176h-4.3v9.153h-1.649V86.85h-4.3zm-1.533 12.545a7.969 14.137-1.514 0 0 1.11 2.452 7.969 14.137-1.514 0 0 11.276.32 7.969 14.137-1.514 0 0 1.182-2.734 7.62 4.848 3.91 0 1-7.637 2.61 7.62 4.848 3.91 0 1-5.932-2.648z" fill="#ff9000"/><g fill="#ff9100"><path d="M81.947 40.42a3.447 7.909 21.269 0 1-3.525 1.722 3.447 7.909 21.269 0 1-1.437-3.586 10.748 10.748 0 0 0-3.067.112 7.909 3.447 66.269 0 1-1.277 3.599 7.909 3.447 66.269 0 1-3.48-1.45 10.748 10.748 0 0 0-2.106 2.228 7.909 3.447 21.269 0 1 1.587 3.4 7.909 3.447 21.269 0 1-3.471 1.434 10.748 10.748 0 0 0 .051 3.06 3.447 7.909 66.269 0 1 2.546.357 3.447 7.909 66.269 0 1 .998.927 3.447 7.909 66.269 0 1-1.485 3.519 10.748 10.748 0 0 0 2.186 2.148 3.447 7.909 21.269 0 1 3.474-1.667 3.447 7.909 21.269 0 1 1.432 3.653 10.748 10.748 0 0 0 3.078-.028 7.909 3.447 66.269 0 1 1.27-3.75 7.909 3.447 66.269 0 1 1.48.031 7.909 3.447 66.269 0 1 2.179 1.61 10.748 10.748 0 0 0 2.145-2.217 7.909 3.447 21.269 0 1-1.806-3.597 7.909 3.447 21.269 0 1 3.77-1.428 10.748 10.748 0 0 0-.084-3.086 3.447 7.909 66.269 0 1-3.808-1.269 3.447 7.909 66.269 0 1 1.602-3.624 10.748 10.748 0 0 0-2.252-2.097zm-3.07 4.408a5.371 5.371 0 0 1 1.125 1.05 1.723 3.952 66.269 0 0-.801 1.812 1.723 3.952 66.269 0 0 1.901.633 5.371 5.371 0 0 1 .043 1.542 3.952 1.723 21.269 0 0-1.883.714 3.952 1.723 21.269 0 0 .901 1.799 5.371 5.371 0 0 1-1.07 1.107 3.952 1.723 66.269 0 0-1.089-.806 3.952 1.723 66.269 0 0-.74-.015 3.952 1.723 66.269 0 0-.635 1.874 5.371 5.371 0 0 1-1.538.015 1.723 3.952 21.269 0 0-.713-1.827 1.723 3.952 21.269 0 0-1.737.833 5.371 5.371 0 0 1-1.091-1.073 1.723 3.952 66.269 0 0 .74-1.759 1.723 3.952 66.269 0 0-.498-.462 1.723 3.952 66.269 0 0-1.272-.179 5.371 5.371 0 0 1-.026-1.532 3.952 1.723 21.269 0 0 1.734-.714 3.952 1.723 21.269 0 0-.794-1.701 5.371 5.371 0 0 1 1.053-1.112 3.952 1.723 66.269 0 0 1.74.726 3.952 1.723 66.269 0 0 .637-1.798 5.371 5.371 0 0 1 1.533-.057 1.723 3.952 21.269 0 0 .72 1.791 1.723 3.952 21.269 0 0 1.76-.861zm-2.101 1.932a2.656 2.656 0 0 0-3.44 1.511 2.656 2.656 0 0 0 1.513 3.437 2.656 2.656 0 0 0 3.437-1.51 2.656 2.656 0 0 0-1.51-3.438z"/><path d="M89.503 54.785a2.112 4.845 1.32 0 1-1.67 1.728 2.112 4.845 1.32 0 1-1.577-1.764 6.584 6.584 0 0 0-1.742.705 4.845 2.112 46.32 0 1 .016 2.34 4.845 2.112 46.32 0 1-2.307-.108 6.584 6.584 0 0 0-.747 1.723 4.845 2.112 1.32 0 1 1.625 1.626 4.845 2.112 1.32 0 1-1.7 1.551 6.584 6.584 0 0 0 .67 1.752 2.112 4.845 46.32 0 1 1.54-.327 2.112 4.845 46.32 0 1 .769.325 2.112 4.845 46.32 0 1-.12 2.337 6.584 6.584 0 0 0 1.708.78 2.112 4.845 1.32 0 1 1.652-1.686 2.112 4.845 1.32 0 1 1.588 1.804 6.584 6.584 0 0 0 1.766-.66 4.845 2.112 46.32 0 1-.052-2.424 4.845 2.112 46.32 0 1 .86-.291 4.845 2.112 46.32 0 1 1.59.47 6.584 6.584 0 0 0 .772-1.724 4.845 2.112 1.32 0 1-1.792-1.694 4.845 2.112 1.32 0 1 1.872-1.61 6.584 6.584 0 0 0-.693-1.76 2.112 4.845 46.32 0 1-2.458.066 2.112 4.845 46.32 0 1 .165-2.422 6.584 6.584 0 0 0-1.735-.737zm-.847 3.18a3.29 3.29 0 0 1 .868.37 1.055 2.421 46.32 0 0-.083 1.21 1.055 2.421 46.32 0 0 1.227-.033 3.29 3.29 0 0 1 .348.88 2.421 1.055 1.32 0 0-.936.804 2.421 1.055 1.32 0 0 .895.847 3.29 3.29 0 0 1-.385.861 2.421 1.055 46.32 0 0-.795-.236 2.421 1.055 46.32 0 0-.43.146 2.421 1.055 46.32 0 0 .027 1.212 3.29 3.29 0 0 1-.883.33 1.055 2.421 1.32 0 0-.793-.903 1.055 2.421 1.32 0 0-.826.843 3.29 3.29 0 0 1-.853-.39 1.055 2.421 46.32 0 0 .06-1.168 1.055 2.421 46.32 0 0-.384-.162 1.055 2.421 46.32 0 0-.77.163 3.29 3.29 0 0 1-.335-.876 2.421 1.055 1.32 0 0 .85-.774 2.421 1.055 1.32 0 0-.814-.813 3.29 3.29 0 0 1 .374-.86 2.421 1.055 46.32 0 0 1.154.053 2.421 1.055 46.32 0 0-.01-1.168 3.29 3.29 0 0 1 .872-.353 1.055 2.421 1.32 0 0 .789.88 1.055 2.421 1.32 0 0 .833-.863zm-.806 1.552a1.627 1.627 0 0 0-1.664 1.589 1.627 1.627 0 0 0 1.589 1.663 1.627 1.627 0 0 0 1.663-1.588 1.627 1.627 0 0 0-1.588-1.664z"/></g><path d="M65.227 224.448v28.2h25.502v-28.2zm3.629 1.665h7.714v2.816h-4.898v.992h4.898v2.817h-4.898v1.09h12.611v2.814h-4.896v.994h4.896v2.816H87.1v10.53h-2.816v-10.53h-4.896v3.844H76.57v-7.654h-7.715v-7.713z" fill="#ff9000" fill-rule="evenodd"/><path d="M439.21 189.489c-10.112 0-10.264 8.076-10.264 8.076v1.155l-2.689 2.423c-.555.5-.653 1.428-.22 2.08l.412.62c.433.653 1.228.776 1.783.276l.714-.645v9.974h1.453l2.313-4.183 2.314 4.183h1.754l2.314-4.183 2.315 4.183h1.754l2.314-4.183 2.314 4.183h1.597v-10.034l.781.704c.555.5 1.349.377 1.782-.276l.413-.62c.433-.652.334-1.58-.22-2.08l-2.756-2.484v-.855s-.064-8.316-10.177-8.316zm-3.407 5.98c1.36 0 2.461 1.067 2.462 2.386 0 1.318-1.102 2.388-2.462 2.388s-2.463-1.07-2.462-2.388c0-1.319 1.102-2.387 2.462-2.387zm6.787 0c1.36 0 2.462 1.067 2.462 2.386 0 1.318-1.102 2.388-2.462 2.388s-2.462-1.07-2.462-2.388c0-1.319 1.103-2.387 2.462-2.387zm-3.39 7.01a1.567 1.902 0 0 1 1.566 1.902 1.567 1.902 0 0 1-1.566 1.903 1.567 1.902 0 0 1-1.566-1.903 1.567 1.902 0 0 1 1.566-1.902zm-103.26 63.659l-12.705 11.81 12.706 11.808v-5.433c.68-.028 15.702-.522 5.292 12.142 19.51-4.065 12.364-25.856-5.292-24.894z" fill="#e0e0e0"/><g fill="#e0e0e0"><path d="M437.619 79.2a3.447 7.909 21.269 0 1-3.525 1.721 3.447 7.909 21.269 0 1-1.437-3.586 10.748 10.748 0 0 0-3.067.112 7.909 3.447 66.269 0 1-1.277 3.599 7.909 3.447 66.269 0 1-3.48-1.45 10.748 10.748 0 0 0-2.106 2.228 7.909 3.447 21.269 0 1 1.587 3.4 7.909 3.447 21.269 0 1-3.471 1.434 10.748 10.748 0 0 0 .051 3.06 3.447 7.909 66.269 0 1 2.546.357 3.447 7.909 66.269 0 1 .998.927 3.447 7.909 66.269 0 1-1.485 3.519 10.748 10.748 0 0 0 2.186 2.148 3.447 7.909 21.269 0 1 3.474-1.667 3.447 7.909 21.269 0 1 1.432 3.653 10.748 10.748 0 0 0 3.078-.028 7.909 3.447 66.269 0 1 1.27-3.75 7.909 3.447 66.269 0 1 1.48.031 7.909 3.447 66.269 0 1 2.179 1.61 10.748 10.748 0 0 0 2.145-2.217 7.909 3.447 21.269 0 1-1.806-3.597 7.909 3.447 21.269 0 1 3.77-1.428 10.748 10.748 0 0 0-.084-3.086 3.447 7.909 66.269 0 1-3.808-1.269 3.447 7.909 66.269 0 1 1.602-3.624 10.748 10.748 0 0 0-2.252-2.097zm-3.07 4.407a5.371 5.371 0 0 1 1.125 1.05 1.723 3.952 66.269 0 0-.801 1.812 1.723 3.952 66.269 0 0 1.901.633 5.371 5.371 0 0 1 .043 1.542 3.952 1.723 21.269 0 0-1.883.714 3.952 1.723 21.269 0 0 .901 1.799 5.371 5.371 0 0 1-1.07 1.107 3.952 1.723 66.269 0 0-1.089-.806 3.952 1.723 66.269 0 0-.74-.015 3.952 1.723 66.269 0 0-.635 1.874 5.371 5.371 0 0 1-1.538.015 1.723 3.952 21.269 0 0-.713-1.827 1.723 3.952 21.269 0 0-1.737.833 5.371 5.371 0 0 1-1.091-1.073 1.723 3.952 66.269 0 0 .74-1.759 1.723 3.952 66.269 0 0-.498-.462 1.723 3.952 66.269 0 0-1.272-.179 5.371 5.371 0 0 1-.026-1.532 3.952 1.723 21.269 0 0 1.734-.714 3.952 1.723 21.269 0 0-.794-1.701 5.371 5.371 0 0 1 1.053-1.112 3.952 1.723 66.269 0 0 1.74.726 3.952 1.723 66.269 0 0 .637-1.798 5.371 5.371 0 0 1 1.533-.057 1.723 3.952 21.269 0 0 .72 1.791 1.723 3.952 21.269 0 0 1.76-.861zm-2.101 1.932a2.656 2.656 0 0 0-3.44 1.511 2.656 2.656 0 0 0 1.513 3.437 2.656 2.656 0 0 0 3.437-1.51 2.656 2.656 0 0 0-1.51-3.438z"/><path d="M445.175 93.564a2.112 4.845 1.32 0 1-1.67 1.728 2.112 4.845 1.32 0 1-1.577-1.764 6.584 6.584 0 0 0-1.742.705 4.845 2.112 46.32 0 1 .016 2.34 4.845 2.112 46.32 0 1-2.307-.108 6.584 6.584 0 0 0-.747 1.723 4.845 2.112 1.32 0 1 1.625 1.626 4.845 2.112 1.32 0 1-1.7 1.551 6.584 6.584 0 0 0 .67 1.752 2.112 4.845 46.32 0 1 1.54-.327 2.112 4.845 46.32 0 1 .769.325 2.112 4.845 46.32 0 1-.12 2.337 6.584 6.584 0 0 0 1.708.78 2.112 4.845 1.32 0 1 1.652-1.686 2.112 4.845 1.32 0 1 1.588 1.804 6.584 6.584 0 0 0 1.766-.66 4.845 2.112 46.32 0 1-.052-2.424 4.845 2.112 46.32 0 1 .86-.291 4.845 2.112 46.32 0 1 1.59.47 6.584 6.584 0 0 0 .772-1.724 4.845 2.112 1.32 0 1-1.792-1.694 4.845 2.112 1.32 0 1 1.872-1.61 6.584 6.584 0 0 0-.693-1.76 2.112 4.845 46.32 0 1-2.458.066 2.112 4.845 46.32 0 1 .165-2.422 6.584 6.584 0 0 0-1.735-.737zm-.847 3.18a3.29 3.29 0 0 1 .868.37 1.055 2.421 46.32 0 0-.083 1.21 1.055 2.421 46.32 0 0 1.227-.033 3.29 3.29 0 0 1 .348.88 2.421 1.055 1.32 0 0-.936.804 2.421 1.055 1.32 0 0 .895.847 3.29 3.29 0 0 1-.385.861 2.421 1.055 46.32 0 0-.795-.236 2.421 1.055 46.32 0 0-.43.146 2.421 1.055 46.32 0 0 .027 1.212 3.29 3.29 0 0 1-.883.33 1.055 2.421 1.32 0 0-.793-.903 1.055 2.421 1.32 0 0-.826.843 3.29 3.29 0 0 1-.853-.39 1.055 2.421 46.32 0 0 .06-1.168 1.055 2.421 46.32 0 0-.384-.162 1.055 2.421 46.32 0 0-.77.163 3.29 3.29 0 0 1-.335-.876 2.421 1.055 1.32 0 0 .85-.774 2.421 1.055 1.32 0 0-.814-.813 3.29 3.29 0 0 1 .374-.86 2.421 1.055 46.32 0 0 1.154.053 2.421 1.055 46.32 0 0-.01-1.168 3.29 3.29 0 0 1 .872-.353 1.055 2.421 1.32 0 0 .789.88 1.055 2.421 1.32 0 0 .833-.863zm-.806 1.552a1.627 1.627 0 0 0-1.664 1.589 1.627 1.627 0 0 0 1.589 1.663 1.627 1.627 0 0 0 1.663-1.588 1.627 1.627 0 0 0-1.588-1.664z"/></g><path d="M342.42 504.608l-11.785 6.177v1.763c-1.324 1.009-2.692 1.964-3.988 3.007-.77.863.094 1.789.667 2.455.55.961 1.826.869 2.512.128.358-.212 1-.99.809-.109v12.811h23.475v-13.057c.692.502 1.487 1.334 2.406.785a6.205 6.205 0 0 0 1.504-1.85c.315-1.176-.988-1.652-1.702-2.275l-2.208-1.646v-1.712zm-4.196 17.354h7.966v7.718h-7.966zm46.703-445.257a7.969 14.137-1.514 0 0-5.485 3.98 7.969 14.137-1.514 0 0-1.015 2.264 7.53 4.786 4.298 0 1 7.27-2.205 7.53 4.786 4.298 0 1 6.027 2.84 5.521 9.794 43.486 0 0-4.002-.62 7.969 14.137 88.486 0 0-1.526-.086 7.969 14.137 88.486 0 0-3.994.233 9.794 5.521 43.486 0 0-4.12.976 7.969 14.137 88.486 0 0-2.743 1.201 7.969 14.137 88.486 0 0-.32 11.278 7.969 14.137 88.486 0 0 2.263 1.015 4.786 7.53 4.298 0 1-2.205-7.27 4.786 7.53 4.298 0 1 2.842-6.028 9.794 5.521 43.486 0 0-.62 4.013 7.969 14.137-1.514 0 0 .147 5.498 5.521 9.794 43.486 0 0 5.19 4.915 7.969 14.137 88.486 0 0 5.484-.145 9.794 5.521 43.486 0 0 4.094-.922 9.794 5.521 43.486 0 0 .83-4.258 7.969 14.137-1.514 0 0-.144-5.505 5.521 9.794 43.486 0 0-.98-4.13 7.969 14.137-1.514 0 0-1.2-2.743 7.969 14.137-1.514 0 0-5.793-4.3zm7.662 7.222a4.848 7.62 3.91 0 1 2.611 7.637 4.848 7.62 3.91 0 1-2.648 5.932 7.969 14.137 88.486 0 0 2.451-1.11 7.969 14.137 88.486 0 0 .32-11.277 7.969 14.137 88.486 0 0-2.734-1.181zm-12.543 1.746h10.25v1.176h-4.3v9.153h-1.649V86.85h-4.3zm-1.533 12.545a7.969 14.137-1.514 0 0 1.11 2.452 7.969 14.137-1.514 0 0 11.276.32 7.969 14.137-1.514 0 0 1.182-2.734 7.62 4.848 3.91 0 1-7.637 2.61 7.62 4.848 3.91 0 1-5.932-2.648z" fill="#e0e0e0"/><g fill="#e0e0e0"><path d="M390.249 40.42a3.447 7.909 21.269 0 1-3.525 1.722 3.447 7.909 21.269 0 1-1.437-3.586 10.748 10.748 0 0 0-3.067.112 7.909 3.447 66.269 0 1-1.277 3.599 7.909 3.447 66.269 0 1-3.48-1.45 10.748 10.748 0 0 0-2.106 2.228 7.909 3.447 21.269 0 1 1.587 3.4 7.909 3.447 21.269 0 1-3.471 1.434 10.748 10.748 0 0 0 .051 3.06 3.447 7.909 66.269 0 1 2.546.357 3.447 7.909 66.269 0 1 .998.927 3.447 7.909 66.269 0 1-1.485 3.519 10.748 10.748 0 0 0 2.186 2.148 3.447 7.909 21.269 0 1 3.474-1.667 3.447 7.909 21.269 0 1 1.432 3.653 10.748 10.748 0 0 0 3.078-.028 7.909 3.447 66.269 0 1 1.27-3.75 7.909 3.447 66.269 0 1 1.48.031 7.909 3.447 66.269 0 1 2.179 1.61 10.748 10.748 0 0 0 2.145-2.217 7.909 3.447 21.269 0 1-1.806-3.597 7.909 3.447 21.269 0 1 3.77-1.428 10.748 10.748 0 0 0-.084-3.086 3.447 7.909 66.269 0 1-3.808-1.269 3.447 7.909 66.269 0 1 1.602-3.624 10.748 10.748 0 0 0-2.252-2.097zm-3.07 4.408a5.371 5.371 0 0 1 1.125 1.05 1.723 3.952 66.269 0 0-.801 1.812 1.723 3.952 66.269 0 0 1.901.633 5.371 5.371 0 0 1 .043 1.542 3.952 1.723 21.269 0 0-1.883.714 3.952 1.723 21.269 0 0 .901 1.799 5.371 5.371 0 0 1-1.07 1.107 3.952 1.723 66.269 0 0-1.089-.806 3.952 1.723 66.269 0 0-.74-.015 3.952 1.723 66.269 0 0-.635 1.874 5.371 5.371 0 0 1-1.538.015 1.723 3.952 21.269 0 0-.713-1.827 1.723 3.952 21.269 0 0-1.737.833 5.371 5.371 0 0 1-1.091-1.073 1.723 3.952 66.269 0 0 .74-1.759 1.723 3.952 66.269 0 0-.498-.462 1.723 3.952 66.269 0 0-1.272-.179 5.371 5.371 0 0 1-.026-1.532 3.952 1.723 21.269 0 0 1.734-.714 3.952 1.723 21.269 0 0-.794-1.701 5.371 5.371 0 0 1 1.053-1.112 3.952 1.723 66.269 0 0 1.74.726 3.952 1.723 66.269 0 0 .637-1.798 5.371 5.371 0 0 1 1.533-.057 1.723 3.952 21.269 0 0 .72 1.791 1.723 3.952 21.269 0 0 1.76-.861zm-2.101 1.932a2.656 2.656 0 0 0-3.44 1.511 2.656 2.656 0 0 0 1.513 3.437 2.656 2.656 0 0 0 3.437-1.51 2.656 2.656 0 0 0-1.51-3.438z"/><path d="M397.805 54.785a2.112 4.845 1.32 0 1-1.67 1.728 2.112 4.845 1.32 0 1-1.577-1.764 6.584 6.584 0 0 0-1.742.705 4.845 2.112 46.32 0 1 .016 2.34 4.845 2.112 46.32 0 1-2.307-.108 6.584 6.584 0 0 0-.747 1.723 4.845 2.112 1.32 0 1 1.625 1.626 4.845 2.112 1.32 0 1-1.7 1.551 6.584 6.584 0 0 0 .67 1.752 2.112 4.845 46.32 0 1 1.54-.327 2.112 4.845 46.32 0 1 .769.325 2.112 4.845 46.32 0 1-.12 2.337 6.584 6.584 0 0 0 1.708.78 2.112 4.845 1.32 0 1 1.652-1.686 2.112 4.845 1.32 0 1 1.588 1.804 6.584 6.584 0 0 0 1.766-.66 4.845 2.112 46.32 0 1-.052-2.424 4.845 2.112 46.32 0 1 .86-.291 4.845 2.112 46.32 0 1 1.59.47 6.584 6.584 0 0 0 .772-1.724 4.845 2.112 1.32 0 1-1.792-1.694 4.845 2.112 1.32 0 1 1.872-1.61 6.584 6.584 0 0 0-.693-1.76 2.112 4.845 46.32 0 1-2.458.066 2.112 4.845 46.32 0 1 .165-2.422 6.584 6.584 0 0 0-1.735-.737zm-.847 3.18a3.29 3.29 0 0 1 .868.37 1.055 2.421 46.32 0 0-.083 1.21 1.055 2.421 46.32 0 0 1.227-.033 3.29 3.29 0 0 1 .348.88 2.421 1.055 1.32 0 0-.936.804 2.421 1.055 1.32 0 0 .895.847 3.29 3.29 0 0 1-.385.861 2.421 1.055 46.32 0 0-.795-.236 2.421 1.055 46.32 0 0-.43.146 2.421 1.055 46.32 0 0 .027 1.212 3.29 3.29 0 0 1-.883.33 1.055 2.421 1.32 0 0-.793-.903 1.055 2.421 1.32 0 0-.826.843 3.29 3.29 0 0 1-.853-.39 1.055 2.421 46.32 0 0 .06-1.168 1.055 2.421 46.32 0 0-.384-.162 1.055 2.421 46.32 0 0-.77.163 3.29 3.29 0 0 1-.335-.876 2.421 1.055 1.32 0 0 .85-.774 2.421 1.055 1.32 0 0-.814-.813 3.29 3.29 0 0 1 .374-.86 2.421 1.055 46.32 0 0 1.154.053 2.421 1.055 46.32 0 0-.01-1.168 3.29 3.29 0 0 1 .872-.353 1.055 2.421 1.32 0 0 .789.88 1.055 2.421 1.32 0 0 .833-.863zm-.806 1.552a1.627 1.627 0 0 0-1.664 1.589 1.627 1.627 0 0 0 1.589 1.663 1.627 1.627 0 0 0 1.663-1.588 1.627 1.627 0 0 0-1.588-1.664z"/></g><path d="M373.53 224.448v28.2h25.503v-28.2zm3.63 1.665h7.714v2.816h-4.898v.992h4.898v2.817h-4.898v1.09h12.611v2.814h-4.896v.994h4.896v2.816h2.816v10.53h-2.816v-10.53h-4.896v3.844h-2.817v-7.654h-7.715v-7.713z" fill="#e0e0e0" fill-rule="evenodd"/><g fill="#ff9000"><path d="M36.494 40.947a4.405 10.105 0 0 1-3.4 3.685 4.405 10.105 0 0 1-3.372-3.603 13.733 13.733 0 0 0-3.598 1.554 10.105 4.405 45 0 1 .145 4.877 10.105 4.405 45 0 1-4.815-.113 13.733 13.733 0 0 0-1.476 3.625 10.105 4.405 0 0 1 3.465 3.312 10.105 4.405 0 0 1-3.467 3.316 13.733 13.733 0 0 0 1.48 3.622 4.405 10.105 45 0 1 3.2-.756 4.405 10.105 45 0 1 1.613.643 4.405 10.105 45 0 1-.137 4.877 13.733 13.733 0 0 0 3.598 1.547 4.405 10.105 0 0 1 3.365-3.596 4.405 10.105 0 0 1 3.398 3.686 13.733 13.733 0 0 0 3.65-1.46 10.105 4.405 45 0 1-.224-5.054 10.105 4.405 45 0 1 1.778-.648 10.105 4.405 45 0 1 3.34.906 13.733 13.733 0 0 0 1.527-3.633 10.105 4.405 0 0 1-3.817-3.45 10.105 4.405 0 0 1 3.826-3.445 13.733 13.733 0 0 0-1.531-3.635 4.405 10.105 45 0 1-5.121.256 4.405 10.105 45 0 1 .228-5.059 13.733 13.733 0 0 0-3.654-1.455zm-3.205 7.767a5.57 5.57 0 0 1 5.57 5.57 5.57 5.57 0 0 1-5.57 5.57 5.57 5.57 0 0 1-5.571-5.57 5.57 5.57 0 0 1 5.57-5.57z"/><path d="M34.455 49.393a1.615 3.706 0 0 1-1.247 1.352 1.615 3.706 0 0 1-1.237-1.321 5.036 5.036 0 0 0-1.319.57 3.706 1.615 45 0 1 .053 1.788 3.706 1.615 45 0 1-1.766-.041 5.036 5.036 0 0 0-.541 1.33 3.706 1.615 0 0 1 1.271 1.213 3.706 1.615 0 0 1-1.271 1.216 5.036 5.036 0 0 0 .543 1.328 1.615 3.706 45 0 1 1.173-.277 1.615 3.706 45 0 1 .591.236 1.615 3.706 45 0 1-.05 1.788 5.036 5.036 0 0 0 1.32.568 1.615 3.706 0 0 1 1.234-1.319 1.615 3.706 0 0 1 1.246 1.352 5.036 5.036 0 0 0 1.339-.535 3.706 1.615 45 0 1-.082-1.854 3.706 1.615 45 0 1 .651-.238 3.706 1.615 45 0 1 1.225.332 5.036 5.036 0 0 0 .56-1.332 3.706 1.615 0 0 1-1.4-1.265 3.706 1.615 0 0 1 1.403-1.263 5.036 5.036 0 0 0-.561-1.333 1.615 3.706 45 0 1-1.878.093 1.615 3.706 45 0 1 .084-1.855 5.036 5.036 0 0 0-1.34-.533zm-1.176 2.85a2.043 2.043 0 0 1 2.042 2.041 2.043 2.043 0 0 1-2.043 2.043 2.043 2.043 0 0 1-2.042-2.043 2.043 2.043 0 0 1 2.042-2.043z"/></g><path d="M24.37 13.177c-1.735 0-3.45 1.362-3.843 3.052l-2.57 11.031c-.394 1.691.687 3.053 2.423 3.053h20.963c1.736 0 3.45-1.362 3.844-3.053l2.57-11.03c.394-1.69-.688-3.053-2.423-3.053zm0 1.523h1.405c.494 0 .78.383.642.858l-.513 1.783c-.137.475-.645.858-1.14.858h-1.403c-.494 0-.782-.383-.645-.858l.516-1.783c.137-.475.645-.858 1.138-.858zm4.866 0h1.404c.494 0 .781.383.644.858l-.515 1.783c-.137.474-.645.857-1.139.857h-1.404c-.494 0-.782-.383-.645-.857l.516-1.783c.137-.475.645-.858 1.139-.858zm4.865 0h1.404c.494 0 .782.383.645.858l-.514 1.783c-.137.474-.645.857-1.139.857h-1.404c-.494 0-.781-.383-.644-.857l.513-1.783c.137-.475.645-.858 1.139-.858zm4.867 0h1.404c.494 0 .782.383.645.858L40.5 17.34c-.137.474-.644.857-1.138.857h-1.405c-.494 0-.781-.383-.644-.857l.517-1.784c.137-.474.644-.857 1.138-.857zm-13.314 5.313h1.404c.494 0 .78.383.643.858l-.514 1.783c-.137.474-.645.857-1.138.857h-1.405c-.494 0-.781-.383-.644-.857l.515-1.783c.137-.475.645-.858 1.14-.858zm4.865 0h1.405c.493 0 .781.383.644.858l-.516 1.783c-.136.474-.644.857-1.138.857h-1.405c-.493 0-.781-.383-.644-.857l.516-1.783c.137-.475.645-.858 1.139-.858zm4.865 0h1.405c.494 0 .781.383.644.858l-.514 1.783c-.137.474-.644.857-1.138.857h-1.405c-.494 0-.781-.383-.644-.857l.515-1.783c.137-.475.645-.858 1.138-.858zm4.868 0h1.404c.494 0 .781.383.645.858l-.516 1.783c-.137.474-.645.857-1.139.857h-1.404c-.494 0-.782-.383-.645-.857l.517-1.783c.137-.475.645-.858 1.14-.858zm-14.255 5.084H38.46c.495 0 .78.381.64.856l-.529 1.785c-.14.474-.652.857-1.146.857H24.959c-.495 0-.782-.383-.641-.857l.53-1.785c.14-.475.653-.856 1.148-.856zm-4.434.024h1.404c.494 0 .782.38.645.855l-.516 1.785c-.137.475-.644.858-1.138.858h-1.405c-.494 0-.78-.383-.642-.858l.513-1.785c.137-.474.645-.855 1.14-.855zm19.971 0h1.404c.494 0 .782.38.645.855l-.516 1.785c-.137.475-.644.858-1.138.858h-1.403c-.494 0-.781-.383-.644-.858l.513-1.785c.137-.474.645-.855 1.14-.855zm-7.888 89.999a13.558 13.558 0 0 0-1.047.045 23.876 23.876 0 0 0-3.795 6.04 19.12 19.12 0 0 1 6.695-.573 19.98 19.98 0 0 1 3.45.638 23.878 23.878 0 0 0-3.786-6.056 13.558 13.558 0 0 0-1.518-.094zm-3.227.404a13.558 13.558 0 0 0-9.933 9.935c2.2-1.7 4.37-2.893 6.474-3.671.962-2.533 2.265-4.653 3.459-6.264zm6.984.139c1.18 1.611 2.454 3.706 3.39 6.203 2.34.874 4.324 2.05 5.893 3.164a13.558 13.558 0 0 0-9.282-9.368zm-3.875 6.35c-1.714.014-3.523.3-5.404.935-1.147 3.341-1.572 7.316-.078 11.686 4.357 1.486 8.321 1.061 11.656-.08 1.447-4.297 1.041-8.21-.074-11.51a19.223 19.223 0 0 0-4.264-.948 16.75 16.75 0 0 0-1.834-.084zm-7.19 1.636c-2.001.903-4.075 2.223-6.2 4.07a13.558 13.558 0 0 0-.051.96 13.558 13.558 0 0 0 .064 1.224c2.101 1.823 4.153 3.144 6.133 4.041-1.017-3.761-.786-7.264.056-10.295zm15.067.088c.815 2.99 1.035 6.434.05 10.129a24.183 24.183 0 0 0 5.614-3.418 13.558 13.558 0 0 0 .135-1.77 13.558 13.558 0 0 0-.086-1.462 24.183 24.183 0 0 0-5.713-3.479zm-20.818 8.514a13.558 13.558 0 0 0 9.607 9.521c-1.505-2.025-2.568-4.02-3.299-5.96-2.05-.768-4.164-1.922-6.307-3.562zm25.998.418c-1.54 1.082-3.471 2.214-5.73 3.066-.714 1.917-1.753 3.887-3.222 5.887a13.558 13.558 0 0 0 8.952-8.953zM39 136.34c-3.022.836-6.512 1.064-10.256.058.848 1.87 2.052 3.8 3.72 5.777a13.558 13.558 0 0 0 1.18.061 13.558 13.558 0 0 0 1.658-.12c1.66-1.978 2.856-3.907 3.698-5.776zm-3.095-57.966a4.385 10.06 0 0 1-3.383 3.667 4.385 10.06 0 0 1-3.36-3.586 13.672 13.672 0 0 0-3.582 1.547 10.06 4.385 45 0 1 .145 4.855 10.06 4.385 45 0 1-4.793-.112 13.672 13.672 0 0 0-1.47 3.61 10.06 4.385 0 0 1 3.45 3.297 10.06 4.385 0 0 1-3.452 3.302 13.672 13.672 0 0 0 1.474 3.606 4.385 10.06 45 0 1 3.183-.752 4.385 10.06 45 0 1 1.608.638 4.385 10.06 45 0 1-.135 4.857 13.672 13.672 0 0 0 3.582 1.537 4.385 10.06 0 0 1 3.35-3.578 4.385 10.06 0 0 1 3.383 3.67 13.672 13.672 0 0 0 3.633-1.455 10.06 4.385 45 0 1-.222-5.03 10.06 4.385 45 0 1 1.768-.646 10.06 4.385 45 0 1 3.325.9 13.672 13.672 0 0 0 1.521-3.615 10.06 4.385 0 0 1-3.8-3.433 10.06 4.385 0 0 1 3.808-3.43 13.672 13.672 0 0 0-1.523-3.62 4.385 10.06 45 0 1-5.098.254 4.385 10.06 45 0 1 .226-5.036 13.672 13.672 0 0 0-3.637-1.447zm-1.606 6.642a6.832 6.832 0 0 1 1.818.724 2.192 5.027 45 0 0-.114 2.517 2.192 5.027 45 0 0 2.548-.127 6.832 6.832 0 0 1 .763 1.81 5.027 2.192 0 0 0-1.904 1.712 5.027 2.192 0 0 0 1.9 1.717 6.832 6.832 0 0 1-.76 1.806 5.027 2.192 45 0 0-1.661-.45 5.027 2.192 45 0 0-.885.323 5.027 2.192 45 0 0 .112 2.513 6.832 6.832 0 0 1-1.817.728 2.192 5.027 0 0 0-1.689-1.835 2.192 5.027 0 0 0-1.675 1.789 6.832 6.832 0 0 1-1.789-.77 2.192 5.027 45 0 0 .067-2.425 2.192 5.027 45 0 0-.804-.32 2.192 5.027 45 0 0-1.59.377 6.832 6.832 0 0 1-.737-1.803 5.027 2.192 0 0 0 1.725-1.65 5.027 2.192 0 0 0-1.725-1.647 6.832 6.832 0 0 1 .735-1.805 5.027 2.192 45 0 0 2.396.057 5.027 2.192 45 0 0-.072-2.425 6.832 6.832 0 0 1 1.789-.775 2.192 5.027 0 0 0 1.68 1.793 2.192 5.027 0 0 0 1.69-1.834z" fill="#ff9000"/><path d="M18.192 153.179v26.37h7.659v-18.71h9.3v-7.66zm18.82 0v26.37h7.659v-26.37zm-9.41 9.41v16.96h7.549v-16.96z" fill-rule="evenodd" fill="#ff9000"/><path d="M30.926 188.596a7.969 14.137-1.514 0 0-5.484 3.98 7.969 14.137-1.514 0 0-1.016 2.264 7.53 4.786 4.298 0 1 7.272-2.205 7.53 4.786 4.298 0 1 6.025 2.84 5.521 9.794 43.486 0 0-4.002-.62 7.969 14.137 88.486 0 0-1.525-.086 7.969 14.137 88.486 0 0-3.994.233 9.794 5.521 43.486 0 0-4.12.976 7.969 14.137 88.486 0 0-2.744 1.201 7.969 14.137 88.486 0 0-.32 11.278 7.969 14.137 88.486 0 0 2.264 1.015 4.786 7.53 4.298 0 1-2.205-7.27 4.786 7.53 4.298 0 1 2.841-6.028 9.794 5.521 43.486 0 0-.619 4.013 7.969 14.137-1.514 0 0 .147 5.498 5.521 9.794 43.486 0 0 5.19 4.915 7.969 14.137 88.486 0 0 5.484-.145 9.794 5.521 43.486 0 0 4.093-.922 9.794 5.521 43.486 0 0 .83-4.258 7.969 14.137-1.514 0 0-.143-5.505 5.521 9.794 43.486 0 0-.978-4.13 7.969 14.137-1.514 0 0-1.202-2.743 7.969 14.137-1.514 0 0-5.793-4.3zm7.662 7.222a4.848 7.62 3.91 0 1 2.611 7.637 4.848 7.62 3.91 0 1-2.648 5.932 7.969 14.137 88.486 0 0 2.451-1.11 7.969 14.137 88.486 0 0 .32-11.277 7.969 14.137 88.486 0 0-2.734-1.181zm-7.817.092c2.2 0 3.876.3 5.03.899 1.153.592 1.73 1.459 1.73 2.601 0 .586-.176 1.112-.527 1.578-.352.46-.952.958-1.799 1.49l-.865.51c-.613.371-1.014.671-1.203.899-.19.221-.283.465-.283.734v.404h-4.881v-.44c0-.49.15-.923.447-1.3.297-.383.924-.867 1.879-1.453l.865-.521c.514-.311.887-.604 1.121-.88.244-.274.365-.548.365-.824 0-.418-.215-.745-.648-.978-.433-.24-1.038-.36-1.813-.36-.73 0-1.518.104-2.365.307a15.84 15.84 0 0 0-2.648.887v-2.817c1.09-.251 2.085-.437 2.986-.557s1.77-.18 2.609-.18zm-2.799 10.443h4.881v3.194h-4.88zm-3.46 3.756a7.969 14.137-1.514 0 0 1.109 2.451 7.969 14.137-1.514 0 0 11.277.32 7.969 14.137-1.514 0 0 1.182-2.734 7.62 4.848 3.91 0 1-7.637 2.611 7.62 4.848 3.91 0 1-5.932-2.648zm9.545 99.574a11.927 11.542.967 0 0-11.497 11.932 11.927 11.542.967 0 0 12.343 11.138A11.927 11.542.967 0 0 46.4 320.821a11.927 11.542.967 0 0-12.343-11.138zm.265 2.551c3.135-.104 5.54.194 7.212.895 1.673.693 2.533 1.76 2.586 3.203.028.74-.199 1.414-.678 2.02-.48.598-1.31 1.254-2.493 1.967l-1.21.686c-.857.497-1.415.894-1.674 1.19-.26.288-.384.601-.372.94l.02.512-6.958.231-.02-.554c-.023-.62.17-1.175.576-1.665.406-.498 1.275-1.14 2.61-1.925l1.21-.698c.718-.417 1.238-.805 1.559-1.163.334-.36.495-.713.483-1.06-.02-.529-.343-.93-.97-1.204-.628-.282-1.495-.404-2.6-.367-1.04.035-2.16.2-3.359.497-1.199.29-2.445.706-3.738 1.248l-.13-3.557a51.558 51.558 0 0 1 4.236-.845 31.817 31.817 0 0 1 3.71-.35zm-.121 12.307a3.55 4.03 88.77 0 1 4.157 3.414 3.55 4.03 88.77 0 1-3.897 3.683 3.55 4.03 88.77 0 1-4.156-3.415 3.55 4.03 88.77 0 1 3.896-3.682zM20.965 224.388c3.6 9.188 4.414 19.033 0 30.115l26.082-15.058zM31.72 235.94h5.09v1.932h-2.77v.536h2.77v1.93h-2.77v2.518h-2.32v-4.984zm-5.39.038h5.09v1.93h-2.772v.538h2.772v1.929h-2.772v.536h2.772v1.929h-5.09v-4.933zm10.726.06h2.321v6.915h-2.32zm40.723 70.888c-8.17 0-14.792 6.314-14.793 14.101 0 7.788 6.623 14.103 14.793 14.103 8.17.001 14.795-6.314 14.795-14.103-.001-7.788-6.625-14.102-14.795-14.1zm0 2.85c6.519 0 11.803 5.037 11.803 11.251 0 6.214-5.285 11.252-11.803 11.251-6.518-.001-11.801-5.038-11.801-11.251 0-6.214 5.283-11.25 11.8-11.252zm-.427 1.149c-5.942.191-10.587 4.867-10.377 10.446.212 5.578 5.2 9.945 11.142 9.753 5.941-.192 10.587-4.868 10.376-10.446s-5.2-9.945-11.14-9.753zm2.238 2.23c1.875.064 3.38.328 4.512.788 1.51.607 2.286 1.542 2.334 2.805.025.648-.18 1.238-.612 1.768-.433.524-1.183 1.098-2.251 1.721l-1.09.602c-.774.435-1.28.782-1.513 1.041-.234.253-.346.526-.335.824l.018.446-6.28.204-.018-.484a2.06 2.06 0 0 1 .52-1.459c.367-.436 1.152-1 2.356-1.687l1.091-.609c.648-.365 1.117-.704 1.407-1.018.302-.315.449-.625.438-.93-.018-.462-.31-.814-.876-1.054-.566-.247-1.35-.353-2.347-.321-.94.03-1.95.175-3.031.435a22.765 22.765 0 0 0-3.375 1.093l-.117-3.115a47.994 47.994 0 0 1 3.821-.74 29.637 29.637 0 0 1 5.347-.31zm-2.04 10.917a3.02 3.02 0 0 1 3.02 3.02 3.02 3.02 0 0 1-3.02 3.019 3.02 3.02 0 0 1-3.02-3.018 3.02 3.02 0 0 1 3.02-3.02zm45.071-16.349a14.227 13.827 0 0 0-14.227 13.824 14.227 13.827 0 0 0 14.227 13.829 14.227 13.827 0 0 0 14.226-13.829 14.227 13.827 0 0 0-14.226-13.824zm0 4.005a10.103 9.819 0 0 1 10.102 9.82 10.103 9.819 0 0 1-10.102 9.819 10.103 9.819 0 0 1-10.104-9.82 10.103 9.819 0 0 1 10.104-9.82zm2.398 2.582c-1.122-.04-2.41.01-3.863.156-1.107.11-2.25.286-3.428.527-2.376.77-1.483 2.637-.194 2.56a17.418 17.418 0 0 1 3.094-.62c1.023-.103 1.834-.062 2.43.123.595.179.913.48.955.903.028.279-.104.574-.398.885-.281.31-.746.655-1.394 1.038l-1.09.64c-1.202.72-1.98 1.295-2.334 1.721-.354.421-.507.879-.457 1.375l.044.446 6.445-.644-.04-.41c-.028-.272.072-.533.3-.782.226-.255.727-.61 1.499-1.067l1.09-.63c1.065-.652 1.807-1.234 2.225-1.747.417-.518.595-1.075.536-1.669-.115-1.156-.966-1.958-2.55-2.405-.791-.227-1.748-.36-2.87-.4zm-3.06 10.046a3.158 2.832 0 0 0-3.158 2.833 3.158 2.832 0 0 0 3.159 2.832 3.158 2.832 0 0 0 3.159-2.832 3.158 2.832 0 0 0-3.16-2.833z" fill="#ff9000"/><g fill="#e0e0e0"><path d="M344.79 40.947a4.405 10.105 0 0 1-3.398 3.685 4.405 10.105 0 0 1-3.373-3.603 13.733 13.733 0 0 0-3.598 1.554 10.105 4.405 45 0 1 .145 4.877 10.105 4.405 45 0 1-4.815-.113 13.733 13.733 0 0 0-1.476 3.625 10.105 4.405 0 0 1 3.465 3.312 10.105 4.405 0 0 1-3.467 3.316 13.733 13.733 0 0 0 1.48 3.622 4.405 10.105 45 0 1 3.2-.756 4.405 10.105 45 0 1 1.613.643 4.405 10.105 45 0 1-.137 4.877 13.733 13.733 0 0 0 3.598 1.547 4.405 10.105 0 0 1 3.365-3.596 4.405 10.105 0 0 1 3.398 3.686 13.733 13.733 0 0 0 3.65-1.46 10.105 4.405 45 0 1-.224-5.054 10.105 4.405 45 0 1 1.778-.648 10.105 4.405 45 0 1 3.34.906 13.733 13.733 0 0 0 1.527-3.633 10.105 4.405 0 0 1-3.817-3.45 10.105 4.405 0 0 1 3.826-3.445 13.733 13.733 0 0 0-1.531-3.635 4.405 10.105 45 0 1-5.121.256 4.405 10.105 45 0 1 .228-5.059 13.733 13.733 0 0 0-3.654-1.455zm-3.204 7.767a5.57 5.57 0 0 1 5.57 5.57 5.57 5.57 0 0 1-5.57 5.57 5.57 5.57 0 0 1-5.571-5.57 5.57 5.57 0 0 1 5.57-5.57z"/><path d="M342.752 49.393a1.615 3.706 0 0 1-1.247 1.352 1.615 3.706 0 0 1-1.237-1.321 5.036 5.036 0 0 0-1.319.57 3.706 1.615 45 0 1 .053 1.788 3.706 1.615 45 0 1-1.766-.041 5.036 5.036 0 0 0-.541 1.33 3.706 1.615 0 0 1 1.271 1.213 3.706 1.615 0 0 1-1.271 1.216 5.036 5.036 0 0 0 .542 1.328 1.615 3.706 45 0 1 1.174-.277 1.615 3.706 45 0 1 .591.236 1.615 3.706 45 0 1-.05 1.788 5.036 5.036 0 0 0 1.32.568 1.615 3.706 0 0 1 1.234-1.319 1.615 3.706 0 0 1 1.246 1.352 5.036 5.036 0 0 0 1.339-.535 3.706 1.615 45 0 1-.082-1.854 3.706 1.615 45 0 1 .651-.238 3.706 1.615 45 0 1 1.225.332 5.036 5.036 0 0 0 .56-1.332 3.706 1.615 0 0 1-1.4-1.265 3.706 1.615 0 0 1 1.403-1.263 5.036 5.036 0 0 0-.561-1.333 1.615 3.706 45 0 1-1.878.093 1.615 3.706 45 0 1 .084-1.855 5.036 5.036 0 0 0-1.34-.533zm-1.176 2.85a2.043 2.043 0 0 1 2.042 2.041 2.043 2.043 0 0 1-2.043 2.043 2.043 2.043 0 0 1-2.042-2.043 2.043 2.043 0 0 1 2.042-2.043z"/></g><path d="M332.674 13.177c-1.735 0-3.45 1.362-3.843 3.052l-2.57 11.031c-.394 1.691.687 3.053 2.423 3.053h20.963c1.736 0 3.45-1.362 3.844-3.053l2.57-11.03c.394-1.69-.688-3.053-2.423-3.053zm0 1.523h1.405c.494 0 .78.383.642.858l-.513 1.783c-.137.475-.645.858-1.14.858h-1.403c-.494 0-.782-.383-.645-.858l.516-1.783c.137-.475.645-.858 1.138-.858zm4.866 0h1.404c.494 0 .781.383.644.858l-.515 1.783c-.137.474-.645.857-1.139.857h-1.404c-.494 0-.782-.383-.645-.857l.516-1.783c.137-.475.645-.858 1.139-.858zm4.865 0h1.404c.494 0 .782.383.645.858l-.514 1.783c-.137.474-.645.857-1.139.857h-1.404c-.494 0-.781-.383-.645-.857l.514-1.783c.137-.475.645-.858 1.139-.858zm4.867 0h1.404c.494 0 .782.383.645.858l-.516 1.783c-.137.474-.645.857-1.138.857h-1.405c-.494 0-.781-.383-.644-.857l.517-1.784c.137-.474.644-.857 1.138-.857zm-13.314 5.313h1.404c.494 0 .78.383.643.858l-.514 1.783c-.137.474-.645.857-1.138.857h-1.405c-.494 0-.781-.383-.644-.857l.515-1.783c.137-.475.645-.858 1.14-.858zm4.865 0h1.405c.493 0 .781.383.644.858l-.516 1.783c-.136.474-.644.857-1.138.857h-1.405c-.493 0-.781-.383-.644-.857l.516-1.783c.137-.475.645-.858 1.139-.858zm4.865 0h1.405c.494 0 .781.383.644.858l-.514 1.783c-.137.474-.644.857-1.138.857h-1.405c-.494 0-.781-.383-.644-.857l.515-1.783c.137-.475.645-.858 1.138-.858zm4.868 0h1.404c.494 0 .781.383.645.858l-.516 1.783c-.137.474-.645.857-1.139.857h-1.404c-.494 0-.782-.383-.645-.857l.517-1.783c.137-.475.645-.858 1.139-.858zM334.3 25.097h12.463c.495 0 .78.381.64.856l-.529 1.785c-.14.474-.652.857-1.146.857h-12.466c-.495 0-.782-.383-.641-.857l.53-1.785c.14-.475.653-.856 1.148-.856zm-4.434.024h1.404c.494 0 .782.38.645.855l-.516 1.785c-.137.475-.645.858-1.138.858h-1.405c-.494 0-.78-.383-.642-.858l.513-1.785c.137-.474.645-.855 1.14-.855zm19.971 0h1.404c.494 0 .782.38.645.855l-.516 1.785c-.137.475-.645.858-1.138.858h-1.403c-.494 0-.781-.383-.644-.858l.513-1.785c.137-.474.645-.855 1.14-.855zm-7.887 89.999a13.558 13.558 0 0 0-1.046.045 23.876 23.876 0 0 0-3.795 6.04 19.12 19.12 0 0 1 6.695-.573 19.98 19.98 0 0 1 3.45.638 23.878 23.878 0 0 0-3.786-6.056 13.558 13.558 0 0 0-1.518-.094zm-3.226.404a13.558 13.558 0 0 0-9.933 9.935c2.2-1.7 4.37-2.893 6.474-3.671.962-2.533 2.265-4.653 3.459-6.264zm6.984.139c1.18 1.611 2.454 3.706 3.39 6.203 2.34.874 4.324 2.05 5.893 3.164a13.558 13.558 0 0 0-9.282-9.368zm-3.875 6.35c-1.714.014-3.523.3-5.404.935-1.147 3.341-1.572 7.316-.078 11.686 4.357 1.486 8.321 1.061 11.656-.08 1.447-4.297 1.041-8.21-.074-11.51a19.223 19.223 0 0 0-4.264-.948 16.75 16.75 0 0 0-1.834-.084zm-7.19 1.636c-2.001.903-4.075 2.223-6.2 4.07a13.558 13.558 0 0 0-.051.96 13.558 13.558 0 0 0 .064 1.224c2.101 1.823 4.153 3.144 6.133 4.041-1.017-3.761-.786-7.264.056-10.295zm15.067.088c.815 2.99 1.035 6.434.05 10.129a24.183 24.183 0 0 0 5.614-3.418 13.558 13.558 0 0 0 .135-1.77 13.558 13.558 0 0 0-.086-1.462 24.183 24.183 0 0 0-5.713-3.479zm-20.818 8.514a13.558 13.558 0 0 0 9.607 9.521c-1.505-2.025-2.568-4.02-3.299-5.96-2.05-.768-4.164-1.922-6.307-3.562zm25.998.418c-1.54 1.082-3.471 2.214-5.73 3.066-.714 1.917-1.753 3.887-3.222 5.887a13.558 13.558 0 0 0 8.952-8.953zm-7.584 3.672c-3.022.836-6.512 1.064-10.256.058.848 1.87 2.052 3.8 3.72 5.777a13.558 13.558 0 0 0 1.18.061 13.558 13.558 0 0 0 1.658-.12c1.66-1.978 2.856-3.907 3.698-5.776zm-3.099-57.967a4.385 10.06 0 0 1-3.383 3.667 4.385 10.06 0 0 1-3.36-3.586 13.672 13.672 0 0 0-3.582 1.547 10.06 4.385 45 0 1 .145 4.855 10.06 4.385 45 0 1-4.793-.112 13.672 13.672 0 0 0-1.47 3.61 10.06 4.385 0 0 1 3.45 3.297 10.06 4.385 0 0 1-3.452 3.302 13.672 13.672 0 0 0 1.474 3.606 4.385 10.06 45 0 1 3.183-.752 4.385 10.06 45 0 1 1.608.638 4.385 10.06 45 0 1-.135 4.857 13.672 13.672 0 0 0 3.582 1.537 4.385 10.06 0 0 1 3.35-3.578 4.385 10.06 0 0 1 3.383 3.67 13.672 13.672 0 0 0 3.633-1.455 10.06 4.385 45 0 1-.222-5.03 10.06 4.385 45 0 1 1.768-.646 10.06 4.385 45 0 1 3.325.9 13.672 13.672 0 0 0 1.521-3.615 10.06 4.385 0 0 1-3.8-3.433 10.06 4.385 0 0 1 3.808-3.43 13.672 13.672 0 0 0-1.523-3.62 4.385 10.06 45 0 1-5.098.254 4.385 10.06 45 0 1 .226-5.036 13.672 13.672 0 0 0-3.637-1.447zm-1.606 6.642a6.832 6.832 0 0 1 1.818.724 2.192 5.027 45 0 0-.114 2.517 2.192 5.027 45 0 0 2.548-.127 6.832 6.832 0 0 1 .763 1.81 5.027 2.192 0 0 0-1.904 1.712 5.027 2.192 0 0 0 1.9 1.717 6.832 6.832 0 0 1-.76 1.806 5.027 2.192 45 0 0-1.661-.45 5.027 2.192 45 0 0-.885.323 5.027 2.192 45 0 0 .112 2.513 6.832 6.832 0 0 1-1.817.728 2.192 5.027 0 0 0-1.689-1.835 2.192 5.027 0 0 0-1.675 1.789 6.832 6.832 0 0 1-1.789-.77 2.192 5.027 45 0 0 .067-2.425 2.192 5.027 45 0 0-.804-.32 2.192 5.027 45 0 0-1.59.377 6.832 6.832 0 0 1-.737-1.803 5.027 2.192 0 0 0 1.725-1.65 5.027 2.192 0 0 0-1.725-1.647 6.832 6.832 0 0 1 .735-1.805 5.027 2.192 45 0 0 2.396.057 5.027 2.192 45 0 0-.072-2.425 6.832 6.832 0 0 1 1.789-.775 2.192 5.027 0 0 0 1.68 1.793 2.192 5.027 0 0 0 1.69-1.834z" fill="#e0e0e0"/><path d="M326.487 153.179v26.37h7.659v-18.71h9.3v-7.66zm18.82 0v26.37h7.659v-26.37zm-9.41 9.41v16.96h7.549v-16.96z" fill-rule="evenodd" fill="#e0e0e0"/><path d="M339.23 188.596a7.969 14.137-1.514 0 0-5.484 3.98 7.969 14.137-1.514 0 0-1.016 2.264 7.53 4.786 4.298 0 1 7.272-2.205 7.53 4.786 4.298 0 1 6.025 2.84 5.521 9.794 43.486 0 0-4.002-.62 7.969 14.137 88.486 0 0-1.525-.086 7.969 14.137 88.486 0 0-3.994.233 9.794 5.521 43.486 0 0-4.12.976 7.969 14.137 88.486 0 0-2.744 1.201 7.969 14.137 88.486 0 0-.32 11.278 7.969 14.137 88.486 0 0 2.264 1.015 4.786 7.53 4.298 0 1-2.205-7.27 4.786 7.53 4.298 0 1 2.841-6.028 9.794 5.521 43.486 0 0-.619 4.013 7.969 14.137-1.514 0 0 .147 5.498 5.521 9.794 43.486 0 0 5.19 4.915 7.969 14.137 88.486 0 0 5.484-.145 9.794 5.521 43.486 0 0 4.093-.922 9.794 5.521 43.486 0 0 .83-4.258 7.969 14.137-1.514 0 0-.143-5.505 5.521 9.794 43.486 0 0-.978-4.13 7.969 14.137-1.514 0 0-1.202-2.743 7.969 14.137-1.514 0 0-5.793-4.3zm7.662 7.222a4.848 7.62 3.91 0 1 2.611 7.637 4.848 7.62 3.91 0 1-2.648 5.932 7.969 14.137 88.486 0 0 2.451-1.11 7.969 14.137 88.486 0 0 .32-11.277 7.969 14.137 88.486 0 0-2.734-1.181zm-7.817.092c2.2 0 3.876.3 5.03.899 1.153.592 1.73 1.459 1.73 2.601 0 .586-.176 1.112-.527 1.578-.352.46-.952.958-1.799 1.49l-.865.51c-.613.371-1.014.671-1.203.899-.19.221-.283.465-.283.734v.404h-4.881v-.44c0-.49.15-.923.447-1.3.297-.383.924-.867 1.879-1.453l.865-.521c.514-.311.887-.604 1.121-.88.244-.274.365-.548.365-.824 0-.418-.215-.745-.648-.978-.433-.24-1.038-.36-1.813-.36-.73 0-1.518.104-2.365.307a15.84 15.84 0 0 0-2.648.887v-2.817c1.09-.251 2.085-.437 2.986-.557s1.77-.18 2.609-.18zm-2.799 10.443h4.881v3.194h-4.88zm-3.46 3.756a7.969 14.137-1.514 0 0 1.109 2.451 7.969 14.137-1.514 0 0 11.277.32 7.969 14.137-1.514 0 0 1.182-2.734 7.62 4.848 3.91 0 1-7.637 2.611 7.62 4.848 3.91 0 1-5.932-2.648zm9.542 99.574a11.927 11.542.967 0 0-11.497 11.932 11.927 11.542.967 0 0 12.343 11.138 11.927 11.542.967 0 0 11.497-11.932 11.927 11.542.967 0 0-12.343-11.138zm.265 2.551c3.135-.104 5.54.194 7.212.895 1.673.693 2.533 1.76 2.586 3.203.028.74-.199 1.414-.678 2.02-.48.598-1.31 1.254-2.493 1.967l-1.21.686c-.857.497-1.415.894-1.674 1.19-.26.288-.384.601-.372.94l.02.512-6.958.231-.02-.554c-.023-.62.17-1.175.576-1.665.406-.498 1.275-1.14 2.61-1.925l1.21-.698c.718-.417 1.238-.805 1.559-1.163.334-.36.495-.713.483-1.06-.02-.529-.343-.93-.97-1.204-.628-.282-1.495-.404-2.6-.367-1.04.035-2.16.2-3.359.497-1.199.29-2.445.706-3.738 1.248l-.13-3.557a51.558 51.558 0 0 1 4.236-.845 31.817 31.817 0 0 1 3.71-.35zm-.121 12.307a3.55 4.03 88.77 0 1 4.157 3.414 3.55 4.03 88.77 0 1-3.897 3.683 3.55 4.03 88.77 0 1-4.156-3.415 3.55 4.03 88.77 0 1 3.896-3.682zM329.26 224.388c3.601 9.188 4.415 19.033 0 30.115l26.083-15.058zm10.756 11.551h5.09v1.932h-2.77v.536h2.77v1.93h-2.77v2.518h-2.32v-4.984zm-5.39.038h5.09v1.93h-2.772v.538h2.772v1.929h-2.772v.536h2.772v1.929h-5.09v-4.933zm10.726.06h2.321v6.915h-2.32zm40.728 70.889c-8.17 0-14.792 6.314-14.793 14.101 0 7.788 6.623 14.103 14.793 14.103 8.17.001 14.795-6.314 14.795-14.103-.001-7.788-6.625-14.102-14.795-14.1zm0 2.85c6.519 0 11.803 5.037 11.803 11.251 0 6.214-5.285 11.252-11.803 11.251-6.518-.001-11.801-5.038-11.801-11.251 0-6.214 5.283-11.25 11.8-11.252zm-.427 1.149c-5.942.191-10.587 4.867-10.377 10.446.212 5.578 5.2 9.945 11.142 9.753 5.941-.192 10.587-4.868 10.376-10.446s-5.2-9.945-11.14-9.753zm2.238 2.23c1.875.064 3.38.328 4.512.788 1.51.607 2.286 1.542 2.334 2.805.025.648-.18 1.238-.612 1.768-.433.524-1.183 1.098-2.251 1.721l-1.09.602c-.774.435-1.28.782-1.513 1.041-.234.253-.346.526-.335.824l.018.446-6.28.204-.018-.484a2.06 2.06 0 0 1 .52-1.459c.367-.436 1.152-1 2.356-1.687l1.091-.609c.648-.365 1.117-.704 1.407-1.018.302-.315.449-.625.438-.93-.018-.462-.31-.814-.876-1.054-.566-.247-1.35-.353-2.347-.321-.94.03-1.95.175-3.031.435a22.765 22.765 0 0 0-3.375 1.093l-.117-3.115a47.994 47.994 0 0 1 3.821-.74 29.637 29.637 0 0 1 5.347-.31zm-2.04 10.917a3.02 3.02 0 0 1 3.02 3.02 3.02 3.02 0 0 1-3.02 3.019 3.02 3.02 0 0 1-3.02-3.018 3.02 3.02 0 0 1 3.02-3.02zm45.08-16.349a14.227 13.827 0 0 0-14.227 13.824 14.227 13.827 0 0 0 14.227 13.829 14.227 13.827 0 0 0 14.226-13.829 14.227 13.827 0 0 0-14.226-13.824zm0 4.005a10.103 9.819 0 0 1 10.102 9.82 10.103 9.819 0 0 1-10.102 9.819 10.103 9.819 0 0 1-10.104-9.82 10.103 9.819 0 0 1 10.104-9.82zm2.398 2.582c-1.122-.04-2.41.01-3.863.156-1.107.11-2.25.286-3.428.527-2.376.77-1.483 2.637-.194 2.56a17.418 17.418 0 0 1 3.094-.62c1.023-.103 1.834-.062 2.43.123.595.179.913.48.955.903.028.279-.104.574-.398.885-.281.31-.746.655-1.394 1.038l-1.09.64c-1.202.72-1.98 1.295-2.334 1.721-.354.421-.507.879-.457 1.375l.044.446 6.445-.644-.04-.41c-.028-.272.072-.533.3-.782.226-.255.727-.61 1.499-1.067l1.09-.63c1.065-.652 1.807-1.234 2.225-1.747.417-.518.595-1.075.536-1.669-.115-1.156-.966-1.958-2.55-2.405-.791-.227-1.748-.36-2.87-.4zm-3.06 10.046a3.158 2.832 0 0 0-3.158 2.833 3.158 2.832 0 0 0 3.159 2.832 3.158 2.832 0 0 0 3.159-2.832 3.158 2.832 0 0 0-3.16-2.833z" fill="#e0e0e0"/><path d="M24.369 418.318a3.742 3.742 0 0 0-3.75 3.752v19.727a3.742 3.742 0 0 0 3.75 3.75h17.92a3.742 3.742 0 0 0 3.75-3.75V422.07a3.742 3.742 0 0 0-3.75-3.752zm1.892 2.873h14.138c1.64 0 2.96 1.321 2.96 2.96v15.564c0 1.64-1.321 2.96-2.96 2.96H26.26c-1.64 0-2.96-1.32-2.96-2.96v-15.56c0-1.639 1.32-2.96 2.96-2.96zm-.493.981c-.618 0-1.114.3-1.114.675v1.882c0 .366 7.729 1.583 8.675 1.575.947.008 8.676-1.209 8.676-1.575v-1.882c0-.375-.496-.675-1.114-.675h-7.562zm6.248.293h2.627c.314 0 .567.253.567.567v1.177a.565.565 0 0 1-.567.566h-2.627a.565.565 0 0 1-.567-.566v-1.177c0-.314.253-.567.567-.567zm-4.753 6.854c-.57 0-1.03.459-1.03 1.029v.426c0 .57.46 1.028 1.03 1.028h12.134c.57 0 1.028-.458 1.028-1.028v-.426c0-.57-.458-1.029-1.028-1.029zm1.692 3.759a.565.565 0 0 0-.567.566v1.175c0 .314.253.567.567.567h8.75a.565.565 0 0 0 .566-.567v-1.175a.565.565 0 0 0-.567-.566zm-1.692 3.584c-.57 0-1.03.458-1.03 1.028v.426c0 .57.46 1.029 1.03 1.029h12.134c.57 0 1.028-.459 1.028-1.029v-.426c0-.57-.458-1.028-1.028-1.028zm40.589-18.259a3.741 3.741 0 0 0-3.748 3.752v19.726a3.741 3.741 0 0 0 3.748 3.752h17.922a3.741 3.741 0 0 0 3.748-3.752v-19.726a3.741 3.741 0 0 0-3.748-3.752zm14.496.606h1.068c.384 0 .692.23.692.52v1.77a2.945 2.945 0 0 1 2.734 2.938V439.8a2.955 2.955 0 0 1-2.96 2.961H69.745a2.955 2.955 0 0 1-2.96-2.96v-15.563a2.95 2.95 0 0 1 2.857-2.95v-1.7c0-.289.308-.522.691-.522h1.068c.384 0 .692.233.692.522v1.69h3.557v-1.72c0-.288.307-.519.69-.519h1.07c.383 0 .69.231.69.52v1.718h3.557v-1.748c0-.288.308-.52.692-.52zm-13.166 2.996a.691.691 0 0 0-.692.693v2.69a.69.69 0 0 0 .692.691h15.262a.69.69 0 0 0 .691-.691v-2.69a.691.691 0 0 0-.691-.693h-.336v2.086c0 .288-.308.521-.691.521h-1.069c-.383 0-.691-.233-.691-.521v-2.086H78.1v2.115c0 .288-.308.52-.691.52H76.34c-.383 0-.691-.232-.691-.52v-2.115h-3.557v2.144c0 .289-.308.52-.691.52h-1.069c-.383 0-.69-.231-.69-.52v-2.145zm1.564 7.4c-.57 0-1.029.458-1.029 1.028v.426c0 .57.46 1.029 1.03 1.029h12.132c.57 0 1.03-.46 1.03-1.03v-.425c0-.57-.46-1.028-1.03-1.028zm1.692 3.758a.565.565 0 0 0-.567.567v1.176c0 .314.253.566.567.566h8.75a.565.565 0 0 0 .566-.566v-1.176a.565.565 0 0 0-.566-.567zm-1.692 3.584c-.57 0-1.029.46-1.029 1.03v.426c0 .57.46 1.027 1.03 1.027h12.132c.57 0 1.03-.458 1.03-1.027v-.426c0-.57-.46-1.03-1.03-1.03zm38.834-18.209a3.741 3.741 0 0 0-3.747 3.752v19.727a3.741 3.741 0 0 0 3.748 3.752h17.922a3.741 3.741 0 0 0 3.748-3.752V422.29a3.741 3.741 0 0 0-3.748-3.752zm1.893 2.873h14.137a2.956 2.956 0 0 1 2.961 2.961v15.562a2.955 2.955 0 0 1-2.96 2.961h-14.138a2.955 2.955 0 0 1-2.96-2.96v-15.563c0-1.64 1.32-2.96 2.96-2.96zm13.62.811a1.19 1.19 0 0 0-.762.363l-1.594 1.637 3.201 3.121 1.596-1.637c.433-.444.462-1.11.066-1.496l-1.773-1.73a.943.943 0 0 0-.735-.258zm-3.83 3.512L111.255 436l-.037-.037s-2.155 4.046-1.453 4.73c.851.83 4.693-1.572 4.693-1.572l10.004-10.266z" fill="#ff9000" fill-rule="evenodd"/><path d="M332.14 418.318a3.742 3.742 0 0 0-3.749 3.752v19.727a3.742 3.742 0 0 0 3.75 3.75h17.92a3.742 3.742 0 0 0 3.75-3.75V422.07a3.742 3.742 0 0 0-3.75-3.752zm1.893 2.873h14.138c1.64 0 2.96 1.321 2.96 2.96v15.564c0 1.64-1.321 2.96-2.96 2.96h-14.138c-1.64 0-2.96-1.32-2.96-2.96v-15.56c0-1.639 1.32-2.96 2.96-2.96zm-.493.981c-.618 0-1.114.3-1.114.675v1.882c0 .366 7.729 1.583 8.675 1.575.947.008 8.676-1.209 8.676-1.575v-1.882c0-.375-.496-.675-1.114-.675H341.1zm6.248.293h2.627c.314 0 .567.253.567.567v1.177a.565.565 0 0 1-.567.566h-2.627a.565.565 0 0 1-.567-.566v-1.177c0-.314.253-.567.567-.567zm-4.753 6.854c-.57 0-1.03.459-1.03 1.029v.426c0 .57.46 1.028 1.03 1.028h12.134c.57 0 1.028-.458 1.028-1.028v-.426c0-.57-.458-1.029-1.028-1.029zm1.692 3.759a.565.565 0 0 0-.567.566v1.175c0 .314.253.567.567.567h8.75a.565.565 0 0 0 .566-.567v-1.175a.565.565 0 0 0-.567-.566zm-1.692 3.584c-.57 0-1.03.458-1.03 1.028v.426c0 .57.46 1.029 1.03 1.029h12.134c.57 0 1.028-.459 1.028-1.029v-.426c0-.57-.458-1.028-1.028-1.028zm40.595-18.259a3.741 3.741 0 0 0-3.748 3.752v19.726a3.741 3.741 0 0 0 3.748 3.752h17.922a3.741 3.741 0 0 0 3.748-3.752v-19.726a3.741 3.741 0 0 0-3.748-3.752zm14.496.606h1.068c.384 0 .692.23.692.52v1.77a2.945 2.945 0 0 1 2.734 2.938V439.8a2.955 2.955 0 0 1-2.96 2.961h-14.136a2.955 2.955 0 0 1-2.96-2.96v-15.563a2.95 2.95 0 0 1 2.857-2.95v-1.7c0-.289.308-.522.691-.522h1.068c.384 0 .692.233.692.522v1.69h3.557v-1.72c0-.288.307-.519.69-.519h1.07c.383 0 .69.231.69.52v1.718h3.557v-1.748c0-.288.308-.52.692-.52zm-13.166 2.996a.691.691 0 0 0-.692.693v2.69a.69.69 0 0 0 .692.691h15.262a.69.69 0 0 0 .691-.691v-2.69a.691.691 0 0 0-.691-.693h-.336v2.086c0 .288-.308.521-.691.521h-1.069c-.383 0-.691-.233-.691-.521v-2.086h-3.557v2.115c0 .288-.308.52-.691.52h-1.069c-.383 0-.691-.232-.691-.52v-2.115h-3.557v2.144c0 .289-.308.52-.691.52h-1.069c-.383 0-.69-.231-.69-.52v-2.145zm1.564 7.4c-.57 0-1.029.458-1.029 1.028v.426c0 .57.46 1.029 1.03 1.029h12.132c.57 0 1.03-.46 1.03-1.03v-.425c0-.57-.46-1.028-1.03-1.028zm1.692 3.758a.565.565 0 0 0-.567.567v1.176c0 .314.253.566.567.566h8.75a.565.565 0 0 0 .566-.566v-1.176a.565.565 0 0 0-.566-.567zm-1.692 3.584c-.57 0-1.029.46-1.029 1.03v.426c0 .57.46 1.027 1.03 1.027h12.132c.57 0 1.03-.458 1.03-1.027v-.426c0-.57-.46-1.03-1.03-1.03zm38.836-18.209a3.741 3.741 0 0 0-3.747 3.752v19.727a3.741 3.741 0 0 0 3.748 3.752h17.922a3.741 3.741 0 0 0 3.748-3.752V422.29a3.741 3.741 0 0 0-3.748-3.752zm1.893 2.873h14.137a2.956 2.956 0 0 1 2.961 2.961v15.562a2.955 2.955 0 0 1-2.96 2.961h-14.138a2.955 2.955 0 0 1-2.96-2.96v-15.563c0-1.64 1.32-2.96 2.96-2.96zm13.62.811a1.19 1.19 0 0 0-.762.363l-1.594 1.637 3.201 3.121 1.596-1.637c.433-.444.462-1.11.066-1.496l-1.773-1.73a.943.943 0 0 0-.735-.258zm-3.83 3.512L419.035 436l-.037-.037s-2.155 4.046-1.453 4.73c.851.83 4.693-1.572 4.693-1.572l10.004-10.266z" fill="#e0e0e0" fill-rule="evenodd"/><path d="M76.506 536.6a7.232 7.232 0 0 0-7.233 7.233 7.232 7.232 0 0 0 7.233 7.233 7.232 7.232 0 0 0 7.232-7.233 7.232 7.232 0 0 0-7.232-7.232zm-6.42 12.971a7.396 7.396 0 0 0-2.004 1.24c-2.715 2.14-4.192 5.802-4.051 9.383-.047 2.885-.04 2.231.025 5.116H88.95c.057-3.51.119-3.489-.049-6.995-.385-3.763-2.711-7.292-5.98-8.744a7.239 7.29 0 0 1-6.416 3.928 7.239 7.29 0 0 1-6.42-3.928zm-32.432-7.236a5.784 5.784 0 0 0-5.785 5.784 5.784 5.784 0 0 0 5.785 5.785 5.784 5.784 0 0 0 5.784-5.785 5.784 5.784 0 0 0-5.784-5.784zm-12.447 5.711a4.345 4.345 0 0 0-4.344 4.344 4.345 4.345 0 0 0 4.344 4.346 4.345 4.345 0 0 0 4.346-4.346 4.345 4.345 0 0 0-4.346-4.344zm7.312 4.663a5.92 5.92 0 0 0-1.602.992c-.863.68-1.561 1.555-2.092 2.538a4.349 4.38 0 0 1-3.618 1.96 4.349 4.38 0 0 1-3.857-2.361c-.43.183-.837.423-1.204.745-1.631 1.286-2.518 3.486-2.434 5.638-.028 1.733-.023 1.341.016 3.074h9.97v.002h19.91c.045-2.808.094-2.79-.04-5.594-.308-3.01-2.168-5.833-4.783-6.994a5.79 5.83 0 0 1-5.13 3.142 5.79 5.83 0 0 1-5.135-3.142z" fill="#ff9000" fill-rule="evenodd"/><path d="M385.84 536.6a7.232 7.232 0 0 0-7.232 7.233 7.232 7.232 0 0 0 7.233 7.233 7.232 7.232 0 0 0 7.232-7.233 7.232 7.232 0 0 0-7.232-7.232zm-6.42 12.971a7.396 7.396 0 0 0-2.003 1.24c-2.715 2.14-4.192 5.802-4.051 9.383-.047 2.885-.04 2.231.025 5.116h24.894c.057-3.51.119-3.489-.049-6.995-.385-3.763-2.711-7.292-5.98-8.744a7.239 7.29 0 0 1-6.416 3.928 7.239 7.29 0 0 1-6.42-3.928zm-32.43-7.236a5.784 5.784 0 0 0-5.785 5.784 5.784 5.784 0 0 0 5.785 5.785 5.784 5.784 0 0 0 5.784-5.785 5.784 5.784 0 0 0-5.784-5.784zm-12.447 5.711a4.345 4.345 0 0 0-4.344 4.344 4.345 4.345 0 0 0 4.344 4.346 4.345 4.345 0 0 0 4.346-4.346 4.345 4.345 0 0 0-4.346-4.344zm7.312 4.663a5.92 5.92 0 0 0-1.602.992c-.863.68-1.561 1.555-2.092 2.538a4.349 4.38 0 0 1-3.618 1.96 4.349 4.38 0 0 1-3.857-2.361c-.43.183-.837.423-1.204.745-1.631 1.286-2.518 3.486-2.434 5.638-.028 1.733-.023 1.341.016 3.074h9.97v.002h19.91c.045-2.808.094-2.79-.04-5.594-.308-3.01-2.168-5.833-4.783-6.994a5.79 5.83 0 0 1-5.13 3.142 5.79 5.83 0 0 1-5.135-3.142z" fill-rule="evenodd" fill="#e0e0e0"/><path d="M23.502 579.793a2.492 2.492 0 0 0-2.515 2.613l.287 7.534a2.734 2.734 0 0 0 2.716 2.613h18.965a2.492 2.492 0 0 0 2.516-2.613l-.288-7.533a2.732 2.732 0 0 0-2.715-2.614zm3.24 2.125H39.39a1.82 1.82 0 0 1 1.81 1.742l.192 5.026a1.662 1.662 0 0 1-1.677 1.742H27.069a1.823 1.823 0 0 1-1.813-1.742l-.192-5.025a1.661 1.661 0 0 1 1.679-1.743zm-1.844 13.23c-1.536 0-3.156-.793-3.63-.008l-3.1 5.125c-.475.785.38 2.655 1.916 2.655H38.64c1.536 0 3.156-1.87 3.63-2.655l4.201-5.838c.475-.785-1.48.72-3.017.72zm-.113-.719h1.242c.437 0 .663.178.506.399l-.59.83c-.157.22-.633.396-1.07.396h-1.244c-.438 0-.663-.176-.506-.396l.59-.83c.156-.22.635-.399 1.072-.399zm4.307 0h1.242c.437 0 .662.178.506.399l-.59.83c-.157.22-.635.396-1.073.396h-1.242c-.437 0-.662-.176-.506-.396l.59-.83c.157-.22.636-.398 1.073-.398zm4.306 0h1.242c.438 0 .663.178.506.399l-.588.83c-.156.22-.635.396-1.072.396h-1.242c-.437 0-.663-.176-.506-.396l.588-.83c.157-.22.635-.399 1.072-.399zm4.309 0h1.242c.437 0 .663.178.506.399l-.59.83c-.157.22-.635.396-1.072.396H36.55c-.437 0-.663-.176-.506-.396l.59-.83c.156-.22.635-.399 1.072-.399zm-12.184 2.469h1.242c.437 0 .663.178.506.398l-.59.829c-.157.22-.633.398-1.07.398h-1.244c-.437 0-.663-.178-.506-.398l.59-.829c.156-.22.635-.398 1.072-.398zm4.306 0h1.243c.437 0 .662.178.505.398l-.59.829c-.156.22-.634.398-1.072.398h-1.242c-.437 0-.662-.178-.506-.398l.59-.829c.157-.22.635-.398 1.072-.398zm4.307 0h1.242c.437 0 .663.178.506.398l-.588.829c-.157.22-.635.398-1.072.398h-1.242c-.438 0-.663-.178-.506-.398l.588-.829c.156-.22.635-.398 1.072-.398zm4.309 0h1.242c.437 0 .662.178.506.398l-.59.829c-.157.22-.635.398-1.073.398h-1.242c-.437 0-.662-.178-.506-.398l.59-.829c.157-.22.635-.398 1.073-.398zm-13.001 2.361h11.03c.439 0 .664.178.504.398l-.603.829c-.16.22-.64.398-1.078.398H24.264c-.438 0-.664-.178-.504-.398l.603-.829c.16-.22.642-.398 1.08-.398zm-3.926.012h1.242c.437 0 .663.176.506.396l-.59.831c-.157.22-.635.398-1.072.398h-1.242c-.438 0-.661-.178-.504-.398l.587-.83c.157-.221.636-.397 1.073-.397zm17.676 0h1.244c.437 0 .662.176.506.396l-.59.83c-.157.221-.635.399-1.072.399h-1.24c-.438 0-.665-.178-.508-.398l.59-.83c.156-.221.633-.397 1.07-.397z" fill="#ff8000"/><path d="M57.37 852.673a1.477.448 0 0 0-1.373.445 1.477.448 0 0 0 1.477.447 1.477.448 0 0 0 1.477-.447 1.477.448 0 0 0-1.477-.445 1.477.448 0 0 0-.105 0zm-1.447 1.644c-.579.52-1.257 1.447-2.07 2.732a4.099 3.33 0 0 0 3.62 1.78 4.099 3.33 0 0 0 3.626-1.782c-.814-1.285-1.495-2.21-2.074-2.73a1.645 1.285 0 0 1-1.55.9 1.645 1.285 0 0 1-1.552-.9zm-2.76 3.906c-1.215 2.197-2.135 4.528-2.868 6.9.021 5.587-.042 11.174.035 16.76.222 1.679 2.115 2.821 3.847 2.557 1.099-.012 2.198-.002 3.297.004 1.1-.008 2.199-.023 3.297-.008 1.732.264 3.625-.878 3.848-2.557.077-5.585.013-11.173.035-16.76-.733-2.37-1.651-4.699-2.867-6.895a5.472 4.445 0 0 1-4.314 1.719 5.472 4.445 0 0 1-4.309-1.719zm-.886 7.69h1.803l1.09 1.578 1.103-1.578h2.402l1.09 1.578 1.104-1.578h1.802l-1.922 2.59 2.016 2.734h-1.8l-1.2-1.682-1.184 1.682h-2.214l-1.198-1.682-1.185 1.682h-1.8l2.017-2.724zm5.195.81l-1.318 1.78 1.322 1.792 1.318-1.783z" fill="#ff9000" fill-rule="evenodd"/><path d="M330.25 579.788a2.492 2.492 0 0 0-2.515 2.614l.287 7.533a2.734 2.734 0 0 0 2.717 2.613h18.965a2.492 2.492 0 0 0 2.516-2.613l-.287-7.533a2.732 2.732 0 0 0-2.715-2.614zm3.241 2.125h12.648c.966 0 1.774.777 1.81 1.743l.192 5.025a1.662 1.662 0 0 1-1.678 1.742h-12.646a1.823 1.823 0 0 1-1.812-1.742l-.192-5.025a1.662 1.662 0 0 1 1.678-1.743zm-1.844 13.23c-1.536 0-3.156-.792-3.63-.007l-3.1 5.125c-.475.786.38 2.655 1.916 2.655h18.557c1.536 0 3.156-1.87 3.63-2.655l4.201-5.837c.476-.786-1.48.72-3.017.72zm-.113-.718h1.242c.437 0 .663.178.506.399l-.59.83c-.157.22-.633.396-1.07.396h-1.244c-.437 0-.663-.176-.506-.396l.59-.83c.156-.22.635-.399 1.072-.399zm4.306 0h1.243c.437 0 .662.178.506.399l-.59.83c-.157.22-.635.396-1.073.396h-1.242c-.437 0-.662-.176-.506-.396l.59-.83c.157-.22.635-.399 1.072-.399zm4.307 0h1.242c.437 0 .663.178.506.399l-.588.83c-.156.22-.635.396-1.072.396h-1.242c-.437 0-.663-.176-.506-.396l.588-.83c.156-.22.635-.399 1.072-.399zm4.309 0h1.242c.437 0 .662.178.506.399l-.59.83c-.157.22-.635.396-1.072.396h-1.243c-.437 0-.662-.176-.505-.396l.59-.83c.156-.22.634-.399 1.072-.399zm-12.184 2.47h1.242c.437 0 .662.177.506.398l-.59.828c-.157.22-.633.398-1.07.398h-1.245c-.437 0-.662-.178-.505-.398l.59-.828c.156-.22.634-.399 1.072-.399zm4.306 0h1.242c.438 0 .663.177.506.398l-.59.828c-.156.22-.635.398-1.072.398h-1.242c-.437 0-.663-.178-.506-.398l.59-.828c.157-.22.635-.399 1.072-.399zm4.307 0h1.242c.437 0 .663.177.506.398l-.588.828c-.157.22-.635.398-1.072.398h-1.242c-.438 0-.663-.178-.506-.398l.588-.828c.156-.22.635-.399 1.072-.399zm4.308 0h1.243c.437 0 .662.177.506.398l-.59.828c-.157.22-.635.398-1.073.398h-1.242c-.437 0-.662-.178-.506-.398l.59-.828c.157-.22.635-.399 1.072-.399zm-13 2.36h11.031c.439 0 .664.178.504.399l-.603.828c-.16.22-.64.398-1.078.398h-11.033c-.438 0-.664-.177-.504-.398l.603-.828c.16-.22.642-.399 1.08-.399zm-3.925.012h1.242c.437 0 .662.176.506.397l-.59.83c-.157.22-.635.398-1.072.398h-1.243c-.437 0-.66-.178-.504-.398l.588-.83c.157-.22.635-.397 1.073-.397zm17.676 0h1.244c.437 0 .662.176.506.397l-.59.83c-.157.22-.635.398-1.072.398h-1.24c-.438 0-.665-.178-.509-.398l.59-.83c.157-.22.633-.397 1.07-.397z" fill="#e0e0e0"/><path d="M363.245 852.673a1.477.448 0 0 0-1.372.445 1.477.448 0 0 0 1.477.447 1.477.448 0 0 0 1.477-.447 1.477.448 0 0 0-1.477-.445 1.477.448 0 0 0-.105 0zm-1.446 1.644c-.579.52-1.257 1.447-2.07 2.732a4.099 3.33 0 0 0 3.62 1.78 4.099 3.33 0 0 0 3.626-1.782c-.814-1.285-1.495-2.21-2.074-2.73a1.645 1.285 0 0 1-1.55.9 1.645 1.285 0 0 1-1.552-.9zm-2.76 3.906c-1.215 2.197-2.135 4.528-2.868 6.9.021 5.587-.042 11.174.035 16.76.222 1.679 2.115 2.821 3.847 2.557 1.099-.012 2.198-.002 3.297.004 1.1-.008 2.199-.023 3.297-.008 1.732.264 3.625-.878 3.848-2.557.077-5.585.013-11.173.035-16.76-.733-2.37-1.651-4.699-2.867-6.895a5.472 4.445 0 0 1-4.314 1.719 5.472 4.445 0 0 1-4.309-1.719zm-.886 7.69h1.803l1.09 1.578 1.103-1.578h2.402l1.09 1.578 1.104-1.578h1.802l-1.922 2.59 2.016 2.734h-1.8l-1.2-1.682-1.184 1.682h-2.214l-1.198-1.682-1.185 1.682h-1.8l2.017-2.724zm5.195.81l-1.318 1.78 1.322 1.792 1.318-1.783z" fill-rule="evenodd" fill="#fff"/><path d="M33.137 856.04a13.04 13.04 0 0 0-13.039 13.038 13.04 13.04 0 0 0 13.04 13.04 13.04 13.04 0 0 0 13.038-13.04 13.04 13.04 0 0 0-13.039-13.039zm-3.152 6.316a1.726 3.595 0 0 1 1.727 3.595 1.726 3.595 0 0 1-1.727 3.594 1.726 3.595 0 0 1-1.726-3.594 1.726 3.595 0 0 1 1.726-3.595zm6.233 0a1.726 3.595 0 0 1 1.726 3.595 1.726 3.595 0 0 1-1.726 3.594 1.726 3.595 0 0 1-1.727-3.594 1.726 3.595 0 0 1 1.727-3.595zm-11.867 8.18h2.7a6.973 6.973 0 0 0 6.083 3.578 6.973 6.973 0 0 0 6.09-3.579h2.7a9.426 9.426 0 0 1-8.79 6.03 9.426 9.426 0 0 1-8.783-6.03z" fill="#ff9000" fill-rule="evenodd"/><path d="M339.02 856.04a13.04 13.04 0 0 0-13.04 13.038 13.04 13.04 0 0 0 13.04 13.04 13.04 13.04 0 0 0 13.039-13.04 13.04 13.04 0 0 0-13.04-13.039zm-3.153 6.316a1.726 3.595 0 0 1 1.727 3.595 1.726 3.595 0 0 1-1.727 3.594 1.726 3.595 0 0 1-1.726-3.594 1.726 3.595 0 0 1 1.726-3.595zm6.233 0a1.726 3.595 0 0 1 1.726 3.595 1.726 3.595 0 0 1-1.726 3.594 1.726 3.595 0 0 1-1.727-3.594 1.726 3.595 0 0 1 1.727-3.595zm-11.867 8.18h2.701a6.973 6.973 0 0 0 6.082 3.578 6.973 6.973 0 0 0 6.09-3.579h2.701a9.426 9.426 0 0 1-8.79 6.03 9.426 9.426 0 0 1-8.784-6.03z" fill-rule="evenodd" fill="#fff"/><path d="M23.325 646.31l11.62-6.708 11.62-6.709-11.62-6.709-11.62-6.708 9.68 13.417zm54.092 0l-11.62-6.708-11.62-6.709 11.62-6.709 11.62-6.708-9.68 13.417z" fill="#ff9000"/><path d="M324.845 646.31l11.62-6.708 11.62-6.709-11.62-6.709-11.62-6.708 9.68 13.417zm54.092 0l-11.62-6.708-11.62-6.709 11.62-6.709 11.62-6.708-9.68 13.417z" fill="#fff"/><path d="M34.542 701.098v9.485a5.246 5.246 0 0 1 1.888.705l6.885-6.885c-2.474-1.963-5.55-3.122-8.773-3.305zm-1.762.012c-3.224.175-6.304 1.326-8.783 3.283l6.892 6.893a5.245 5.245 0 0 1 1.891-.707zm-10.092 4.467c-2.395 2.414-3.825 5.542-4.045 8.846h10.033a4.671 4.671 0 0 1 .9-1.957zm21.94.006l-6.884 6.883c.452.58.76 1.249.9 1.957h10.02c-.219-3.3-1.646-6.426-4.036-8.84zm-10.968 6.873a2.848 2.848 0 0 0-2.848 2.848 2.848 2.848 0 0 0 2.848 2.847 2.848 2.848 0 0 0 2.848-2.847 2.848 2.848 0 0 0-2.848-2.848zm-15.004 3.728c.22 3.301 1.647 6.427 4.037 8.84l6.883-6.883a4.672 4.672 0 0 1-.9-1.957zm19.988 0a4.671 4.671 0 0 1-.9 1.957l6.888 6.89c2.395-2.415 3.825-5.543 4.045-8.847zm-7.754 3.135l-6.885 6.885c2.474 1.963 5.55 3.122 8.774 3.305v-9.485a5.246 5.246 0 0 1-1.889-.705zm5.541.002a5.245 5.245 0 0 1-1.89.707v9.47c3.224-.176 6.303-1.327 8.783-3.284z" fill-rule="evenodd" fill="#ff9000"/><path d="M341.7 700.018v9.485a5.246 5.246 0 0 1 1.89.705l6.884-6.885c-2.474-1.963-5.55-3.122-8.773-3.305zm-1.76.012c-3.225.175-6.305 1.326-8.784 3.283l6.892 6.893a5.245 5.245 0 0 1 1.891-.707zm-10.093 4.467c-2.395 2.414-3.825 5.542-4.045 8.846h10.033a4.671 4.671 0 0 1 .9-1.957zm21.94.006l-6.884 6.883c.452.58.76 1.249.9 1.957h10.02c-.219-3.3-1.646-6.426-4.036-8.84zm-10.968 6.873a2.848 2.848 0 0 0-2.848 2.848 2.848 2.848 0 0 0 2.848 2.847 2.848 2.848 0 0 0 2.848-2.847 2.848 2.848 0 0 0-2.848-2.848zm-15.004 3.728c.22 3.301 1.647 6.427 4.037 8.84l6.883-6.883a4.672 4.672 0 0 1-.9-1.957zm19.988 0a4.671 4.671 0 0 1-.9 1.957l6.888 6.89c2.395-2.415 3.825-5.543 4.045-8.847zm-7.754 3.135l-6.885 6.885c2.474 1.963 5.55 3.122 8.774 3.305v-9.485a5.246 5.246 0 0 1-1.889-.705zm5.541.002a5.245 5.245 0 0 1-1.89.707v9.47c3.224-.176 6.303-1.327 8.783-3.284z" fill-rule="evenodd" fill="#fff"/><path d="M40.555 745.948a1.3 1.3 0 0 0-1.303 1.305v.51h4.908v-.51a1.3 1.3 0 0 0-1.302-1.305zm3.605 1.815v1.306a1.3 1.3 0 0 1-1.302 1.305c-1.8.166-2.927.021-3.606-1.305v-1.306H21.826a2.936 2.936 0 0 0-2.941 2.943v11.105a2.936 2.936 0 0 0 2.941 2.944h22.898a2.936 2.936 0 0 0 2.941-2.944v-11.105a2.936 2.936 0 0 0-2.94-2.943zm-22.1 1.098h8.01a1.225 1.225 0 1 1 0 2.451h-8.01a1.223 1.223 0 0 1-1.224-1.227 1.22 1.22 0 0 1 1.224-1.224zm8.99 3.308h4.45c1.238 0 2.234.996 2.234 2.235v4.324a2.229 2.229 0 0 1-2.234 2.234h-4.45a2.229 2.229 0 0 1-2.234-2.234v-4.324c0-1.239.996-2.235 2.234-2.235zm2.225 1.33a3.126 3.126 0 0 0-3.127 3.127 3.126 3.126 0 0 0 3.127 3.127 3.126 3.126 0 0 0 3.127-3.127 3.126 3.126 0 0 0-3.127-3.127zm.082 1.42a1.777 1.734 0 0 1 1.777 1.735 1.777 1.734 0 0 1-1.777 1.734 1.777 1.734 0 0 1-1.777-1.734 1.777 1.734 0 0 1 1.777-1.735z" fill="#ff9000" fill-rule="evenodd"/><path d="M347.76 745.948a1.3 1.3 0 0 0-1.302 1.305v.51h4.908v-.51a1.3 1.3 0 0 0-1.302-1.305zm3.606 1.815v1.306a1.3 1.3 0 0 1-1.302 1.305c-1.8.166-2.927.021-3.606-1.305v-1.306h-17.426a2.936 2.936 0 0 0-2.941 2.943v11.105a2.936 2.936 0 0 0 2.941 2.944h22.898a2.936 2.936 0 0 0 2.941-2.944v-11.105a2.936 2.936 0 0 0-2.94-2.943zm-22.1 1.098h8.01a1.225 1.225 0 1 1 0 2.451h-8.01a1.223 1.223 0 0 1-1.224-1.227 1.22 1.22 0 0 1 1.224-1.224zm8.99 3.308h4.45c1.238 0 2.234.996 2.234 2.235v4.324a2.229 2.229 0 0 1-2.234 2.234h-4.45a2.229 2.229 0 0 1-2.234-2.234v-4.324c0-1.239.996-2.235 2.234-2.235zm2.225 1.33a3.126 3.126 0 0 0-3.127 3.127 3.126 3.126 0 0 0 3.127 3.127 3.126 3.126 0 0 0 3.127-3.127 3.126 3.126 0 0 0-3.127-3.127zm.082 1.42a1.777 1.734 0 0 1 1.777 1.735 1.777 1.734 0 0 1-1.777 1.734 1.777 1.734 0 0 1-1.777-1.734 1.777 1.734 0 0 1 1.777-1.735z" fill="#fff" fill-rule="evenodd"/><g fill="#ff9000" fill-rule="evenodd"><path d="M22.294 780.727a2.087 2.087 0 0 0-2.091 2.092v21.476c0 1.16.932 2.094 2.091 2.094h23.384c1.16 0 2.092-.935 2.092-2.094V782.82a2.087 2.087 0 0 0-2.092-2.092zm2.53 2.774h18.328c.908 0 1.638.732 1.638 1.64v16.834c0 .909-.73 1.64-1.638 1.64H24.824c-.909 0-1.64-.731-1.64-1.64v-16.834c0-.908.731-1.64 1.64-1.64z"/><path d="M25.079 786.28a.335.335 0 0 0-.336.335v3.444c0 .185.15.335.336.335h18.683c.185 0 .336-.15.336-.335v-3.444a.335.335 0 0 0-.336-.336zm14.92.882h2.199a.37.37 0 0 1 .37.371v1.647a.371.371 0 0 1-.37.373h-2.2a.371.371 0 0 1-.37-.373v-1.647a.37.37 0 0 1 .37-.37zm-14.92 4.902a.335.335 0 0 0-.336.336v3.444c0 .186.15.336.336.336h18.683c.185 0 .336-.15.336-.336V792.4a.335.335 0 0 0-.336-.336zm14.92.907h2.199a.37.37 0 0 1 .37.37v1.647a.371.371 0 0 1-.37.373h-2.2a.371.371 0 0 1-.37-.373v-1.646a.37.37 0 0 1 .37-.371zm-14.92 4.879a.335.335 0 0 0-.336.336v3.443c0 .186.15.336.336.336h18.683c.185 0 .336-.15.336-.336v-3.443a.335.335 0 0 0-.336-.336zm14.92.93h2.199a.37.37 0 0 1 .37.37v1.647a.371.371 0 0 1-.37.373h-2.2a.371.371 0 0 1-.37-.373v-1.647a.37.37 0 0 1 .37-.37z"/></g><g fill="#fff" fill-rule="evenodd"><path d="M329.918 780.727a2.087 2.087 0 0 0-2.091 2.092v21.476c0 1.16.932 2.094 2.091 2.094h23.384c1.16 0 2.092-.935 2.092-2.094V782.82a2.087 2.087 0 0 0-2.092-2.092zm2.53 2.774h18.328c.908 0 1.638.732 1.638 1.64v16.834c0 .909-.73 1.64-1.638 1.64h-18.328c-.909 0-1.64-.731-1.64-1.64v-16.834c0-.908.731-1.64 1.64-1.64z"/><path d="M332.703 786.28a.335.335 0 0 0-.336.335v3.444c0 .185.15.335.336.335h18.683c.185 0 .336-.15.336-.335v-3.444a.335.335 0 0 0-.336-.336zm14.92.882h2.199a.37.37 0 0 1 .37.371v1.647a.371.371 0 0 1-.37.373h-2.2a.371.371 0 0 1-.37-.373v-1.647a.37.37 0 0 1 .37-.37zm-14.92 4.902a.335.335 0 0 0-.336.336v3.444c0 .186.15.336.336.336h18.683c.185 0 .336-.15.336-.336V792.4a.335.335 0 0 0-.336-.336zm14.92.907h2.199a.37.37 0 0 1 .37.37v1.647a.371.371 0 0 1-.37.373h-2.2a.371.371 0 0 1-.37-.373v-1.646a.37.37 0 0 1 .37-.371zm-14.92 4.879a.335.335 0 0 0-.336.336v3.443c0 .186.15.336.336.336h18.683c.185 0 .336-.15.336-.336v-3.443a.335.335 0 0 0-.336-.336zm14.92.93h2.199a.37.37 0 0 1 .37.37v1.647a.371.371 0 0 1-.37.373h-2.2a.371.371 0 0 1-.37-.373v-1.647a.37.37 0 0 1 .37-.37z"/></g><path d="M82.913 187.434a9.588 9.588 0 0 0-9.588 9.588 9.588 9.588 0 0 0 2.281 6.207 3.118 8.21 41.23 0 0-5.639 4.307 3.118 8.21 41.23 0 0-2.97 8.178 3.118 8.21 41.23 0 0 7.793-4.22 3.118 8.21 41.23 0 0 3.414-6.132 9.588 9.588 0 0 0 4.709 1.248 9.588 9.588 0 0 0 9.588-9.588 9.588 9.588 0 0 0-9.588-9.588zm0 3.356a6.232 6.232 0 0 1 4.26 1.695c-.02-.01-.037-.028-.057-.037-.932-.41-2.285-.617-4.06-.617-.677 0-1.38.04-2.108.123a30.05 30.05 0 0 0-2.07.328 6.232 6.232 0 0 1 4.035-1.492zm-4.373 1.795l.054 3.07c.743-.27 1.455-.474 2.14-.61a9.6 9.6 0 0 1 1.91-.21c.625 0 1.111.082 1.46.246.35.16.526.384.526.672 0 .189-.099.377-.295.566-.19.189-.492.39-.907.604l-.699.355c-.771.402-1.277.735-1.517.998a1.28 1.28 0 0 0-.36.895v.3h3.942v-.277c0-.185.075-.352.228-.504.153-.156.476-.362.97-.617l.7-.35c.684-.365 1.17-.707 1.453-1.023.284-.32.426-.682.426-1.084 0-.498-.214-1.475-.607-2.228a6.232 6.232 0 0 1 1.18 3.634 6.232 6.232 0 0 1-6.231 6.23 6.232 6.232 0 0 1-6.233-6.23 6.232 6.232 0 0 1 1.86-4.437zM81.946 200c-.515 0-.928.362-.928.812v.84c0 .45.413.813.928.813h1.783c.515 0 .93-.363.93-.813v-.84c0-.45-.415-.812-.93-.812z" fill="#ff9000" fill-rule="evenodd"/><path d="M388.793 187.434a9.588 9.588 0 0 0-9.588 9.588 9.588 9.588 0 0 0 2.281 6.207 3.118 8.21 41.23 0 0-5.639 4.307 3.118 8.21 41.23 0 0-2.97 8.178 3.118 8.21 41.23 0 0 7.793-4.22 3.118 8.21 41.23 0 0 3.414-6.132 9.588 9.588 0 0 0 4.709 1.248 9.588 9.588 0 0 0 9.588-9.588 9.588 9.588 0 0 0-9.588-9.588zm0 3.356a6.232 6.232 0 0 1 4.26 1.695c-.02-.01-.037-.028-.057-.037-.932-.41-2.285-.617-4.06-.617-.677 0-1.38.04-2.108.123a30.05 30.05 0 0 0-2.07.328 6.232 6.232 0 0 1 4.035-1.492zm-4.373 1.795l.054 3.07c.743-.27 1.455-.474 2.14-.61a9.6 9.6 0 0 1 1.91-.21c.625 0 1.111.082 1.46.246.35.16.526.384.526.672 0 .189-.099.377-.295.566-.19.189-.492.39-.907.604l-.699.355c-.771.402-1.277.735-1.517.998a1.28 1.28 0 0 0-.36.895v.3h3.942v-.277c0-.185.075-.352.228-.504.153-.156.476-.362.97-.617l.7-.35c.684-.365 1.17-.707 1.453-1.023.284-.32.426-.682.426-1.084 0-.498-.214-1.475-.607-2.228a6.232 6.232 0 0 1 1.18 3.634 6.232 6.232 0 0 1-6.231 6.23 6.232 6.232 0 0 1-6.233-6.23 6.232 6.232 0 0 1 1.86-4.437zm3.406 7.416c-.515 0-.928.362-.928.812v.84c0 .45.413.813.928.813h1.783c.515 0 .93-.363.93-.813v-.84c0-.45-.415-.812-.93-.812z" fill-rule="evenodd" fill="#e0e0e0"/><path d="M26.659 345.038L16.516 355.18l9.885 10.227h17.213V345.04zm11.982 4.51c.338.001.677.135.935.4l1.034 1.061a1.371 1.371 0 0 1-.006 1.914l-2.313 2.348 2.41 2.375c.529.52.526 1.356-.006 1.873l-1.06 1.033a1.371 1.371 0 0 1-1.914-.006l-2.348-2.312-2.375 2.41a1.302 1.302 0 0 1-1.873-.006l-1.033-1.063a1.369 1.369 0 0 1 .006-1.912l2.312-2.347L30 352.94a1.302 1.302 0 0 1 .006-1.873l1.063-1.033a1.369 1.369 0 0 1 1.912.006l2.347 2.312 2.375-2.41c.26-.264.6-.396.938-.395zm34.641-4.51L63.139 355.18l9.885 10.227h17.213V345.04zm11.982 4.51c.338.001.677.135.935.4l1.034 1.061a1.371 1.371 0 0 1-.006 1.914l-2.313 2.348 2.41 2.375c.529.52.526 1.356-.006 1.873l-1.06 1.033a1.371 1.371 0 0 1-1.914-.006l-2.348-2.312-2.375 2.41a1.302 1.302 0 0 1-1.873-.006l-1.033-1.063a1.369 1.369 0 0 1 .006-1.912l2.312-2.347-2.41-2.375a1.302 1.302 0 0 1 .006-1.873l1.063-1.033a1.369 1.369 0 0 1 1.912.006l2.347 2.312 2.375-2.41c.26-.264.6-.396.938-.395zm-14.201 3.625c1.198 0 2.17.917 2.17 2.05 0 1.13-.972 2.048-2.17 2.048-1.199 0-2.169-.917-2.168-2.049 0-1.132.97-2.049 2.168-2.049z" fill="#ff9100"/><path d="M380.77 345.038l-10.142 10.141 9.885 10.227h17.213V345.04zm11.983 4.51c.338.001.677.135.935.4l1.034 1.061a1.371 1.371 0 0 1-.006 1.914l-2.313 2.348 2.41 2.375c.528.52.526 1.356-.006 1.873l-1.06 1.033a1.371 1.371 0 0 1-1.914-.006l-2.348-2.312-2.375 2.41a1.302 1.302 0 0 1-1.873-.006l-1.033-1.063a1.369 1.369 0 0 1 .006-1.912l2.312-2.347-2.41-2.375a1.302 1.302 0 0 1 .006-1.873l1.062-1.033a1.369 1.369 0 0 1 1.913.006l2.347 2.312 2.375-2.41c.26-.264.599-.396.938-.395zm-14.201 3.625c1.198 0 2.17.917 2.17 2.05 0 1.13-.972 2.048-2.17 2.048-1.199 0-2.169-.917-2.168-2.049 0-1.132.97-2.049 2.168-2.049zm-42.562-8.135l-10.142 10.141 9.885 10.227h17.213V345.04zm11.983 4.51c.338.001.677.135.935.4l1.034 1.061a1.371 1.371 0 0 1-.006 1.914l-2.313 2.348 2.41 2.375c.528.52.526 1.356-.006 1.873l-1.06 1.033a1.371 1.371 0 0 1-1.914-.006l-2.348-2.312-2.375 2.41a1.302 1.302 0 0 1-1.873-.006l-1.033-1.063a1.369 1.369 0 0 1 .006-1.912l2.312-2.347-2.41-2.375a1.302 1.302 0 0 1 .006-1.873l1.063-1.033a1.369 1.369 0 0 1 1.912.006l2.347 2.312 2.375-2.41c.26-.264.6-.396.938-.395z" fill="#e0e0e0"/><path d="M32.319 377.848a9.588 9.588 0 0 1 9.588 9.588 9.588 9.588 0 0 1-2.282 6.207 8.21 3.118 48.77 0 1 5.64 4.307 8.21 3.118 48.77 0 1 2.97 8.178 8.21 3.118 48.77 0 1-7.793-4.22 8.21 3.118 48.77 0 1-3.414-6.132 9.588 9.588 0 0 1-4.71 1.248 9.588 9.588 0 0 1-9.587-9.588 9.588 9.588 0 0 1 9.588-9.588zm0 3.356a6.232 6.232 0 0 0-6.23 6.232 6.232 6.232 0 0 0 6.23 6.23 6.232 6.232 0 0 0 6.232-6.23 6.232 6.232 0 0 0-6.232-6.232z" fill="#ff9000" fill-rule="evenodd"/><path d="M342.55 377.848a9.588 9.588 0 0 1 9.589 9.588 9.588 9.588 0 0 1-2.282 6.207 8.21 3.118 48.77 0 1 5.64 4.307 8.21 3.118 48.77 0 1 2.97 8.178 8.21 3.118 48.77 0 1-7.793-4.22 8.21 3.118 48.77 0 1-3.414-6.132 9.588 9.588 0 0 1-4.71 1.248 9.588 9.588 0 0 1-9.587-9.588 9.588 9.588 0 0 1 9.588-9.588zm0 3.356a6.232 6.232 0 0 0-6.23 6.232 6.232 6.232 0 0 0 6.23 6.23 6.232 6.232 0 0 0 6.233-6.23 6.232 6.232 0 0 0-6.232-6.232z" fill="#e0e0e0" fill-rule="evenodd"/><text y="27.23" x="50.784" style="line-height:1.25" letter-spacing="0" font-size="40" word-spacing="0" font-family="sans-serif"><tspan y="27.23" x="50.784" font-size="14.667" fill="#fff">= kbd</tspan></text><text y="57.834" x="93.546" style="line-height:1.25" letter-spacing="0" font-size="40" word-spacing="0" font-family="sans-serif"><tspan y="57.834" x="93.546" font-size="14.667" fill="#fff">= driver</tspan></text><text y="95.605" x="145.558" style="line-height:1.25" letter-spacing="0" font-size="40" word-spacing="0" font-family="sans-serif"><tspan y="95.605" x="145.558" font-size="14.667" fill="#fff">= memtest</tspan></text><text y="95.412" x="49.598" style="line-height:1.25" letter-spacing="0" font-size="40" word-spacing="0" font-family="sans-serif"><tspan y="95.412" x="49.598" font-size="14.667" fill="#fff">||</tspan></text><text y="133.588" x="50.9" style="line-height:1.25" letter-spacing="0" font-size="40" word-spacing="0" font-family="sans-serif"><tspan y="133.588" x="50.9" font-size="14.667" fill="#fff">= lang</tspan></text><text y="170.766" x="51.738" style="line-height:1.25" letter-spacing="0" font-size="40" word-spacing="0" font-family="sans-serif"><tspan y="170.766" x="51.738" font-size="14.667" fill="#fff">anjaro</tspan></text><text y="205.688" x="49.598" style="line-height:1.25" letter-spacing="0" font-size="40" word-spacing="0" font-family="sans-serif"><tspan y="205.688" x="49.598" font-size="14.667" fill="#fff">||</tspan></text><text y="206.283" x="149.477" style="line-height:1.25" letter-spacing="0" font-size="40" word-spacing="0" font-family="sans-serif"><tspan y="206.283" x="149.477" font-size="14.667" fill="#fff">= findnone</tspan></text><text y="243.04" x="49.598" style="line-height:1.25" letter-spacing="0" font-size="40" word-spacing="0" font-family="sans-serif"><tspan y="243.04" x="49.598" font-size="14.667" fill="#fff">||</tspan></text><text y="95.412" x="95.547" style="line-height:1.25" letter-spacing="0" font-size="40" word-spacing="0" font-family="sans-serif"><tspan y="95.412" x="95.547" font-size="14.667" fill="#fff">||</tspan></text><text y="56.578" x="49.598" style="line-height:1.25" letter-spacing="0" font-size="40" word-spacing="0" font-family="sans-serif"><tspan y="56.578" x="49.598" font-size="14.667" fill="#fff">||</tspan></text><text y="242.745" x="95.25" style="line-height:1.25" letter-spacing="0" font-size="40" word-spacing="0" font-family="sans-serif"><tspan y="242.745" x="95.25" font-size="14.667" fill="#fff">= efi</tspan></text><text y="288.871" x="48.716" style="line-height:1.25" letter-spacing="0" font-size="40" word-spacing="0" font-family="sans-serif"><tspan y="288.871" x="48.716" font-size="14.667" fill="#fff">= cancel</tspan></text><text y="325.3" x="49.598" style="line-height:1.25" letter-spacing="0" font-size="40" word-spacing="0" font-family="sans-serif"><tspan y="325.3" x="49.598" font-size="14.667" fill="#fff">||</tspan></text><text y="359.983" x="49.598" style="line-height:1.25" letter-spacing="0" font-size="40" word-spacing="0" font-family="sans-serif"><tspan y="359.983" x="49.598" font-size="14.667" fill="#fff">||</tspan></text><text y="361.203" x="92.885" style="line-height:1.25" letter-spacing="0" font-size="40" word-spacing="0" font-family="sans-serif"><tspan y="361.203" x="92.885" font-size="14.667" fill="#fff">= unset</tspan></text><text y="325.3" x="94.875" style="line-height:1.25" letter-spacing="0" font-size="40" word-spacing="0" font-family="sans-serif"><tspan y="325.3" x="94.875" font-size="14.667" fill="#fff">||</tspan></text><text y="326.342" x="140.606" style="line-height:1.25" letter-spacing="0" font-size="40" word-spacing="0" font-family="sans-serif"><tspan y="326.342" x="140.606" font-size="14.667" fill="#fff">= help</tspan></text><text y="395.294" x="52.832" style="line-height:1.25" letter-spacing="0" font-size="40" word-spacing="0" font-family="sans-serif"><tspan y="395.294" x="52.832" font-size="14.667" fill="#fff">= find</tspan></text><text y="523.378" x="53.252" style="line-height:1.25" letter-spacing="0" font-size="40" word-spacing="0" font-family="sans-serif"><tspan y="523.378" x="53.252" font-size="14.667" fill="#fff">= home</tspan></text><text y="27.23" x="359.084" style="line-height:1.25" letter-spacing="0" font-size="40" word-spacing="0" font-family="sans-serif"><tspan y="27.23" x="359.084" font-size="14.667" fill="#fff">= kbd</tspan></text><text y="57.834" x="401.846" style="line-height:1.25" letter-spacing="0" font-size="40" word-spacing="0" font-family="sans-serif"><tspan y="57.834" x="401.846" font-size="14.667" fill="#fff">= driver</tspan></text><text y="95.605" x="453.859" style="line-height:1.25" letter-spacing="0" font-size="40" word-spacing="0" font-family="sans-serif"><tspan y="95.605" x="453.859" font-size="14.667" fill="#fff">= memtest</tspan></text><text y="95.412" x="357.899" style="line-height:1.25" letter-spacing="0" font-size="40" word-spacing="0" font-family="sans-serif"><tspan y="95.412" x="357.899" font-size="14.667" fill="#fff">||</tspan></text><text y="133.588" x="359.2" style="line-height:1.25" letter-spacing="0" font-size="40" word-spacing="0" font-family="sans-serif"><tspan y="133.588" x="359.2" font-size="14.667" fill="#fff">= lang</tspan></text><text y="170.766" x="360.038" style="line-height:1.25" letter-spacing="0" font-size="40" word-spacing="0" font-family="sans-serif"><tspan y="170.766" x="360.038" font-size="14.667" fill="#fff">anjaro</tspan></text><text y="205.688" x="357.899" style="line-height:1.25" letter-spacing="0" font-size="40" word-spacing="0" font-family="sans-serif"><tspan y="205.688" x="357.899" font-size="14.667" fill="#fff">||</tspan></text><text y="206.283" x="457.581" style="line-height:1.25" letter-spacing="0" font-size="40" word-spacing="0" font-family="sans-serif"><tspan y="206.283" x="457.581" font-size="14.667" fill="#fff">= findnone</tspan></text><text y="243.04" x="357.899" style="line-height:1.25" letter-spacing="0" font-size="40" word-spacing="0" font-family="sans-serif"><tspan y="243.04" x="357.899" font-size="14.667" fill="#fff">||</tspan></text><text y="95.412" x="403.847" style="line-height:1.25" letter-spacing="0" font-size="40" word-spacing="0" font-family="sans-serif"><tspan y="95.412" x="403.847" font-size="14.667" fill="#fff">||</tspan></text><text y="56.578" x="357.899" style="line-height:1.25" letter-spacing="0" font-size="40" word-spacing="0" font-family="sans-serif"><tspan y="56.578" x="357.899" font-size="14.667" fill="#fff">||</tspan></text><text y="242.745" x="403.551" style="line-height:1.25" letter-spacing="0" font-size="40" word-spacing="0" font-family="sans-serif"><tspan y="242.745" x="403.551" font-size="14.667" fill="#fff">= efi</tspan></text><text y="288.871" x="357.016" style="line-height:1.25" letter-spacing="0" font-size="40" word-spacing="0" font-family="sans-serif"><tspan y="288.871" x="357.016" font-size="14.667" fill="#fff">= cancel</tspan></text><text y="325.3" x="357.899" style="line-height:1.25" letter-spacing="0" font-size="40" word-spacing="0" font-family="sans-serif"><tspan y="325.3" x="357.899" font-size="14.667" fill="#fff">||</tspan></text><text y="359.983" x="357.899" style="line-height:1.25" letter-spacing="0" font-size="40" word-spacing="0" font-family="sans-serif"><tspan y="359.983" x="357.899" font-size="14.667" fill="#fff">||</tspan></text><text y="361.203" x="401.186" style="line-height:1.25" letter-spacing="0" font-size="40" word-spacing="0" font-family="sans-serif"><tspan y="361.203" x="401.186" font-size="14.667" fill="#fff">= unset</tspan></text><text y="325.3" x="403.176" style="line-height:1.25" letter-spacing="0" font-size="40" word-spacing="0" font-family="sans-serif"><tspan y="325.3" x="403.176" font-size="14.667" fill="#fff">||</tspan></text><text y="326.342" x="448.906" style="line-height:1.25" letter-spacing="0" font-size="40" word-spacing="0" font-family="sans-serif"><tspan y="326.342" x="448.906" font-size="14.667" fill="#fff">= help</tspan></text><text y="395.294" x="361.133" style="line-height:1.25" letter-spacing="0" font-size="40" word-spacing="0" font-family="sans-serif"><tspan y="395.294" x="361.133" font-size="14.667" fill="#fff">= find</tspan></text><text y="523.378" x="361.552" style="line-height:1.25" letter-spacing="0" font-size="40" word-spacing="0" font-family="sans-serif"><tspan y="523.378" x="361.552" font-size="14.667" fill="#fff">= home</tspan></text><text y="434.687" x="50.856" style="line-height:1.25" letter-spacing="0" font-size="40" word-spacing="0" font-family="sans-serif"><tspan y="434.687" x="50.856" font-size="14.667" fill="#fff">||</tspan></text><text y="435.827" x="136.075" style="line-height:1.25" letter-spacing="0" font-size="40" word-spacing="0" font-family="sans-serif"><tspan y="435.827" x="136.075" font-size="14.667" fill="#fff">= edit/type</tspan></text><text y="434.687" x="93.275" style="line-height:1.25" letter-spacing="0" font-size="40" word-spacing="0" font-family="sans-serif"><tspan y="434.687" x="93.275" font-size="14.667" fill="#fff">||</tspan></text><text y="434.687" x="358.632" style="line-height:1.25" letter-spacing="0" font-size="40" word-spacing="0" font-family="sans-serif"><tspan y="434.687" x="358.632" font-size="14.667" fill="#fff">||</tspan></text><text y="435.827" x="443.851" style="line-height:1.25" letter-spacing="0" font-size="40" word-spacing="0" font-family="sans-serif"><tspan y="435.827" x="443.851" font-size="14.667" fill="#fff">= edit/type</tspan></text><text y="434.687" x="401.051" style="line-height:1.25" letter-spacing="0" font-size="40" word-spacing="0" font-family="sans-serif"><tspan y="434.687" x="401.051" font-size="14.667" fill="#fff">||</tspan></text><text y="559.528" x="50.694" style="line-height:1.25" letter-spacing="0" font-size="40" word-spacing="0" font-family="sans-serif"><tspan y="559.528" x="50.694" font-size="14.667" fill="#fff">||</tspan></text><text y="478.73" x="61.636" style="line-height:1.25" letter-spacing="0" font-size="40" word-spacing="0" font-family="sans-serif"><tspan y="478.73" x="61.636" font-size="14.667" fill="#fff">= time</tspan></text><text y="478.73" x="371.869" style="line-height:1.25" letter-spacing="0" font-size="40" word-spacing="0" font-family="sans-serif"><tspan y="478.73" x="371.869" font-size="14.667" fill="#fff">= time</tspan></text><text y="560.043" x="95.462" style="line-height:1.25" letter-spacing="0" font-size="40" word-spacing="0" font-family="sans-serif"><tspan y="560.043" x="95.462" font-size="14.667" fill="#fff">= avatars</tspan></text><text y="559.528" x="360.059" style="line-height:1.25" letter-spacing="0" font-size="40" word-spacing="0" font-family="sans-serif"><tspan y="559.528" x="360.059" font-size="14.667" fill="#fff">||</tspan></text><text y="560.043" x="404.827" style="line-height:1.25" letter-spacing="0" font-size="40" word-spacing="0" font-family="sans-serif"><tspan y="560.043" x="404.827" font-size="14.667" fill="#fff">= avatars</tspan></text><text y="595.167" x="54.068" style="line-height:1.25" letter-spacing="0" font-size="40" word-spacing="0" font-family="sans-serif"><tspan y="595.167" x="54.068" font-size="14.667" fill="#fff">= computer</tspan></text><text y="595.167" x="360.819" style="line-height:1.25" letter-spacing="0" font-size="40" word-spacing="0" font-family="sans-serif"><tspan y="595.167" x="360.819" font-size="14.667" fill="#fff">= computer</tspan></text><text y="872.461" x="79.887" style="line-height:1.25" letter-spacing="0" font-size="40" word-spacing="0" font-family="sans-serif"><tspan y="872.461" x="79.887" font-size="14.667" fill="#fff">= cheers</tspan></text><g letter-spacing="0" word-spacing="0" font-family="sans-serif"><g font-size="40"><text y="755.562" x="23.452" style="line-height:1.25" fill="#ff9000" transform="translate(13.363 206.024)"><tspan y="755.562" x="23.452" font-size="21.333">rgba(255, 144, 0, 1)</tspan></text><text y="782.393" x="23.452" style="line-height:1.25" fill="#ff9000" transform="translate(13.363 206.024)"><tspan y="782.393" x="23.452" font-size="21.333">#FF9000</tspan></text><g fill="#e0e0e0"><text y="755.562" x="291.987" style="line-height:1.25" transform="translate(-16.215 206.024)"><tspan y="755.562" x="291.987" font-size="21.333">rgba(224, 224, 224, 1)</tspan></text><text y="782.393" x="291.987" style="line-height:1.25" transform="translate(-16.215 206.024)"><tspan y="782.393" x="291.987" font-size="21.333">#E0E0E0</tspan></text></g></g><text y="930.222" x="202.2" style="line-height:1.25" font-size="21.333" fill="#13cb4a" transform="translate(0 -3.486)"><tspan y="930.222" x="202.2" font-weight="700">33px X 33px</tspan></text></g><text y="872.461" x="385.766" style="line-height:1.25" letter-spacing="0" font-size="40" word-spacing="0" font-family="sans-serif"><tspan y="872.461" x="385.766" font-size="14.667" fill="#fff">= cheers</tspan></text><text y="637.951" x="83.646" style="line-height:1.25" letter-spacing="0" font-size="40" word-spacing="0" font-family="sans-serif"><tspan y="637.951" x="83.646" font-size="14.667" fill="#fff">= next/prev</tspan></text><text y="637.951" x="385.168" style="line-height:1.25" letter-spacing="0" font-size="40" word-spacing="0" font-family="sans-serif"><tspan y="637.951" x="385.168" font-size="14.667" fill="#fff">= next/prev</tspan></text><path d="M33.983 658.9a14.19 14.19 0 0 0-14.19 14.19 14.19 14.19 0 0 0 14.19 14.19 14.19 14.19 0 0 0 14.189-14.19 14.19 14.19 0 0 0-14.189-14.19zm0 10.494a3.932 3.696 0 0 1 3.932 3.696 3.932 3.696 0 0 1-3.932 3.695 3.932 3.696 0 0 1-3.932-3.695 3.932 3.696 0 0 1 3.932-3.695zm-12.617.985l7.742 1.9v1.624l-7.742 1.899zm25.234 0v5.422l-7.742-1.899v-1.625zm-12.617.678a2.034 2.034 0 0 0-2.033 2.033 2.034 2.034 0 0 0 2.033 2.033 2.034 2.034 0 0 0 2.033-2.033 2.034 2.034 0 0 0-2.033-2.033z" fill="#ff9000" fill-rule="evenodd"/><path d="M33.544 459.161c-8.069 0-14.609 6.355-14.61 14.197-.001 7.843 6.54 14.202 14.61 14.201 8.07 0 14.611-6.359 14.61-14.2-.001-7.842-6.542-14.198-14.61-14.198zm-.774 1.031h1.548c.777 0 1.403 1.172 1.414 2.634a2.363 2.363 0 0 1 .169.726c3.808.863 6.808 3.756 7.72 7.45a2.363 2.363 0 0 1 .092-.007 2.363 2.363 0 0 1 .714.113h.083c1.541 0 2.782.631 2.782 1.416v1.55c0 .74-1.11 1.34-2.532 1.404a2.363 2.363 0 0 1-1.047.245 2.363 2.363 0 0 1-.094-.004c-1.095 4.427-5.184 7.722-10.075 7.722-5.73.001-10.375-4.514-10.375-10.083 0-4.78 3.426-8.774 8.019-9.812a2.363 2.363 0 0 1 .169-.718c.01-1.463.636-2.636 1.414-2.636zm.772 2.59a2.363 1.65 0 0 0-2.307 1.307v7.037a3.213 3.213 0 0 0-.904 2.234 3.213 3.213 0 0 0 3.213 3.213 3.213 3.213 0 0 0 2.313-.985h7.383c.118 0 .23-.012.343-.022a1.65 2.363 0 0 0 1.065-2.208 1.65 2.363 0 0 0-1.35-2.321 2.363 2.363 0 0 1 .223-.03c-.093-.008-.185-.018-.28-.018h-7.408v-6.916c0-.019-.004-.036-.004-.054a2.363 1.65 0 0 0-2.287-1.238zm.002 8.548a2.03 2.03 0 0 1 2.03 2.03 2.03 2.03 0 0 1-2.03 2.03 2.03 2.03 0 0 1-2.03-2.03 2.03 2.03 0 0 1 2.03-2.03zm0 .985a1.044 1.044 0 0 0-1.045 1.045 1.044 1.044 0 0 0 1.045 1.045 1.044 1.044 0 0 0 1.045-1.045 1.044 1.044 0 0 0-1.045-1.045z" fill="#ff9000"/><path d="M341.17 459.161c-8.069 0-14.609 6.355-14.61 14.197-.001 7.843 6.54 14.202 14.61 14.201 8.07 0 14.611-6.359 14.61-14.2-.001-7.842-6.542-14.198-14.61-14.198zm-.774 1.031h1.548c.777 0 1.403 1.172 1.414 2.634a2.363 2.363 0 0 1 .169.726c3.808.863 6.808 3.756 7.72 7.45a2.363 2.363 0 0 1 .092-.007 2.363 2.363 0 0 1 .714.113h.083c1.541 0 2.782.631 2.782 1.416v1.55c0 .74-1.11 1.34-2.532 1.404a2.363 2.363 0 0 1-1.047.245 2.363 2.363 0 0 1-.094-.004c-1.095 4.427-5.184 7.722-10.075 7.722-5.73.001-10.375-4.514-10.375-10.083 0-4.78 3.426-8.774 8.019-9.812a2.363 2.363 0 0 1 .169-.718c.01-1.463.636-2.636 1.414-2.636zm.772 2.59a2.363 1.65 0 0 0-2.307 1.307v7.037a3.213 3.213 0 0 0-.904 2.234 3.213 3.213 0 0 0 3.213 3.213 3.213 3.213 0 0 0 2.313-.985h7.383c.118 0 .23-.012.343-.022a1.65 2.363 0 0 0 1.065-2.208 1.65 2.363 0 0 0-1.35-2.321 2.363 2.363 0 0 1 .223-.03c-.093-.008-.185-.018-.28-.018h-7.408v-6.916c0-.019-.004-.036-.004-.054a2.363 1.65 0 0 0-2.287-1.238zm.002 8.548a2.03 2.03 0 0 1 2.03 2.03 2.03 2.03 0 0 1-2.03 2.03 2.03 2.03 0 0 1-2.03-2.03 2.03 2.03 0 0 1 2.03-2.03zm0 .985a1.044 1.044 0 0 0-1.045 1.045 1.044 1.044 0 0 0 1.045 1.045 1.044 1.044 0 0 0 1.045-1.045 1.044 1.044 0 0 0-1.045-1.045z" fill="#e0e0e0"/><text y="677.494" x="55.331" style="line-height:1.25" letter-spacing="0" font-size="40" word-spacing="0" font-family="sans-serif"><tspan y="677.494" x="55.331" font-size="14.667" fill="#fff">= cd</tspan></text><path d="M340.14 658.9a14.19 14.19 0 0 0-14.19 14.19 14.19 14.19 0 0 0 14.19 14.19 14.19 14.19 0 0 0 14.189-14.19 14.19 14.19 0 0 0-14.189-14.19zm0 10.494a3.932 3.696 0 0 1 3.932 3.696 3.932 3.696 0 0 1-3.932 3.695 3.932 3.696 0 0 1-3.932-3.695 3.932 3.696 0 0 1 3.932-3.695zm-12.617.985l7.742 1.9v1.624l-7.742 1.899zm25.234 0v5.422l-7.742-1.899v-1.625zm-12.617.678a2.034 2.034 0 0 0-2.033 2.033 2.034 2.034 0 0 0 2.033 2.033 2.034 2.034 0 0 0 2.033-2.033 2.034 2.034 0 0 0-2.033-2.033z" fill-rule="evenodd" fill="#fff"/><text y="679.237" x="365.253" style="line-height:1.25" letter-spacing="0" font-size="40" word-spacing="0" font-family="sans-serif"><tspan y="679.237" x="365.253" font-size="14.667" fill="#fff">= cd</tspan></text><text y="719.324" x="54.896" style="line-height:1.25" letter-spacing="0" font-size="40" word-spacing="0" font-family="sans-serif"><tspan y="719.324" x="54.896" font-size="14.667" fill="#fff">= web</tspan></text><text y="718.571" x="364.382" style="line-height:1.25" letter-spacing="0" font-size="40" word-spacing="0" font-family="sans-serif"><tspan y="718.571" x="364.382" font-size="14.667" fill="#fff">= web</tspan></text><text y="760.718" x="54.896" style="line-height:1.25" letter-spacing="0" font-size="40" word-spacing="0" font-family="sans-serif"><tspan y="760.718" x="54.896" font-size="14.667" fill="#fff">= camera</tspan></text><text y="760.718" x="363.389" style="line-height:1.25" letter-spacing="0" font-size="40" word-spacing="0" font-family="sans-serif"><tspan y="760.718" x="363.389" font-size="14.667" fill="#fff">= camera</tspan></text><text y="798.306" x="54.896" style="line-height:1.25" letter-spacing="0" font-size="40" word-spacing="0" font-family="sans-serif"><tspan y="798.306" x="54.896" font-size="14.667" fill="#fff">= hd-db-server</tspan></text><text y="798.306" x="362.518" style="line-height:1.25" letter-spacing="0" font-size="40" word-spacing="0" font-family="sans-serif"><tspan y="798.306" x="362.518" font-size="14.667" fill="#fff">= hd-db-server</tspan></text><text y="205.688" x="100.127" style="line-height:1.25" letter-spacing="0" font-size="40" word-spacing="0" font-family="sans-serif"><tspan y="205.688" x="100.127" font-size="14.667" fill="#fff">||</tspan></text><text y="205.688" x="406.007" style="line-height:1.25" letter-spacing="0" font-size="40" word-spacing="0" font-family="sans-serif"><tspan y="205.688" x="406.007" font-size="14.667" fill="#fff">||</tspan></text></svg>