<svg xmlns="http://www.w3.org/2000/svg" height="33" width="33" viewBox="0 0 8.7312498 8.7312502"><path d="M3.909 1.243c-.473 0-.96.076-1.34.372-.843.639-1.227 1.714-1.294 2.74a87.024 87.024 0 0 0 0 3.133h6.181c.02-1.045.019-2.09 0-3.134-.066-1.025-.45-2.1-1.294-2.739-.38-.297-.867-.372-1.34-.372H3.91zm-2.02 2.044h.848c.284 0 .492.048.624.143.133.096.2.246.2.452a.56.56 0 0 1-.105.351.594.594 0 0 1-.31.203.407.407 0 0 1 .204.118c.06.06.122.153.183.278l.302.612h-.592l-.263-.536a.592.592 0 0 0-.162-.221.358.358 0 0 0-.216-.06h-.158v.817h-.556V3.287zm2.275 0h.557v2.157h-.557V3.287zm1.104 0h.923c.275 0 .485.061.632.183.147.122.22.296.22.52 0 .227-.073.401-.22.524-.147.121-.357.182-.632.182h-.367v.748h-.556V3.287zm-2.824.403v.554h.234c.117 0 .2-.022.25-.065.05-.044.076-.115.076-.215 0-.098-.025-.168-.076-.21-.05-.043-.133-.064-.25-.064h-.234zm3.38 0v.603h.308a.366.366 0 0 0 .25-.078c.059-.053.088-.128.088-.224s-.03-.17-.088-.223a.366.366 0 0 0-.25-.078h-.308z" fill="#ff9000" fill-rule="evenodd"/></svg>