<svg xmlns="http://www.w3.org/2000/svg" height="33" width="33" version="1.1" viewBox="0 0 8.7312498 8.7312502">
	<g transform="translate(0 -288.27)">
		<g transform="matrix(.26458 0 0 .26458 .13229 288.4)"></g>
		<path style="fill:#ff9000;fill-rule:evenodd" d="m14.773 4.6973c-1.787 0-3.627 0.2864-5.0621 1.4082-3.1885 2.4119-4.6401 6.4765-4.8906 10.352-0.0711 3.947-0.073 7.896-0.0019 11.845h11.682 11.682c0.071-3.949 0.069-7.898-0.002-11.846-0.251-3.875-1.702-7.9396-4.891-10.352-1.435-1.1213-3.275-1.4077-5.062-1.4077h-1.727-1.727zm-7.6363 7.7267h3.2093c1.073 0 1.86 0.18 2.359 0.541 0.502 0.36 0.754 0.93 0.754 1.709 0 0.539-0.132 0.98-0.395 1.326-0.258 0.346-0.649 0.602-1.173 0.766 0.287 0.065 0.545 0.214 0.771 0.447 0.229 0.229 0.461 0.579 0.693 1.049l1.141 2.314h-2.238l-0.994-2.025c-0.201-0.408-0.404-0.687-0.612-0.836-0.203-0.149-0.476-0.225-0.818-0.225h-0.5957v3.086h-2.1016v-8.152zm8.6033 0h2.102v8.152h-2.102v-8.152zm4.172 0h3.488c1.038 0 1.834 0.231 2.387 0.693 0.557 0.459 0.834 1.115 0.834 1.967 0 0.855-0.277 1.514-0.834 1.977-0.553 0.458-1.349 0.687-2.387 0.687h-1.386v2.828h-2.102v-8.152zm-10.674 1.523v2.092h0.8847c0.44 0 0.754-0.082 0.943-0.246 0.193-0.164 0.289-0.434 0.289-0.809 0-0.371-0.096-0.636-0.289-0.796-0.189-0.161-0.503-0.241-0.943-0.241h-0.8847zm12.776 0v2.278h1.162c0.407 0 0.723-0.099 0.945-0.295 0.222-0.2 0.334-0.482 0.334-0.846s-0.112-0.645-0.334-0.842c-0.222-0.196-0.538-0.295-0.945-0.295h-1.162z" transform="matrix(.26458 0 0 .26458 0 288.27)"/>
		<g aria-label="RIP" transform="translate(.10023)"></g>
	</g>
</svg>
