<?xml version="1.0" encoding="UTF-8" standalone="no"?>
<!-- Created with Inkscape (http://www.inkscape.org/) -->

<svg
   xmlns:dc="http://purl.org/dc/elements/1.1/"
   xmlns:cc="http://creativecommons.org/ns#"
   xmlns:rdf="http://www.w3.org/1999/02/22-rdf-syntax-ns#"
   xmlns:svg="http://www.w3.org/2000/svg"
   xmlns="http://www.w3.org/2000/svg"
   xmlns:sodipodi="http://sodipodi.sourceforge.net/DTD/sodipodi-0.dtd"
   xmlns:inkscape="http://www.inkscape.org/namespaces/inkscape"
   version="1.1"
   id="svg2"
   width="32"
   height="32"
   viewBox="0 0 32 32"
   sodipodi:docname="smiley.svg"
   inkscape:export-filename="/home/beerto/Pictures/Ink/Linux/Manjaro/pngs/help3.png"
   inkscape:export-xdpi="96"
   inkscape:export-ydpi="96"
   inkscape:version="0.92.1 unknown">
  <metadata
     id="metadata8">
    <rdf:RDF>
      <cc:Work
         rdf:about="">
        <dc:format>image/svg+xml</dc:format>
        <dc:type
           rdf:resource="http://purl.org/dc/dcmitype/StillImage" />
        <dc:title></dc:title>
      </cc:Work>
    </rdf:RDF>
  </metadata>
  <defs
     id="defs6" />
  <sodipodi:namedview
     pagecolor="#ffffff"
     bordercolor="#666666"
     borderopacity="1"
     objecttolerance="10"
     gridtolerance="10"
     guidetolerance="10"
     inkscape:pageopacity="0"
     inkscape:pageshadow="2"
     inkscape:window-width="640"
     inkscape:window-height="480"
     id="namedview4"
     showgrid="false"
     showguides="true"
     inkscape:zoom="3.6875001"
     inkscape:cx="29.47574"
     inkscape:cy="-0.33498372"
     inkscape:current-layer="svg2"
     inkscape:snap-global="false" />
  <g
     aria-label="?"
     transform="matrix(1.3912553,0,0,0.94289113,-2.5613723,-1.657245)"
     style="font-style:normal;font-variant:normal;font-weight:bold;font-stretch:normal;font-size:32.65782547px;line-height:1.25;font-family:sans-serif;-inkscape-font-specification:'sans-serif Bold';letter-spacing:0px;word-spacing:0px;fill:#000000;fill-opacity:1;stroke:none;stroke-width:0.81644559"
     id="text4493" />
  <g
     inkscape:groupmode="layer"
     id="layer2"
     inkscape:label="icon" />
  <path
     style="opacity:1;vector-effect:none;fill:#ff9000;fill-opacity:1;fill-rule:evenodd;stroke:none;stroke-width:0.9066667;stroke-linecap:butt;stroke-linejoin:miter;stroke-miterlimit:4;stroke-dasharray:none;stroke-dashoffset:0;stroke-opacity:1"
     d="M 16,2.9609377 A 13.039529,13.039529 0 0 0 2.9609377,16 13.039529,13.039529 0 0 0 16,29.039062 13.039529,13.039529 0 0 0 29.039062,16 13.039529,13.039529 0 0 0 16,2.9609377 Z m -3.152344,6.3164064 a 1.7258199,3.5954583 0 0 1 1.726563,3.5957029 1.7258199,3.5954583 0 0 1 -1.726563,3.59375 1.7258199,3.5954583 0 0 1 -1.726562,-3.59375 1.7258199,3.5954583 0 0 1 1.726562,-3.5957029 z m 6.232422,0 a 1.7258199,3.5954583 0 0 1 1.726563,3.5957029 1.7258199,3.5954583 0 0 1 -1.726563,3.59375 1.7258199,3.5954583 0 0 1 -1.726562,-3.59375 1.7258199,3.5954583 0 0 1 1.726562,-3.5957029 z M 7.2128908,17.457031 h 2.7011719 a 6.9726377,6.9726377 0 0 0 6.0820313,3.578125 6.9726377,6.9726377 0 0 0 6.089844,-3.578125 h 2.701171 a 9.4259731,9.4259731 0 0 1 -8.791015,6.029297 9.4259731,9.4259731 0 0 1 -8.7832032,-6.029297 z"
     id="path4485"
     inkscape:connector-curvature="0" />
</svg>
