<svg xmlns="http://www.w3.org/2000/svg" viewBox="0 0 33 33" version="1.1">
	<path style="fill:#ff9000;fill-rule:evenodd" d="m16.5 2.3104a14.19 14.19 0 0 0 -14.19 14.19 14.19 14.19 0 0 0 14.19 14.19 14.19 14.19 0 0 0 14.19 -14.19 14.19 14.19 0 0 0 -14.19 -14.19zm-3.431 6.8737a1.8781 3.9127 0 0 1 1.879 3.9129 1.8781 3.9127 0 0 1 -1.879 3.911 1.8781 3.9127 0 0 1 -1.878 -3.911 1.8781 3.9127 0 0 1 1.878 -3.9129zm6.7824 0a1.8781 3.9127 0 0 1 1.88 3.9129 1.8781 3.9127 0 0 1 -1.879 3.911 1.8781 3.9127 0 0 1 -1.879 -3.911 1.8781 3.9127 0 0 1 1.879 -3.9129zm-12.914 8.9019h2.9395a7.5879 7.5879 0 0 0 6.6187 3.8939 7.5879 7.5879 0 0 0 6.6272 -3.8939h2.939a10.258 10.258 0 0 1 -9.566 6.561 10.258 10.258 0 0 1 -9.5585 -6.561z"/>
</svg>
