<svg xmlns="http://www.w3.org/2000/svg" viewBox="0 0 33 33"><path d="M16.5 2.31A14.19 14.19 0 0 0 2.31 16.5 14.19 14.19 0 0 0 16.5 30.69 14.19 14.19 0 0 0 30.69 16.5 14.19 14.19 0 0 0 16.5 2.31zm-3.431 6.874a1.878 3.913 0 0 1 1.879 3.913 1.878 3.913 0 0 1-1.879 3.911 1.878 3.913 0 0 1-1.878-3.911 1.878 3.913 0 0 1 1.878-3.913zm6.782 0a1.878 3.913 0 0 1 1.88 3.913 1.878 3.913 0 0 1-1.879 3.911 1.878 3.913 0 0 1-1.879-3.911 1.878 3.913 0 0 1 1.88-3.913zM6.937 18.086h2.94a7.588 7.588 0 0 0 6.619 3.894 7.588 7.588 0 0 0 6.627-3.894h2.939a10.258 10.258 0 0 1-9.566 6.561 10.258 10.258 0 0 1-9.559-6.561z" fill="#ff9000" fill-rule="evenodd"/></svg>