<svg xmlns="http://www.w3.org/2000/svg" viewBox="0 0 33 33" version="1.1">
	<path style="fill:#ff9000" d="m16.5 2.3011c-8.0687-0.0008-14.609 6.3553-14.61 14.197-0.0013 7.843 6.5397 14.202 14.61 14.201 8.07 0 14.611-6.359 14.61-14.201-0.001-7.8409-6.542-14.197-14.61-14.197zm-0.77423 1.031h1.5485c0.77696 0 1.4025 1.1719 1.4141 2.6336a2.3631 2.3631 0 0 1 0.16848 0.72609c3.8084 0.86313 6.8084 3.756 7.7202 7.4495a2.3631 2.3631 0 0 1 0.09226 -0.006 2.3631 2.3631 0 0 1 0.71406 0.11232h0.08224c1.5418 0 2.782 0.63183 2.782 1.4161v1.5505c0 0.74049-1.11 1.3389-2.5313 1.404a2.3631 2.3631 0 0 1 -1.047 0.2447 2.3631 2.3631 0 0 1 -0.09426 -0.0041c-1.095 4.4272-5.1836 7.7218-10.075 7.7222-5.73 0.001-10.375-4.514-10.375-10.083-0.0002-4.78 3.4255-8.7745 8.019-9.8123a2.3631 2.3631 0 0 1 0.16849 -0.71807c0.01104-1.4627 0.63675-2.6356 1.4141-2.6356zm0.772 2.5894a2.3631 1.6493 0 0 0 -2.307 1.3078v7.0367a3.213 3.213 0 0 0 -0.904 2.234 3.213 3.213 0 0 0 3.213 3.213 3.213 3.213 0 0 0 2.313 -0.985h7.3833c0.11756 0 0.23037-0.01152 0.34299-0.02206a1.6493 2.3631 0 0 0 1.0651 -2.2084 1.6493 2.3631 0 0 0 -1.3499 -2.3207 2.3631 2.3631 0 0 1 0.22264 -0.03009c-0.09255-0.0081-0.18456-0.01805-0.28081-0.01805h-7.407v-6.9157c0-0.018752-0.0037-0.03556-0.004-0.054158a2.3631 1.6493 0 0 0 -2.287 -1.2376zm0.0019 8.5486a2.0294 2.0294 0 0 1 2.03 2.03 2.0294 2.0294 0 0 1 -2.03 2.03 2.0294 2.0294 0 0 1 -2.03 -2.03 2.0294 2.0294 0 0 1 2.03 -2.03zm0 0.98484a1.0444 1.0444 0 0 0 -1.045 1.045 1.0444 1.0444 0 0 0 1.045 1.045 1.0444 1.0444 0 0 0 1.045 -1.045 1.0444 1.0444 0 0 0 -1.045 -1.045z"/>
</svg>
