<svg xmlns="http://www.w3.org/2000/svg" viewBox="0 0 33 33"><path d="M16.5 2.301c-8.069 0-14.609 6.355-14.61 14.197C1.889 24.341 8.43 30.7 16.5 30.7s14.611-6.359 14.61-14.2C31.109 8.656 24.568 2.3 16.5 2.3zm-.774 1.031h1.548c.777 0 1.403 1.172 1.414 2.634a2.363 2.363 0 0 1 .169.726c3.808.863 6.808 3.756 7.72 7.45a2.363 2.363 0 0 1 .092-.007 2.363 2.363 0 0 1 .714.113h.083c1.541 0 2.782.631 2.782 1.416v1.55c0 .74-1.11 1.34-2.532 1.404a2.363 2.363 0 0 1-1.047.245 2.363 2.363 0 0 1-.094-.004C25.48 23.286 21.391 26.58 16.5 26.58c-5.73.001-10.375-4.514-10.375-10.083 0-4.78 3.426-8.774 8.02-9.812a2.363 2.363 0 0 1 .168-.718c.01-1.463.636-2.636 1.414-2.636zm.772 2.59a2.363 1.65 0 0 0-2.307 1.307v7.037a3.213 3.213 0 0 0-.904 2.234 3.213 3.213 0 0 0 3.213 3.213 3.213 3.213 0 0 0 2.313-.985h7.383c.118 0 .23-.012.343-.022a1.65 2.363 0 0 0 1.065-2.208 1.65 2.363 0 0 0-1.35-2.321 2.363 2.363 0 0 1 .223-.03c-.093-.008-.185-.018-.28-.018h-7.408V7.213c0-.019-.004-.036-.004-.054a2.363 1.65 0 0 0-2.287-1.238zm.002 8.548a2.03 2.03 0 0 1 2.03 2.03 2.03 2.03 0 0 1-2.03 2.03 2.03 2.03 0 0 1-2.03-2.03 2.03 2.03 0 0 1 2.03-2.03zm0 .985a1.044 1.044 0 0 0-1.045 1.045 1.044 1.044 0 0 0 1.045 1.045 1.044 1.044 0 0 0 1.045-1.045 1.044 1.044 0 0 0-1.045-1.045z" fill="#ff9000"/></svg>