<svg xmlns="http://www.w3.org/2000/svg" viewBox="0 0 33 33"><path d="M7.038 2.517c-2.195 0-3.958 1.72-3.958 3.853v20.26c0 2.134 1.763 3.854 3.958 3.854h18.924c2.194 0 3.957-1.72 3.957-3.854V6.37c0-2.134-1.763-3.853-3.957-3.853zm1.998 2.95h14.928c1.731 0 3.127 1.358 3.127 3.042V24.49c0 1.684-1.396 3.041-3.127 3.041H9.036c-1.731 0-3.126-1.357-3.126-3.04V8.507c0-1.683 1.395-3.04 3.126-3.04zm14.381.833a1.27 1.27 0 0 0-.804.373L20.93 8.354l3.38 3.206 1.685-1.681c.458-.457.488-1.141.07-1.537l-1.872-1.777a1.014 1.014 0 0 0-.776-.265zm-4.044 3.607L8.807 20.45l-.039-.04s-2.275 4.157-1.534 4.859c.898.852 4.956-1.615 4.956-1.615l10.564-10.543z" fill="#ff9000" fill-rule="evenodd"/></svg>