<svg xmlns="http://www.w3.org/2000/svg" viewBox="0 0 33 33" version="1.1">
	<path style="fill:#ff9000;fill-rule:evenodd" d="m7.0376 2.5169c-2.1943 0-3.9578 1.7192-3.9578 3.8533v20.26c0 2.1341 1.7635 3.8533 3.9578 3.8533h18.924c2.1943 0 3.9578-1.7192 3.9578-3.8533v-20.26c0-2.1341-1.7635-3.8533-3.9578-3.8533zm1.9985 2.9507h14.928c1.7312 0 3.1266 1.3571 3.1266 3.0409v15.982c0 1.6838-1.3954 3.0409-3.1266 3.0409h-14.928c-1.7312 0-3.1266-1.3571-3.1266-3.0409v-15.982c0-1.6838 1.3954-3.0409 3.1266-3.0409zm14.381 0.8325c-0.28549 0.019739-0.57567 0.14491-0.80434 0.3731l-1.6829 1.6809 3.3803 3.2054 1.685-1.6809c0.45734-0.45637 0.48773-1.1406 0.07012-1.5365l-1.872-1.7773c-0.209-0.1979-0.49-0.2845-0.776-0.2647zm-4.044 3.6065-10.566 10.543-0.039-0.039s-2.2753 4.156-1.5344 4.8583c0.89865 0.85188 4.956-1.6147 4.956-1.6147l10.564-10.543z"/>
</svg>
