<svg xmlns="http://www.w3.org/2000/svg" viewBox="0 0 33 33" version="1.1">
	<path style="fill:#ff9100" d="m13.094 6.3164-10.143 10.141 9.885 10.227h17.213v-20.368zm11.982 4.5098c0.33857 0.000998 0.6769 0.1347 0.93555 0.40039l1.0332 1.0605c0.51725 0.53137 0.51456 1.3858-0.0059 1.9141l-2.3125 2.3477 2.4102 2.375c0.52827 0.52042 0.52551 1.3558-0.0059 1.873l-1.0605 1.0332c-0.53137 0.51725-1.3858 0.51456-1.9141-0.0059l-2.3477-2.3125-2.375 2.4102c-0.52042 0.52827-1.3558 0.52551-1.873-0.0059l-1.0332-1.0625c-0.51725-0.53137-0.51456-1.3838 0.0059-1.9121l2.3125-2.3477-2.4102-2.375c-0.52827-0.52042-0.52551-1.3558 0.0059-1.873l1.0625-1.0332c0.53137-0.51725 1.3838-0.51456 1.9121 0.0059l2.3477 2.3125 2.375-2.4102c0.26021-0.26416 0.59893-0.39553 0.9375-0.39453z"/>
</svg>
