<svg xmlns="http://www.w3.org/2000/svg" viewBox="0 0 33 33"><path d="M13.094 6.316L2.951 16.457l9.885 10.227h17.213V6.316zm11.982 4.51c.339.001.677.135.936.4l1.033 1.061a1.371 1.371 0 0 1-.006 1.914l-2.313 2.348 2.41 2.375c.529.52.526 1.356-.005 1.873l-1.06 1.033a1.371 1.371 0 0 1-1.915-.006l-2.348-2.312-2.375 2.41a1.302 1.302 0 0 1-1.873-.006l-1.033-1.063a1.369 1.369 0 0 1 .006-1.912l2.313-2.347-2.41-2.375a1.302 1.302 0 0 1 .005-1.873l1.063-1.034a1.369 1.369 0 0 1 1.912.006l2.348 2.313 2.375-2.41c.26-.264.598-.396.937-.395z" fill="#ff9100"/></svg>