<svg xmlns="http://www.w3.org/2000/svg" viewBox="0 0 33 33"><path d="M17.333 3.064v8.971a4.962 4.962 0 0 1 1.786.667l6.512-6.512c-2.34-1.857-5.249-2.953-8.298-3.126zm-1.666.012c-3.05.165-5.963 1.253-8.308 3.105l6.52 6.52a4.961 4.961 0 0 1 1.788-.67zM6.12 7.3c-2.264 2.284-3.617 5.242-3.825 8.367h9.49c.133-.67.424-1.302.851-1.851zm20.752.006l-6.51 6.51c.427.549.718 1.181.851 1.85h9.477c-.208-3.121-1.558-6.077-3.82-8.36zM16.5 13.807a2.693 2.693 0 0 0-2.693 2.693 2.693 2.693 0 0 0 2.693 2.693 2.693 2.693 0 0 0 2.693-2.693 2.693 2.693 0 0 0-2.693-2.693zM2.309 17.333c.207 3.122 1.557 6.078 3.818 8.361l6.51-6.51a4.415 4.415 0 0 1-.851-1.851zm18.905 0a4.418 4.418 0 0 1-.852 1.851l6.515 6.516c2.265-2.284 3.618-5.242 3.826-8.367zm-7.334 2.965L7.368 26.81c2.34 1.857 5.25 2.953 8.298 3.125v-8.97a4.962 4.962 0 0 1-1.786-.667zm5.24.002a4.961 4.961 0 0 1-1.788.669v8.955c3.05-.165 5.963-1.254 8.308-3.105z" fill-rule="evenodd" fill="#ff9000"/></svg>