<svg xmlns="http://www.w3.org/2000/svg" viewBox="0 0 33 33" version="1.1">
	<path style="fill-rule:evenodd;fill:#ff9000" d="m17.333 3.0645v8.9706c0.63688 0.10617 1.2445 0.33301 1.7864 0.66688l6.512-6.5119c-2.34-1.8569-5.249-2.9528-8.298-3.1256zm-1.6663 0.011084c-3.05 0.1652-5.9624 1.2539-8.3075 3.1053l6.5192 6.5192c0.54226-0.33474 1.1505-0.56222 1.7882-0.66873zm-9.5452 4.2248c-2.2649 2.2833-3.6178 5.2416-3.8258 8.3666h9.4897c0.13337-0.66965 0.42444-1.3023 0.85161-1.851zm20.751 0.00554-6.5099 6.5099c0.42717 0.54872 0.71824 1.1814 0.85161 1.851h9.4767c-0.208-3.122-1.558-6.0782-3.819-8.3611zm-10.373 6.5011a2.6932 2.6932 0 0 0 -2.693 2.693 2.6932 2.6932 0 0 0 2.693 2.693 2.6932 2.6932 0 0 0 2.693 -2.693 2.6932 2.6932 0 0 0 -2.693 -2.693zm-14.191 3.526c0.20737 3.1219 1.5575 6.0781 3.8184 8.361l6.5097-6.51c-0.427-0.549-0.718-1.181-0.851-1.851zm18.905 0c-0.13337 0.66965-0.42444 1.3023-0.85161 1.851l6.5155 6.5155c2.2649-2.2833 3.6177-5.2418 3.8258-8.3665zm-7.3338 2.9649-6.5118 6.5118c2.3399 1.8569 5.2492 2.9528 8.2981 3.1257v-8.9706c-0.63688-0.10617-1.2445-0.33301-1.7864-0.66688zm5.2408 0.0019c-0.54226 0.33474-1.1505 0.56222-1.7882 0.66873v8.9558c3.0497-0.16526 5.9622-1.254 8.3074-3.1053z"/>
</svg>
